<svg width="190" height="201" viewBox="0 0 190 201" fill="none" xmlns="http://www.w3.org/2000/svg">
<g clip-path="url(#clip0_1409_12244)">
<path d="M43.8958 66.9577C42.8088 66.8234 40.7361 64.9461 39.8136 63.2603C38.6953 61.2164 38.3174 59.6209 37.876 55.0796C37.7724 54.0133 37.6726 53.0842 37.6542 53.0149C37.6073 52.8376 37.4525 52.8354 36.0598 52.993C35.3812 53.0698 34.5304 53.1312 34.1691 53.1296C32.697 53.1229 32.0892 53.3556 30.6867 54.4631C29.482 55.4143 29.1657 55.5799 27.5919 56.0829C26.5315 56.4219 25.8638 56.6932 24.9882 57.141C24.3406 57.4723 23.4919 57.852 23.1023 57.9848C22.4932 58.1925 22.3497 58.2123 22.0782 58.1265C21.4049 57.9136 20.7158 56.6681 20.2059 54.7423C19.8376 53.351 19.8253 53.023 20.0906 51.6489C20.4331 49.8742 21.2496 48.0957 22.3828 46.6562C23.8164 44.8351 25.7012 43.8477 31.146 42.0653C34.5629 40.9468 38.0523 39.7367 39.26 39.2514C41.79 38.2348 45.9814 36.2697 48.6837 34.8332C53.4653 32.2914 54.3497 31.6548 57.8878 28.2071C60.4413 25.719 62.0403 24.4197 63.7841 23.4164C64.3592 23.0855 64.6756 22.9735 66.1138 22.5916C67.6266 22.1898 67.9162 22.1403 69.2974 22.0463C70.1331 21.9895 71.5481 21.8369 72.4419 21.7072C73.3357 21.5776 74.3171 21.4372 74.6228 21.3953L75.1787 21.3191L74.8051 19.9594C74.5686 19.0987 74.4367 18.4599 74.4457 18.2189C74.4616 17.7914 74.492 17.6844 75.5691 14.266C75.9946 12.9154 76.3701 11.7194 76.4035 11.608C77.2448 8.80374 78.3575 6.35224 78.9181 6.0679C79.7315 5.65527 80.3661 6.06247 81.4492 7.692C82.2583 8.90934 82.9369 10.2568 83.4704 11.7051L83.848 12.7305L84.0126 11.6085C84.4412 8.68666 84.981 6.94429 85.6696 6.26027C86.2918 5.64211 87.2066 5.15185 87.8222 5.10664C88.8205 5.03332 90.3975 6.67488 91.1206 8.54022C91.2942 8.98796 91.7342 10.4798 92.0984 11.8553C92.4626 13.2309 92.7771 14.352 92.7974 14.3467C92.8177 14.3413 93.2272 13.9358 93.7073 13.4456C95.4733 11.6426 97.2023 10.299 98.47 9.74446C98.8132 9.59432 99.5148 9.37617 100.029 9.25967C100.855 9.07261 101.025 9.06295 101.484 9.17694C102.282 9.37521 102.92 9.92387 104.063 11.3965C105.028 12.6386 105.153 12.9 105.482 14.3564C105.731 15.4588 105.794 16.0104 105.914 18.1397C106.078 21.0454 106.026 21.5087 105.471 22.0684C104.89 22.6547 104.361 22.8565 101.969 23.4026C100.793 23.671 99.0621 24.0916 98.1217 24.3372C96.415 24.7828 96.4111 24.7845 95.9705 25.1674C95.4626 25.6087 95.0074 26.4865 94.853 27.3223C94.6655 28.3372 94.7712 29.0403 95.6283 32.4813C96.5226 36.0714 96.6046 36.5652 96.4487 37.4192C96.0834 39.4197 93.998 41.8114 91.56 43.026C90.5939 43.5073 90.0228 43.4015 89.3412 42.6149C88.4591 41.5969 87.6479 38.876 87.4449 36.2545C87.2391 33.596 87.1063 32.6032 86.8017 31.4445C86.4455 30.0896 86.2855 29.8472 85.7203 29.8064C85.1987 29.7687 84.3637 30.018 84.0464 30.3062C83.4094 30.8847 82.156 32.7724 81.3248 34.405C80.3963 36.229 79.7463 38.1701 79.4987 39.8588C79.2432 41.601 79.3096 42.0142 79.9936 42.9372C81.0021 44.298 81.4547 45.4555 81.5813 46.9972C81.655 47.894 81.6204 48.3401 81.3962 49.3816C80.8376 51.9771 80.1187 52.9592 78.7899 52.9424C77.7507 52.9293 76.6155 51.6866 75.7539 49.6191C75.5997 49.249 75.1705 47.8123 74.8003 46.4265C74.0892 43.7648 74.0132 43.2786 73.9591 41.0441C73.9492 40.6341 73.9035 40.1556 73.8576 39.9808C73.7819 39.6926 73.746 39.6645 73.4737 39.6792C73.3085 39.6881 72.1978 39.9148 71.0056 40.1829C69.104 40.6105 68.7282 40.6695 67.9454 40.6632C67.1071 40.6565 66.8749 40.6983 64.1228 41.3517C62.5112 41.7343 61.1433 42.0323 61.083 42.014C61.0226 41.9957 60.7797 42.0615 60.5432 42.16L60.1131 42.3396L60.3662 43.0825C60.5053 43.4912 60.8113 44.3654 61.0461 45.0254C61.5732 46.5068 62.2113 49.2057 62.2877 50.2765C62.5501 53.954 61.7257 57.7893 60.3508 59.2868C59.5809 60.1254 57.861 60.9832 56.9748 60.9705C55.7138 60.9525 54.4514 59.6443 53.6671 57.5427C52.9125 55.5205 52.5564 53.6369 52.4745 51.2335C52.4519 50.569 52.4171 49.5654 52.3974 49.0032C52.3776 48.4411 52.3122 47.7635 52.2522 47.4974C52.1455 47.025 52.1348 47.0121 51.796 46.948C51.6053 46.9118 50.9485 46.9009 50.3366 46.9238C49.378 46.9595 48.9243 47.0342 47.059 47.4633C44.6358 48.0208 42.2352 48.7569 41.8327 49.0659C41.302 49.4733 40.7856 50.9258 40.7765 52.037C40.7657 53.3456 41.2168 55.5109 41.8403 57.1437C42.1652 57.9948 42.5601 58.7255 43.5027 60.2203C44.3604 61.5804 44.6327 62.1175 45.0746 63.3208C45.4538 64.3533 45.6522 65.2533 45.6264 65.8243C45.599 66.4319 44.6534 67.0512 43.8958 66.9577ZM44.8784 65.8967L45.0451 65.6098L44.598 64.1188C44.1168 62.5137 43.8903 62.0329 42.8578 60.4248C41.6336 58.5183 41.3973 58.0062 40.8188 56.0077C40.2457 54.0276 40.0694 52.9431 40.121 51.7153C40.1681 50.5931 40.9338 48.799 41.5092 48.4625C42.5171 47.8731 47.7045 46.4678 49.3861 46.3287C51.2113 46.1777 52.1279 46.2427 52.5389 46.5523C52.9432 46.8568 53.0485 47.6162 53.1188 50.7349C53.1753 53.2368 53.4085 54.6923 54.0631 56.6274C54.3193 57.3848 54.6533 58.2248 54.8053 58.494C55.215 59.2196 55.8339 59.8924 56.3239 60.145C56.7484 60.3639 56.7724 60.3646 57.4795 60.176C58.282 59.9623 58.9911 59.6131 59.5717 59.1466C61.2464 57.8012 62.1702 52.5727 61.3866 48.8741C61.139 47.7052 60.4434 45.2974 59.8492 43.55C59.4294 42.3163 59.4309 42.1928 59.8697 41.8157C60.1967 41.5348 60.2955 41.4985 61.2585 41.306C61.8287 41.192 63.3688 40.8514 64.6809 40.5492C66.8092 40.059 67.1676 39.9991 68.0027 39.9946C68.8158 39.9902 69.2238 39.9251 71.1059 39.4997C74.02 38.841 74.2167 38.8561 74.455 39.7561C74.5297 40.0383 74.606 40.6551 74.6246 41.1268C74.7079 43.2395 74.7233 43.3458 75.2755 45.5958C75.8854 48.0813 76.4333 49.7194 76.9396 50.5706C77.3735 51.3002 78.0734 52.0805 78.4156 52.2162C78.7708 52.3571 79.5162 52.1817 79.7717 51.8972C80.2918 51.318 80.9578 48.9158 80.9471 47.6574C80.9327 45.9767 80.5661 44.8989 79.4946 43.3874C79.1241 42.8646 78.7915 42.3261 78.7557 42.1907C78.4856 41.1706 79.004 38.3089 79.8757 36.0078C80.6825 33.8782 82.5698 30.7742 83.6559 29.7906C84.0799 29.4067 84.8937 29.135 85.5739 29.1503C86.2197 29.1648 86.4283 29.2518 86.8171 29.6686C87.0725 29.9424 87.1303 30.0957 87.4597 31.374C87.7471 32.4889 87.8446 33.0628 87.9324 34.156C88.1462 36.817 88.243 37.6474 88.4629 38.7045C88.7594 40.1308 89.2849 41.497 89.7661 42.0925C90.3652 42.8342 90.6297 42.8383 91.8288 42.1245C93.6487 41.0412 95.3237 39.1381 95.7236 37.6994C95.9799 36.7774 95.9563 36.6128 95.0286 32.8399C94.3323 30.008 94.156 29.1729 94.1286 28.5768C94.0449 26.7529 94.8013 25.0588 96.0376 24.3018C96.6041 23.9549 98.0478 23.5626 100.58 23.0675C103.698 22.4578 105.142 21.8782 105.293 21.1764C105.385 20.7508 105.375 19.9644 105.261 18.4086C105.201 17.5991 105.146 16.6432 105.138 16.2842C105.119 15.4287 104.567 13.2276 104.256 12.7666C103.757 12.0281 102.755 10.8074 102.303 10.387C101.656 9.78571 101.198 9.66542 100.274 9.85368C98.4127 10.2329 96.5257 11.4989 94.067 14.0182C93.007 15.1044 92.92 15.2177 92.8478 15.6053C92.7701 16.0224 92.4514 16.2421 92.2089 16.0457C91.9775 15.8583 91.9604 15.7023 92.1222 15.255L92.2658 14.858L91.3826 11.7415C90.4031 8.2857 90.251 7.90799 89.4471 6.93701C88.4635 5.74887 88.0147 5.58802 87.0434 6.07549C86.0126 6.59279 85.5827 7.2454 85.1746 8.91216C84.7754 10.5428 84.3301 13.857 84.4135 14.5774C84.4676 15.0448 84.269 15.3071 83.9857 15.1423C83.8427 15.0591 83.7116 14.7176 83.2883 13.325C83.0015 12.3818 82.6492 11.3458 82.5053 11.0229C81.5527 8.88559 80.1303 6.71552 79.5993 6.58968C78.8709 6.41705 78.1854 8.00942 76.1195 14.6729C75.5987 16.3526 75.15 17.9062 75.1224 18.1254C75.0664 18.5701 75.344 19.7676 75.6957 20.5987L75.9057 21.095L76.4795 20.8845C76.7951 20.7688 77.2327 20.5635 77.452 20.4284C77.8811 20.164 78.1165 20.1297 78.2483 20.3123C78.3978 20.5195 78.3061 20.7116 77.9631 20.9094C77.6646 21.0815 76.3072 21.7122 76.1351 21.7587C76.0991 21.7685 76.1048 21.9096 76.1479 22.0724C76.3091 22.6815 75.7743 22.8588 75.5617 22.2667L75.454 21.9668L74.3469 22.1044C73.738 22.1801 72.6922 22.325 72.023 22.4264C71.3538 22.5278 70.1447 22.6616 69.3362 22.7238C64.7606 23.0755 63.0907 24.02 57.6765 29.3188C54.8419 32.0929 53.596 32.9764 49.3494 35.223C46.6752 36.6378 45.6969 37.1168 42.9178 38.3725C39.3913 39.9658 38.1414 40.4417 33.1242 42.1012C28.088 43.767 26.933 44.2015 25.5104 44.9654C23.8749 45.8436 22.9611 46.726 22.0759 48.2816C21.1039 49.9899 20.4782 52.0844 20.5783 53.2953C20.6974 54.7368 21.6331 57.1326 22.2075 57.4667C22.4193 57.5898 22.8582 57.4268 24.8827 56.4727C25.8209 56.0306 26.9312 55.5799 27.7184 55.3215C28.961 54.9137 29.0447 54.8725 29.8331 54.2796C31.7392 52.8465 31.6057 52.9254 32.5485 52.6738C33.1826 52.5046 33.6189 52.4435 34.1305 52.4528C34.5191 52.4598 35.411 52.4055 36.1126 52.3321C37.43 52.1943 38.0978 52.2511 38.1906 52.5088C38.3201 52.8683 38.3731 53.296 38.6514 56.2268C38.8656 58.4833 39.1322 59.8699 39.5957 61.1384C40.2643 62.968 40.9985 64.1101 42.2178 65.2177C42.8179 65.7628 43.6001 66.2586 43.9239 66.2993C44.3368 66.3511 44.7044 66.1961 44.8784 65.8967ZM88.7726 25.8191C87.8704 25.9558 87.7513 25.7686 87.8338 24.3445C87.8771 23.596 88.019 23.3558 88.3159 23.5284C88.4965 23.6334 88.5057 23.6774 88.4874 24.3469C88.4768 24.736 88.4788 25.0946 88.4919 25.1438C88.5297 25.2868 89.7549 24.9226 90.1736 24.6439C90.4427 24.4648 90.6303 24.23 90.8374 23.8129C91.1398 23.2041 91.3397 23.0573 91.5538 23.287C91.6513 23.3917 91.6477 23.5246 91.5385 23.8477C91.1712 24.9349 90.2432 25.5963 88.7726 25.8191ZM85.0833 21.6131C84.7532 21.484 84.8308 21.21 85.2948 20.8657C85.7576 20.5224 86.0431 20.4979 86.1217 20.7949C86.1723 20.9856 86.0774 21.1272 85.7522 21.3466C85.621 21.4351 85.4598 21.5481 85.3942 21.5977C85.3285 21.6473 85.1885 21.654 85.0833 21.6131ZM90.0093 19.4737C89.9362 19.4312 89.8379 19.2513 89.791 19.0741C89.6201 18.4286 90.1523 18.2449 90.3764 18.8721C90.542 19.3359 90.3405 19.6663 90.0093 19.4737Z" fill="#AF8903"/>
</g>
<g clip-path="url(#clip1_1409_12244)">
<path d="M157.608 141.958C158.695 141.823 160.768 139.946 161.69 138.26C162.808 136.216 163.186 134.621 163.628 130.08C163.731 129.013 163.831 128.084 163.849 128.015C163.896 127.838 164.051 127.835 165.444 127.993C166.122 128.07 166.973 128.131 167.335 128.13C168.807 128.123 169.414 128.356 170.817 129.463C172.022 130.414 172.338 130.58 173.912 131.083C174.972 131.422 175.64 131.693 176.515 132.141C177.163 132.472 178.012 132.852 178.401 132.985C179.01 133.192 179.154 133.212 179.425 133.126C180.099 132.914 180.788 131.668 181.298 129.742C181.666 128.351 181.678 128.023 181.413 126.649C181.071 124.874 180.254 123.096 179.121 121.656C177.687 119.835 175.802 118.848 170.358 117.065C166.941 115.947 163.451 114.737 162.244 114.251C159.714 113.235 155.522 111.27 152.82 109.833C148.038 107.291 147.154 106.655 143.616 103.207C141.062 100.719 139.463 99.4197 137.72 98.4164C137.144 98.0855 136.828 97.9735 135.39 97.5916C133.877 97.1898 133.587 97.1403 132.206 97.0463C131.371 96.9895 129.955 96.8369 129.062 96.7072C128.168 96.5776 127.187 96.4372 126.881 96.3953L126.325 96.3191L126.698 94.9594C126.935 94.0987 127.067 93.4599 127.058 93.2189C127.042 92.7914 127.012 92.6844 125.935 89.266C125.509 87.9154 125.134 86.7194 125.1 86.608C124.259 83.8037 123.146 81.3522 122.586 81.0679C121.772 80.6553 121.137 81.0625 120.054 82.692C119.245 83.9093 118.567 85.2568 118.033 86.7051L117.656 87.7305L117.491 86.6085C117.062 83.6867 116.523 81.9443 115.834 81.2603C115.212 80.6421 114.297 80.1519 113.681 80.1066C112.683 80.0333 111.106 81.6749 110.383 83.5402C110.209 83.988 109.769 85.4798 109.405 86.8553C109.041 88.2309 108.726 89.352 108.706 89.3467C108.686 89.3413 108.276 88.9358 107.796 88.4456C106.03 86.6426 104.301 85.299 103.034 84.7445C102.69 84.5943 101.989 84.3762 101.475 84.2597C100.649 84.0726 100.479 84.0629 100.02 84.1769C99.2216 84.3752 98.5839 84.9239 97.4402 86.3965C96.4756 87.6386 96.3503 87.9 96.0216 89.3564C95.7728 90.4588 95.7098 91.0104 95.5896 93.1397C95.4257 96.0454 95.4779 96.5087 96.0325 97.0684C96.6136 97.6547 97.143 97.8565 99.5349 98.4026C100.71 98.671 102.441 99.0916 103.382 99.3372C105.089 99.7828 105.093 99.7845 105.533 100.167C106.041 100.609 106.496 101.487 106.651 102.322C106.838 103.337 106.732 104.04 105.875 107.481C104.981 111.071 104.899 111.565 105.055 112.419C105.42 114.42 107.506 116.811 109.944 118.026C110.91 118.507 111.481 118.401 112.162 117.615C113.045 116.597 113.856 113.876 114.059 111.254C114.265 108.596 114.397 107.603 114.702 106.444C115.058 105.09 115.218 104.847 115.783 104.806C116.305 104.769 117.14 105.018 117.457 105.306C118.094 105.885 119.348 107.772 120.179 109.405C121.107 111.229 121.757 113.17 122.005 114.859C122.26 116.601 122.194 117.014 121.51 117.937C120.502 119.298 120.049 120.455 119.922 121.997C119.849 122.894 119.883 123.34 120.107 124.382C120.666 126.977 121.385 127.959 122.714 127.942C123.753 127.929 124.888 126.687 125.75 124.619C125.904 124.249 126.333 122.812 126.703 121.426C127.414 118.765 127.49 118.279 127.545 116.044C127.554 115.634 127.6 115.156 127.646 114.981C127.722 114.693 127.758 114.664 128.03 114.679C128.195 114.688 129.306 114.915 130.498 115.183C132.4 115.61 132.775 115.669 133.558 115.663C134.397 115.657 134.629 115.698 137.381 116.352C138.992 116.734 140.36 117.032 140.421 117.014C140.481 116.996 140.724 117.061 140.96 117.16L141.391 117.34L141.137 118.083C140.998 118.491 140.692 119.365 140.457 120.025C139.93 121.507 139.292 124.206 139.216 125.276C138.953 128.954 139.778 132.789 141.153 134.287C141.923 135.125 143.643 135.983 144.529 135.971C145.79 135.953 147.052 134.644 147.837 132.543C148.591 130.521 148.947 128.637 149.029 126.234C149.052 125.569 149.086 124.565 149.106 124.003C149.126 123.441 149.191 122.764 149.251 122.497C149.358 122.025 149.369 122.012 149.708 121.948C149.898 121.912 150.555 121.901 151.167 121.924C152.126 121.96 152.579 122.034 154.445 122.463C156.868 123.021 159.268 123.757 159.671 124.066C160.202 124.473 160.718 125.926 160.727 127.037C160.738 128.346 160.287 130.511 159.663 132.144C159.338 132.995 158.944 133.726 158.001 135.22C157.143 136.58 156.871 137.117 156.429 138.321C156.05 139.353 155.851 140.253 155.877 140.824C155.905 141.432 156.85 142.051 157.608 141.958ZM156.625 140.897L156.459 140.61L156.906 139.119C157.387 137.514 157.613 137.033 158.646 135.425C159.87 133.518 160.106 133.006 160.685 131.008C161.258 129.028 161.434 127.943 161.383 126.715C161.336 125.593 160.57 123.799 159.994 123.463C158.987 122.873 153.799 121.468 152.117 121.329C150.292 121.178 149.376 121.243 148.965 121.552C148.56 121.857 148.455 122.616 148.385 125.735C148.328 128.237 148.095 129.692 147.441 131.627C147.184 132.385 146.85 133.225 146.698 133.494C146.289 134.22 145.67 134.892 145.18 135.145C144.755 135.364 144.731 135.365 144.024 135.176C143.222 134.962 142.513 134.613 141.932 134.147C140.257 132.801 139.333 127.573 140.117 123.874C140.365 122.705 141.06 120.297 141.654 118.55C142.074 117.316 142.073 117.193 141.634 116.816C141.307 116.535 141.208 116.499 140.245 116.306C139.675 116.192 138.135 115.851 136.823 115.549C134.694 115.059 134.336 114.999 133.501 114.995C132.688 114.99 132.28 114.925 130.398 114.5C127.484 113.841 127.287 113.856 127.049 114.756C126.974 115.038 126.898 115.655 126.879 116.127C126.796 118.239 126.78 118.346 126.228 120.596C125.618 123.081 125.07 124.719 124.564 125.571C124.13 126.3 123.43 127.081 123.088 127.216C122.733 127.357 121.987 127.182 121.732 126.897C121.212 126.318 120.546 123.916 120.557 122.657C120.571 120.977 120.938 119.899 122.009 118.387C122.38 117.865 122.712 117.326 122.748 117.191C123.018 116.171 122.5 113.309 121.628 111.008C120.821 108.878 118.934 105.774 117.848 104.791C117.424 104.407 116.61 104.135 115.93 104.15C115.284 104.165 115.075 104.252 114.686 104.669C114.431 104.942 114.373 105.096 114.044 106.374C113.756 107.489 113.659 108.063 113.571 109.156C113.357 111.817 113.261 112.647 113.041 113.705C112.744 115.131 112.219 116.497 111.738 117.093C111.138 117.834 110.874 117.838 109.675 117.124C107.855 116.041 106.18 114.138 105.78 112.699C105.524 111.777 105.547 111.613 106.475 107.84C107.171 105.008 107.348 104.173 107.375 103.577C107.459 101.753 106.702 100.059 105.466 99.3018C104.9 98.9549 103.456 98.5626 100.924 98.0675C97.8061 97.4578 96.3614 96.8782 96.2105 96.1764C96.1191 95.7508 96.1283 94.9644 96.2431 93.4086C96.3028 92.5991 96.3581 91.6432 96.366 91.2842C96.3848 90.4287 96.9368 88.2276 97.2481 87.7666C97.7468 87.0281 98.7486 85.8074 99.2009 85.387C99.8478 84.7857 100.305 84.6654 101.229 84.8537C103.091 85.2329 104.978 86.4989 107.437 89.0182C108.497 90.1044 108.584 90.2177 108.656 90.6053C108.734 91.0224 109.052 91.2421 109.295 91.0457C109.526 90.8583 109.543 90.7023 109.381 90.255L109.238 89.858L110.121 86.7415C111.1 83.2857 111.253 82.908 112.056 81.937C113.04 80.7489 113.489 80.588 114.46 81.0755C115.491 81.5928 115.921 82.2454 116.329 83.9122C116.728 85.5428 117.173 88.857 117.09 89.5774C117.036 90.0448 117.235 90.3071 117.518 90.1423C117.661 90.0591 117.792 89.7176 118.215 88.325C118.502 87.3818 118.854 86.3458 118.998 86.0229C119.951 83.8856 121.373 81.7155 121.904 81.5897C122.633 81.417 123.318 83.0094 125.384 89.6729C125.905 91.3526 126.354 92.9062 126.381 93.1254C126.437 93.5701 126.16 94.7676 125.808 95.5987L125.598 96.095L125.024 95.8845C124.709 95.7688 124.271 95.5635 124.052 95.4284C123.623 95.164 123.387 95.1297 123.255 95.3123C123.106 95.5195 123.198 95.7116 123.541 95.9094C123.839 96.0815 125.196 96.7122 125.368 96.7587C125.405 96.7685 125.399 96.9096 125.356 97.0724C125.194 97.6815 125.729 97.8588 125.942 97.2667L126.05 96.9668L127.157 97.1044C127.766 97.1801 128.811 97.325 129.481 97.4264C130.15 97.5278 131.359 97.6616 132.167 97.7238C136.743 98.0755 138.413 99.02 143.827 104.319C146.662 107.093 147.908 107.976 152.154 110.223C154.828 111.638 155.807 112.117 158.586 113.372C162.112 114.966 163.362 115.442 168.379 117.101C173.416 118.767 174.571 119.201 175.993 119.965C177.629 120.844 178.542 121.726 179.428 123.282C180.4 124.99 181.025 127.084 180.925 128.295C180.806 129.737 179.871 132.133 179.296 132.467C179.084 132.59 178.645 132.427 176.621 131.473C175.683 131.031 174.572 130.58 173.785 130.322C172.543 129.914 172.459 129.872 171.67 129.28C169.764 127.847 169.898 127.925 168.955 127.674C168.321 127.505 167.885 127.444 167.373 127.453C166.985 127.46 166.093 127.406 165.391 127.332C164.074 127.194 163.406 127.251 163.313 127.509C163.183 127.868 163.13 128.296 162.852 131.227C162.638 133.483 162.371 134.87 161.908 136.138C161.239 137.968 160.505 139.11 159.286 140.218C158.686 140.763 157.904 141.259 157.58 141.299C157.167 141.351 156.799 141.196 156.625 140.897ZM112.731 100.819C113.633 100.956 113.752 100.769 113.67 99.3445C113.627 98.596 113.485 98.3558 113.188 98.5284C113.007 98.6334 112.998 98.6774 113.016 99.3469C113.027 99.736 113.025 100.095 113.012 100.144C112.974 100.287 111.749 99.9226 111.33 99.6439C111.061 99.4648 110.873 99.23 110.666 98.8129C110.364 98.2041 110.164 98.0573 109.95 98.287C109.852 98.3917 109.856 98.5246 109.965 98.8477C110.332 99.9349 111.26 100.596 112.731 100.819ZM116.42 96.6131C116.75 96.484 116.673 96.21 116.209 95.8657C115.746 95.5224 115.46 95.4979 115.382 95.7949C115.331 95.9856 115.426 96.1272 115.751 96.3466C115.883 96.4351 116.044 96.5481 116.109 96.5977C116.175 96.6473 116.315 96.654 116.42 96.6131ZM111.494 94.4737C111.567 94.4312 111.666 94.2513 111.713 94.0741C111.884 93.4286 111.351 93.2449 111.127 93.8721C110.962 94.3359 111.163 94.6663 111.494 94.4737Z" fill="#AF8903"/>
</g>
<g clip-path="url(#clip2_1409_12244)">
<path d="M31.8958 194.958C30.8088 194.823 28.7361 192.946 27.8136 191.26C26.6953 189.216 26.3174 187.621 25.876 183.08C25.7724 182.013 25.6726 181.084 25.6542 181.015C25.6073 180.838 25.4525 180.835 24.0598 180.993C23.3812 181.07 22.5304 181.131 22.1691 181.13C20.697 181.123 20.0892 181.356 18.6867 182.463C17.482 183.414 17.1657 183.58 15.5919 184.083C14.5315 184.422 13.8638 184.693 12.9882 185.141C12.3406 185.472 11.4919 185.852 11.1023 185.985C10.4932 186.192 10.3497 186.212 10.0782 186.126C9.40487 185.914 8.71579 184.668 8.20592 182.742C7.83757 181.351 7.82534 181.023 8.09056 179.649C8.43311 177.874 9.24963 176.096 10.3828 174.656C11.8164 172.835 13.7012 171.848 19.146 170.065C22.5629 168.947 26.0523 167.737 27.26 167.251C29.79 166.235 33.9814 164.27 36.6837 162.833C41.4653 160.291 42.3497 159.655 45.8878 156.207C48.4413 153.719 50.0403 152.42 51.7841 151.416C52.3592 151.085 52.6756 150.973 54.1138 150.592C55.6266 150.19 55.9162 150.14 57.2974 150.046C58.1331 149.989 59.5481 149.837 60.4419 149.707C61.3357 149.578 62.3171 149.437 62.6228 149.395L63.1787 149.319L62.8051 147.959C62.5686 147.099 62.4367 146.46 62.4457 146.219C62.4616 145.791 62.492 145.684 63.5691 142.266C63.9946 140.915 64.3701 139.719 64.4035 139.608C65.2448 136.804 66.3575 134.352 66.9181 134.068C67.7315 133.655 68.3661 134.062 69.4492 135.692C70.2583 136.909 70.9369 138.257 71.4704 139.705L71.848 140.731L72.0126 139.608C72.4412 136.687 72.981 134.944 73.6696 134.26C74.2918 133.642 75.2066 133.152 75.8222 133.107C76.8205 133.033 78.3975 134.675 79.1206 136.54C79.2942 136.988 79.7342 138.48 80.0984 139.855C80.4626 141.231 80.7771 142.352 80.7974 142.347C80.8177 142.341 81.2272 141.936 81.7073 141.446C83.4733 139.643 85.2023 138.299 86.47 137.744C86.8132 137.594 87.5148 137.376 88.0291 137.26C88.8547 137.073 89.0249 137.063 89.4839 137.177C90.282 137.375 90.9197 137.924 92.0634 139.397C93.028 140.639 93.1533 140.9 93.482 142.356C93.7308 143.459 93.7939 144.01 93.914 146.14C94.078 149.045 94.0257 149.509 93.4711 150.068C92.8901 150.655 92.3606 150.856 89.9687 151.403C88.7933 151.671 87.0621 152.092 86.1217 152.337C84.415 152.783 84.4111 152.784 83.9705 153.167C83.4626 153.609 83.0074 154.487 82.853 155.322C82.6655 156.337 82.7712 157.04 83.6283 160.481C84.5226 164.071 84.6046 164.565 84.4487 165.419C84.0834 167.42 81.998 169.811 79.56 171.026C78.5939 171.507 78.0228 171.401 77.3412 170.615C76.4591 169.597 75.6479 166.876 75.4449 164.254C75.2391 161.596 75.1063 160.603 74.8017 159.444C74.4455 158.09 74.2855 157.847 73.7203 157.806C73.1987 157.769 72.3637 158.018 72.0464 158.306C71.4094 158.885 70.156 160.772 69.3248 162.405C68.3963 164.229 67.7463 166.17 67.4987 167.859C67.2432 169.601 67.3096 170.014 67.9936 170.937C69.0021 172.298 69.4547 173.455 69.5813 174.997C69.655 175.894 69.6204 176.34 69.3962 177.382C68.8376 179.977 68.1187 180.959 66.7899 180.942C65.7507 180.929 64.6155 179.687 63.7539 177.619C63.5997 177.249 63.1705 175.812 62.8003 174.426C62.0892 171.765 62.0132 171.279 61.9591 169.044C61.9492 168.634 61.9035 168.156 61.8576 167.981C61.7819 167.693 61.746 167.664 61.4737 167.679C61.3085 167.688 60.1978 167.915 59.0056 168.183C57.104 168.61 56.7282 168.669 55.9454 168.663C55.1071 168.657 54.8749 168.698 52.1228 169.352C50.5112 169.734 49.1433 170.032 49.083 170.014C49.0226 169.996 48.7797 170.061 48.5432 170.16L48.1131 170.34L48.3662 171.083C48.5053 171.491 48.8113 172.365 49.0461 173.025C49.5732 174.507 50.2113 177.206 50.2877 178.276C50.5501 181.954 49.7257 185.789 48.3508 187.287C47.5809 188.125 45.861 188.983 44.9748 188.971C43.7138 188.953 42.4514 187.644 41.6671 185.543C40.9125 183.521 40.5564 181.637 40.4745 179.234C40.4519 178.569 40.4171 177.565 40.3974 177.003C40.3776 176.441 40.3122 175.764 40.2522 175.497C40.1455 175.025 40.1348 175.012 39.796 174.948C39.6053 174.912 38.9485 174.901 38.3366 174.924C37.378 174.96 36.9243 175.034 35.059 175.463C32.6358 176.021 30.2352 176.757 29.8327 177.066C29.302 177.473 28.7856 178.926 28.7765 180.037C28.7657 181.346 29.2168 183.511 29.8403 185.144C30.1652 185.995 30.5601 186.726 31.5027 188.22C32.3604 189.58 32.6327 190.117 33.0746 191.321C33.4538 192.353 33.6522 193.253 33.6264 193.824C33.599 194.432 32.6534 195.051 31.8958 194.958ZM32.8784 193.897L33.0451 193.61L32.598 192.119C32.1168 190.514 31.8903 190.033 30.8578 188.425C29.6336 186.518 29.3973 186.006 28.8188 184.008C28.2457 182.028 28.0694 180.943 28.121 179.715C28.1681 178.593 28.9338 176.799 29.5092 176.463C30.5171 175.873 35.7045 174.468 37.3861 174.329C39.2113 174.178 40.1279 174.243 40.5389 174.552C40.9432 174.857 41.0485 175.616 41.1188 178.735C41.1753 181.237 41.4085 182.692 42.0631 184.627C42.3193 185.385 42.6533 186.225 42.8053 186.494C43.215 187.22 43.8339 187.892 44.3239 188.145C44.7484 188.364 44.7724 188.365 45.4795 188.176C46.282 187.962 46.9911 187.613 47.5717 187.147C49.2464 185.801 50.1702 180.573 49.3866 176.874C49.139 175.705 48.4434 173.297 47.8492 171.55C47.4294 170.316 47.4309 170.193 47.8697 169.816C48.1967 169.535 48.2955 169.499 49.2585 169.306C49.8287 169.192 51.3688 168.851 52.6809 168.549C54.8092 168.059 55.1676 167.999 56.0027 167.995C56.8158 167.99 57.2238 167.925 59.1059 167.5C62.02 166.841 62.2167 166.856 62.455 167.756C62.5297 168.038 62.606 168.655 62.6246 169.127C62.7079 171.239 62.7233 171.346 63.2755 173.596C63.8854 176.081 64.4333 177.719 64.9396 178.571C65.3735 179.3 66.0734 180.081 66.4156 180.216C66.7708 180.357 67.5162 180.182 67.7717 179.897C68.2918 179.318 68.9578 176.916 68.9471 175.657C68.9327 173.977 68.5661 172.899 67.4946 171.387C67.1241 170.865 66.7915 170.326 66.7557 170.191C66.4856 169.171 67.004 166.309 67.8757 164.008C68.6825 161.878 70.5698 158.774 71.6559 157.791C72.0799 157.407 72.8937 157.135 73.5739 157.15C74.2197 157.165 74.4283 157.252 74.8171 157.669C75.0725 157.942 75.1303 158.096 75.4597 159.374C75.7471 160.489 75.8446 161.063 75.9324 162.156C76.1462 164.817 76.243 165.647 76.4629 166.705C76.7594 168.131 77.2849 169.497 77.7661 170.093C78.3652 170.834 78.6297 170.838 79.8288 170.124C81.6487 169.041 83.3237 167.138 83.7236 165.699C83.9799 164.777 83.9563 164.613 83.0286 160.84C82.3323 158.008 82.156 157.173 82.1286 156.577C82.0449 154.753 82.8013 153.059 84.0376 152.302C84.6041 151.955 86.0478 151.563 88.5795 151.067C91.6975 150.458 93.1422 149.878 93.2931 149.176C93.3846 148.751 93.3753 147.964 93.2606 146.409C93.2008 145.599 93.1455 144.643 93.1376 144.284C93.1188 143.429 92.5668 141.228 92.2555 140.767C91.7568 140.028 90.755 138.807 90.3028 138.387C89.6558 137.786 89.1983 137.665 88.2742 137.854C86.4127 138.233 84.5257 139.499 82.067 142.018C81.007 143.104 80.92 143.218 80.8478 143.605C80.7701 144.022 80.4514 144.242 80.2089 144.046C79.9775 143.858 79.9604 143.702 80.1222 143.255L80.2658 142.858L79.3826 139.742C78.4031 136.286 78.251 135.908 77.4471 134.937C76.4635 133.749 76.0147 133.588 75.0434 134.075C74.0126 134.593 73.5827 135.245 73.1746 136.912C72.7754 138.543 72.3301 141.857 72.4135 142.577C72.4676 143.045 72.269 143.307 71.9857 143.142C71.8427 143.059 71.7116 142.718 71.2883 141.325C71.0015 140.382 70.6492 139.346 70.5053 139.023C69.5527 136.886 68.1303 134.716 67.5993 134.59C66.8709 134.417 66.1854 136.009 64.1195 142.673C63.5987 144.353 63.15 145.906 63.1224 146.125C63.0664 146.57 63.344 147.768 63.6957 148.599L63.9057 149.095L64.4795 148.885C64.7951 148.769 65.2327 148.564 65.452 148.428C65.8811 148.164 66.1165 148.13 66.2483 148.312C66.3978 148.519 66.3061 148.712 65.9631 148.909C65.6646 149.082 64.3072 149.712 64.1351 149.759C64.0991 149.768 64.1048 149.91 64.1479 150.072C64.3091 150.682 63.7743 150.859 63.5617 150.267L63.454 149.967L62.3469 150.104C61.738 150.18 60.6922 150.325 60.023 150.426C59.3538 150.528 58.1447 150.662 57.3362 150.724C52.7606 151.075 51.0907 152.02 45.6765 157.319C42.8419 160.093 41.596 160.976 37.3494 163.223C34.6752 164.638 33.6969 165.117 30.9178 166.372C27.3913 167.966 26.1414 168.442 21.1242 170.101C16.088 171.767 14.933 172.201 13.5104 172.965C11.8749 173.844 10.9611 174.726 10.0759 176.282C9.10389 177.99 8.47822 180.084 8.57826 181.295C8.69737 182.737 9.63311 185.133 10.2075 185.467C10.4193 185.59 10.8582 185.427 12.8827 184.473C13.8209 184.031 14.9312 183.58 15.7184 183.322C16.961 182.914 17.0447 182.872 17.8331 182.28C19.7392 180.847 19.6057 180.925 20.5485 180.674C21.1826 180.505 21.6189 180.444 22.1305 180.453C22.5191 180.46 23.411 180.406 24.1126 180.332C25.43 180.194 26.0978 180.251 26.1906 180.509C26.3201 180.868 26.3731 181.296 26.6514 184.227C26.8656 186.483 27.1322 187.87 27.5957 189.138C28.2643 190.968 28.9985 192.11 30.2178 193.218C30.8179 193.763 31.6001 194.259 31.9239 194.299C32.3368 194.351 32.7044 194.196 32.8784 193.897ZM76.7726 153.819C75.8704 153.956 75.7513 153.769 75.8338 152.345C75.8771 151.596 76.019 151.356 76.3159 151.528C76.4965 151.633 76.5057 151.677 76.4874 152.347C76.4768 152.736 76.4788 153.095 76.4919 153.144C76.5297 153.287 77.7549 152.923 78.1736 152.644C78.4427 152.465 78.6303 152.23 78.8374 151.813C79.1398 151.204 79.3397 151.057 79.5538 151.287C79.6513 151.392 79.6477 151.525 79.5385 151.848C79.1712 152.935 78.2432 153.596 76.7726 153.819ZM73.0833 149.613C72.7532 149.484 72.8308 149.21 73.2948 148.866C73.7576 148.522 74.0431 148.498 74.1217 148.795C74.1723 148.986 74.0774 149.127 73.7522 149.347C73.621 149.435 73.4598 149.548 73.3942 149.598C73.3285 149.647 73.1885 149.654 73.0833 149.613ZM78.0093 147.474C77.9362 147.431 77.8379 147.251 77.791 147.074C77.6201 146.429 78.1523 146.245 78.3764 146.872C78.542 147.336 78.3405 147.666 78.0093 147.474Z" fill="#AF8903"/>
</g>
<defs>
<clipPath id="clip0_1409_12244">
<rect width="92.7886" height="50.0331" fill="white" transform="translate(12 23.7484) rotate(-14.8293)"/>
</clipPath>
<clipPath id="clip1_1409_12244">
<rect width="92.7886" height="50.0331" fill="white" transform="matrix(-0.966692 -0.255941 -0.255941 0.966692 189.504 98.7484)"/>
</clipPath>
<clipPath id="clip2_1409_12244">
<rect width="92.7886" height="50.0331" fill="white" transform="translate(0 151.748) rotate(-14.8293)"/>
</clipPath>
</defs>
</svg>
