<svg width="206" height="202" viewBox="0 0 206 202" fill="none" xmlns="http://www.w3.org/2000/svg">
<g clip-path="url(#clip0_1409_12242)">
<path d="M160.608 66.9577C161.695 66.8234 163.767 64.9461 164.69 63.2603C165.808 61.2164 166.186 59.6209 166.628 55.0796C166.731 54.0133 166.831 53.0842 166.849 53.0149C166.896 52.8376 167.051 52.8354 168.444 52.993C169.122 53.0698 169.973 53.1312 170.334 53.1296C171.807 53.1229 172.414 53.3556 173.817 54.4631C175.022 55.4143 175.338 55.5799 176.912 56.0829C177.972 56.4219 178.64 56.6932 179.515 57.141C180.163 57.4723 181.012 57.852 181.401 57.9848C182.01 58.1925 182.154 58.2123 182.425 58.1265C183.099 57.9136 183.788 56.6681 184.298 54.7423C184.666 53.351 184.678 53.023 184.413 51.6489C184.07 49.8742 183.254 48.0957 182.121 46.6562C180.687 44.8351 178.802 43.8477 173.358 42.0653C169.941 40.9468 166.451 39.7367 165.244 39.2514C162.714 38.2348 158.522 36.2697 155.82 34.8332C151.038 32.2914 150.154 31.6548 146.616 28.2071C144.062 25.719 142.463 24.4197 140.719 23.4164C140.144 23.0855 139.828 22.9735 138.39 22.5916C136.877 22.1898 136.587 22.1403 135.206 22.0463C134.37 21.9895 132.955 21.8369 132.062 21.7072C131.168 21.5776 130.186 21.4372 129.881 21.3953L129.325 21.3191L129.698 19.9594C129.935 19.0987 130.067 18.4599 130.058 18.2189C130.042 17.7914 130.011 17.6844 128.934 14.266C128.509 12.9154 128.133 11.7194 128.1 11.608C127.259 8.80374 126.146 6.35224 125.585 6.0679C124.772 5.65527 124.137 6.06247 123.054 7.692C122.245 8.90934 121.567 10.2568 121.033 11.7051L120.656 12.7305L120.491 11.6085C120.062 8.68666 119.523 6.94429 118.834 6.26027C118.212 5.64211 117.297 5.15185 116.681 5.10664C115.683 5.03332 114.106 6.67488 113.383 8.54022C113.209 8.98796 112.769 10.4798 112.405 11.8553C112.041 13.2309 111.726 14.352 111.706 14.3467C111.686 14.3413 111.276 13.9358 110.796 13.4456C109.03 11.6426 107.301 10.299 106.034 9.74446C105.69 9.59432 104.989 9.37617 104.474 9.25967C103.649 9.07261 103.479 9.06295 103.02 9.17694C102.221 9.37521 101.584 9.92387 100.44 11.3965C99.4755 12.6386 99.3502 12.9 99.0215 14.3564C98.7727 15.4588 98.7097 16.0104 98.5895 18.1397C98.4256 21.0454 98.4778 21.5087 99.0324 22.0684C99.6135 22.6547 100.143 22.8565 102.535 23.4026C103.71 23.671 105.441 24.0916 106.382 24.3372C108.089 24.7828 108.092 24.7845 108.533 25.1674C109.041 25.6087 109.496 26.4865 109.651 27.3223C109.838 28.3372 109.732 29.0403 108.875 32.4813C107.981 36.0714 107.899 36.5652 108.055 37.4192C108.42 39.4197 110.506 41.8114 112.944 43.026C113.91 43.5073 114.481 43.4015 115.162 42.6149C116.044 41.5969 116.856 38.876 117.059 36.2545C117.264 33.596 117.397 32.6032 117.702 31.4445C118.058 30.0896 118.218 29.8472 118.783 29.8064C119.305 29.7687 120.14 30.018 120.457 30.3062C121.094 30.8847 122.348 32.7724 123.179 34.405C124.107 36.229 124.757 38.1701 125.005 39.8588C125.26 41.601 125.194 42.0142 124.51 42.9372C123.501 44.298 123.049 45.4555 122.922 46.9972C122.849 47.894 122.883 48.3401 123.107 49.3816C123.666 51.9771 124.385 52.9592 125.714 52.9424C126.753 52.9293 127.888 51.6866 128.75 49.6191C128.904 49.249 129.333 47.8123 129.703 46.4265C130.414 43.7648 130.49 43.2786 130.544 41.0441C130.554 40.6341 130.6 40.1556 130.646 39.9808C130.722 39.6926 130.758 39.6645 131.03 39.6792C131.195 39.6881 132.306 39.9148 133.498 40.1829C135.399 40.6105 135.775 40.6695 136.558 40.6632C137.396 40.6565 137.629 40.6983 140.381 41.3517C141.992 41.7343 143.36 42.0323 143.421 42.014C143.481 41.9957 143.724 42.0615 143.96 42.16L144.39 42.3396L144.137 43.0825C143.998 43.4912 143.692 44.3654 143.457 45.0254C142.93 46.5068 142.292 49.2057 142.216 50.2765C141.953 53.954 142.778 57.7893 144.153 59.2868C144.923 60.1254 146.642 60.9832 147.529 60.9705C148.79 60.9525 150.052 59.6443 150.836 57.5427C151.591 55.5205 151.947 53.6369 152.029 51.2335C152.052 50.569 152.086 49.5654 152.106 49.0032C152.126 48.4411 152.191 47.7635 152.251 47.4974C152.358 47.025 152.369 47.0121 152.707 46.948C152.898 46.9118 153.555 46.9009 154.167 46.9238C155.126 46.9595 155.579 47.0342 157.445 47.4633C159.868 48.0208 162.268 48.7569 162.671 49.0659C163.202 49.4733 163.718 50.9258 163.727 52.037C163.738 53.3456 163.287 55.5109 162.663 57.1437C162.338 57.9948 161.943 58.7255 161.001 60.2203C160.143 61.5804 159.871 62.1175 159.429 63.3208C159.05 64.3533 158.851 65.2533 158.877 65.8243C158.905 66.4319 159.85 67.0512 160.608 66.9577ZM159.625 65.8967L159.458 65.6098L159.906 64.1188C160.387 62.5137 160.613 62.0329 161.646 60.4248C162.87 58.5183 163.106 58.0062 163.685 56.0077C164.258 54.0276 164.434 52.9431 164.383 51.7153C164.335 50.5931 163.57 48.799 162.994 48.4625C161.986 47.8731 156.799 46.4678 155.117 46.3287C153.292 46.1777 152.376 46.2427 151.965 46.5523C151.56 46.8568 151.455 47.6162 151.385 50.7349C151.328 53.2368 151.095 54.6923 150.44 56.6274C150.184 57.3848 149.85 58.2248 149.698 58.494C149.289 59.2196 148.67 59.8924 148.18 60.145C147.755 60.3639 147.731 60.3646 147.024 60.176C146.222 59.9623 145.512 59.6131 144.932 59.1466C143.257 57.8012 142.333 52.5727 143.117 48.8741C143.365 47.7052 144.06 45.2974 144.654 43.55C145.074 42.3163 145.073 42.1928 144.634 41.8157C144.307 41.5348 144.208 41.4985 143.245 41.306C142.675 41.192 141.135 40.8514 139.823 40.5492C137.694 40.059 137.336 39.9991 136.501 39.9946C135.688 39.9902 135.28 39.9251 133.398 39.4997C130.484 38.841 130.287 38.8561 130.049 39.7561C129.974 40.0383 129.897 40.6551 129.879 41.1268C129.796 43.2395 129.78 43.3458 129.228 45.5958C128.618 48.0813 128.07 49.7194 127.564 50.5706C127.13 51.3002 126.43 52.0805 126.088 52.2162C125.733 52.3571 124.987 52.1817 124.732 51.8972C124.212 51.318 123.546 48.9158 123.556 47.6574C123.571 45.9767 123.937 44.8989 125.009 43.3874C125.379 42.8646 125.712 42.3261 125.748 42.1907C126.018 41.1706 125.5 38.3089 124.628 36.0078C123.821 33.8782 121.934 30.7742 120.848 29.7906C120.424 29.4067 119.61 29.135 118.93 29.1503C118.284 29.1648 118.075 29.2518 117.686 29.6686C117.431 29.9424 117.373 30.0957 117.044 31.374C116.756 32.4889 116.659 33.0628 116.571 34.156C116.357 36.817 116.26 37.6474 116.041 38.7045C115.744 40.1308 115.219 41.497 114.737 42.0925C114.138 42.8342 113.874 42.8383 112.675 42.1245C110.855 41.0412 109.18 39.1381 108.78 37.6994C108.524 36.7774 108.547 36.6128 109.475 32.8399C110.171 30.008 110.348 29.1729 110.375 28.5768C110.459 26.7529 109.702 25.0588 108.466 24.3018C107.899 23.9549 106.456 23.5626 103.924 23.0675C100.806 22.4578 99.3613 21.8782 99.2105 21.1764C99.119 20.7508 99.1282 19.9644 99.243 18.4086C99.3027 17.5991 99.358 16.6432 99.3659 16.2842C99.3848 15.4287 99.9368 13.2276 100.248 12.7666C100.747 12.0281 101.749 10.8074 102.201 10.387C102.848 9.78571 103.305 9.66542 104.229 9.85368C106.091 10.2329 107.978 11.4989 110.437 14.0182C111.497 15.1044 111.584 15.2177 111.656 15.6053C111.733 16.0224 112.052 16.2421 112.295 16.0457C112.526 15.8583 112.543 15.7023 112.381 15.255L112.238 14.858L113.121 11.7415C114.1 8.2857 114.253 7.90799 115.056 6.93701C116.04 5.74887 116.489 5.58802 117.46 6.07549C118.491 6.59279 118.921 7.2454 119.329 8.91216C119.728 10.5428 120.173 13.857 120.09 14.5774C120.036 15.0448 120.235 15.3071 120.518 15.1423C120.661 15.0591 120.792 14.7176 121.215 13.325C121.502 12.3818 121.854 11.3458 121.998 11.0229C122.951 8.88559 124.373 6.71552 124.904 6.58968C125.633 6.41705 126.318 8.00942 128.384 14.6729C128.905 16.3526 129.354 17.9062 129.381 18.1254C129.437 18.5701 129.16 19.7676 128.808 20.5987L128.598 21.095L128.024 20.8845C127.708 20.7688 127.271 20.5635 127.052 20.4284C126.622 20.164 126.387 20.1297 126.255 20.3123C126.106 20.5195 126.197 20.7116 126.54 20.9094C126.839 21.0815 128.196 21.7122 128.368 21.7587C128.404 21.7685 128.399 21.9096 128.356 22.0724C128.194 22.6815 128.729 22.8588 128.942 22.2667L129.05 21.9668L130.157 22.1044C130.766 22.1801 131.811 22.325 132.481 22.4264C133.15 22.5278 134.359 22.6616 135.167 22.7238C139.743 23.0755 141.413 24.02 146.827 29.3188C149.662 32.0929 150.908 32.9764 155.154 35.223C157.828 36.6378 158.807 37.1168 161.586 38.3725C165.112 39.9658 166.362 40.4417 171.379 42.1012C176.416 43.767 177.571 44.2015 178.993 44.9654C180.629 45.8436 181.542 46.726 182.428 48.2816C183.4 49.9899 184.025 52.0844 183.925 53.2953C183.806 54.7368 182.87 57.1326 182.296 57.4667C182.084 57.5898 181.645 57.4268 179.621 56.4727C178.683 56.0306 177.572 55.5799 176.785 55.3215C175.543 54.9137 175.459 54.8725 174.67 54.2796C172.764 52.8465 172.898 52.9254 171.955 52.6738C171.321 52.5046 170.885 52.4435 170.373 52.4528C169.984 52.4598 169.092 52.4055 168.391 52.3321C167.074 52.1943 166.406 52.2511 166.313 52.5088C166.183 52.8683 166.13 53.296 165.852 56.2268C165.638 58.4833 165.371 59.8699 164.908 61.1384C164.239 62.968 163.505 64.1101 162.286 65.2177C161.686 65.7628 160.903 66.2586 160.58 66.2993C160.167 66.3511 159.799 66.1961 159.625 65.8967ZM115.731 25.8191C116.633 25.9558 116.752 25.7686 116.67 24.3445C116.626 23.596 116.485 23.3558 116.188 23.5284C116.007 23.6334 115.998 23.6774 116.016 24.3469C116.027 24.736 116.025 25.0946 116.012 25.1438C115.974 25.2868 114.749 24.9226 114.33 24.6439C114.061 24.4648 113.873 24.23 113.666 23.8129C113.364 23.2041 113.164 23.0573 112.95 23.287C112.852 23.3917 112.856 23.5246 112.965 23.8477C113.332 24.9349 114.26 25.5963 115.731 25.8191ZM119.42 21.6131C119.75 21.484 119.673 21.21 119.209 20.8657C118.746 20.5224 118.46 20.4979 118.382 20.7949C118.331 20.9856 118.426 21.1272 118.751 21.3466C118.883 21.4351 119.044 21.5481 119.109 21.5977C119.175 21.6473 119.315 21.654 119.42 21.6131ZM114.494 19.4737C114.567 19.4312 114.666 19.2513 114.713 19.0741C114.883 18.4286 114.351 18.2449 114.127 18.8721C113.961 19.3359 114.163 19.6663 114.494 19.4737Z" fill="#AF8903"/>
</g>
<g clip-path="url(#clip1_1409_12242)">
<path d="M31.8958 135.958C30.8087 135.823 28.736 133.946 27.8136 132.26C26.6952 130.216 26.3173 128.621 25.876 124.08C25.7724 123.013 25.6726 122.084 25.6542 122.015C25.6073 121.838 25.4525 121.835 24.0597 121.993C23.3812 122.07 22.5304 122.131 22.1691 122.13C20.697 122.123 20.0892 122.356 18.6867 123.463C17.482 124.414 17.1657 124.58 15.5919 125.083C14.5314 125.422 13.8638 125.693 12.9882 126.141C12.3405 126.472 11.4919 126.852 11.1023 126.985C10.4932 127.192 10.3497 127.212 10.0782 127.126C9.40486 126.914 8.71577 125.668 8.20591 123.742C7.83755 122.351 7.82532 122.023 8.09054 120.649C8.4331 118.874 9.24961 117.096 10.3827 115.656C11.8163 113.835 13.7012 112.848 19.146 111.065C22.5629 109.947 26.0523 108.737 27.26 108.251C29.7899 107.235 33.9813 105.27 36.6837 103.833C41.4653 101.291 42.3497 100.655 45.8878 97.2071C48.4412 94.719 50.0403 93.4197 51.7841 92.4164C52.3592 92.0855 52.6756 91.9735 54.1138 91.5916C55.6266 91.1898 55.9161 91.1403 57.2974 91.0463C58.1331 90.9895 59.5481 90.8369 60.4419 90.7072C61.3357 90.5776 62.3171 90.4372 62.6228 90.3953L63.1787 90.3191L62.8051 88.9594C62.5686 88.0987 62.4367 87.4599 62.4457 87.2189C62.4616 86.7914 62.492 86.6844 63.5691 83.266C63.9946 81.9154 64.37 80.7194 64.4035 80.608C65.2448 77.8037 66.3575 75.3522 66.918 75.0679C67.7315 74.6553 68.3661 75.0625 69.4492 76.692C70.2583 77.9093 70.9369 79.2568 71.4703 80.7051L71.848 81.7305L72.0126 80.6085C72.4412 77.6867 72.981 75.9443 73.6696 75.2603C74.2918 74.6421 75.2066 74.1519 75.8222 74.1066C76.8205 74.0333 78.3975 75.6749 79.1206 77.5402C79.2941 77.988 79.7342 79.4798 80.0984 80.8553C80.4626 82.2309 80.7771 83.352 80.7974 83.3467C80.8177 83.3413 81.2271 82.9358 81.7073 82.4456C83.4732 80.6426 85.2023 79.299 86.4699 78.7445C86.8132 78.5943 87.5148 78.3762 88.029 78.2597C88.8547 78.0726 89.0249 78.0629 89.4838 78.1769C90.282 78.3752 90.9197 78.9239 92.0634 80.3965C93.028 81.6386 93.1533 81.9 93.482 83.3564C93.7308 84.4588 93.7938 85.0104 93.914 87.1397C94.0779 90.0454 94.0257 90.5087 93.4711 91.0684C92.8901 91.6547 92.3606 91.8565 89.9687 92.4026C88.7932 92.671 87.0621 93.0916 86.1217 93.3372C84.415 93.7828 84.4111 93.7845 83.9705 94.1674C83.4626 94.6087 83.0074 95.4865 82.853 96.3223C82.6655 97.3372 82.7712 98.0403 83.6283 101.481C84.5226 105.071 84.6046 105.565 84.4487 106.419C84.0834 108.42 81.998 110.811 79.56 112.026C78.5939 112.507 78.0228 112.401 77.3412 111.615C76.4591 110.597 75.6478 107.876 75.4449 105.254C75.2391 102.596 75.1063 101.603 74.8017 100.444C74.4455 99.0896 74.2855 98.8472 73.7203 98.8064C73.1986 98.7687 72.3637 99.018 72.0463 99.3062C71.4094 99.8847 70.156 101.772 69.3248 103.405C68.3963 105.229 67.7463 107.17 67.4987 108.859C67.2432 110.601 67.3096 111.014 67.9936 111.937C69.002 113.298 69.4547 114.455 69.5813 115.997C69.655 116.894 69.6203 117.34 69.3962 118.382C68.8375 120.977 68.1187 121.959 66.7899 121.942C65.7507 121.929 64.6155 120.687 63.7539 118.619C63.5997 118.249 63.1705 116.812 62.8003 115.426C62.0891 112.765 62.0132 112.279 61.9591 110.044C61.9492 109.634 61.9035 109.156 61.8576 108.981C61.7818 108.693 61.746 108.664 61.4737 108.679C61.3085 108.688 60.1978 108.915 59.0056 109.183C57.104 109.61 56.7282 109.669 55.9453 109.663C55.1071 109.657 54.8749 109.698 52.1228 110.352C50.5112 110.734 49.1433 111.032 49.083 111.014C49.0226 110.996 48.7797 111.061 48.5431 111.16L48.1131 111.34L48.3662 112.083C48.5053 112.491 48.8113 113.365 49.0461 114.025C49.5732 115.507 50.2113 118.206 50.2877 119.276C50.5501 122.954 49.7256 126.789 48.3508 128.287C47.5809 129.125 45.861 129.983 44.9748 129.971C43.7138 129.953 42.4514 128.644 41.6671 126.543C40.9124 124.521 40.5564 122.637 40.4745 120.234C40.4518 119.569 40.4171 118.565 40.3973 118.003C40.3776 117.441 40.3122 116.764 40.2521 116.497C40.1455 116.025 40.1348 116.012 39.796 115.948C39.6052 115.912 38.9485 115.901 38.3366 115.924C37.378 115.96 36.9243 116.034 35.059 116.463C32.6358 117.021 30.2352 117.757 29.8327 118.066C29.3019 118.473 28.7856 119.926 28.7765 121.037C28.7657 122.346 29.2168 124.511 29.8403 126.144C30.1652 126.995 30.5601 127.726 31.5027 129.22C32.3604 130.58 32.6327 131.117 33.0746 132.321C33.4538 133.353 33.6522 134.253 33.6264 134.824C33.599 135.432 32.6534 136.051 31.8958 135.958ZM32.8784 134.897L33.0451 134.61L32.598 133.119C32.1168 131.514 31.8903 131.033 30.8577 129.425C29.6336 127.518 29.3972 127.006 28.8188 125.008C28.2457 123.028 28.0694 121.943 28.1209 120.715C28.1681 119.593 28.9338 117.799 29.5092 117.463C30.5171 116.873 35.7045 115.468 37.3861 115.329C39.2113 115.178 40.1279 115.243 40.5389 115.552C40.9432 115.857 41.0484 116.616 41.1188 119.735C41.1753 122.237 41.4085 123.692 42.0631 125.627C42.3193 126.385 42.6533 127.225 42.8053 127.494C43.215 128.22 43.8339 128.892 44.3238 129.145C44.7484 129.364 44.7723 129.365 45.4795 129.176C46.282 128.962 46.9911 128.613 47.5717 128.147C49.2464 126.801 50.1702 121.573 49.3866 117.874C49.139 116.705 48.4434 114.297 47.8491 112.55C47.4294 111.316 47.4309 111.193 47.8697 110.816C48.1967 110.535 48.2955 110.499 49.2585 110.306C49.8287 110.192 51.3688 109.851 52.6809 109.549C54.8092 109.059 55.1676 108.999 56.0027 108.995C56.8157 108.99 57.2238 108.925 59.1059 108.5C62.0199 107.841 62.2167 107.856 62.455 108.756C62.5297 109.038 62.606 109.655 62.6246 110.127C62.7079 112.239 62.7233 112.346 63.2755 114.596C63.8854 117.081 64.4333 118.719 64.9396 119.571C65.3735 120.3 66.0734 121.081 66.4156 121.216C66.7708 121.357 67.5162 121.182 67.7717 120.897C68.2918 120.318 68.9577 117.916 68.947 116.657C68.9327 114.977 68.5661 113.899 67.4946 112.387C67.1241 111.865 66.7915 111.326 66.7557 111.191C66.4856 110.171 67.004 107.309 67.8757 105.008C68.6825 102.878 70.5698 99.7742 71.6559 98.7906C72.0798 98.4067 72.8937 98.135 73.5738 98.1503C74.2197 98.1648 74.4283 98.2518 74.8171 98.6686C75.0725 98.9424 75.1302 99.0957 75.4597 100.374C75.7471 101.489 75.8446 102.063 75.9324 103.156C76.1462 105.817 76.243 106.647 76.4628 107.705C76.7594 109.131 77.2849 110.497 77.766 111.093C78.3652 111.834 78.6296 111.838 79.8288 111.124C81.6486 110.041 83.3237 108.138 83.7236 106.699C83.9798 105.777 83.9563 105.613 83.0286 101.84C82.3323 99.008 82.156 98.1729 82.1286 97.5768C82.0449 95.7529 82.8013 94.0588 84.0376 93.3018C84.6041 92.9549 86.0478 92.5626 88.5795 92.0675C91.6975 91.4578 93.1422 90.8782 93.2931 90.1764C93.3845 89.7508 93.3753 88.9644 93.2605 87.4086C93.2008 86.5991 93.1455 85.6432 93.1376 85.2842C93.1188 84.4287 92.5668 82.2276 92.2555 81.7666C91.7568 81.0281 90.755 79.8074 90.3027 79.387C89.6558 78.7857 89.1983 78.6654 88.2742 78.8537C86.4126 79.2329 84.5257 80.4989 82.067 83.0182C81.0069 84.1044 80.9199 84.2177 80.8478 84.6053C80.7701 85.0224 80.4514 85.2421 80.2089 85.0457C79.9775 84.8583 79.9604 84.7023 80.1222 84.255L80.2658 83.858L79.3825 80.7415C78.4031 77.2857 78.251 76.908 77.4471 75.937C76.4635 74.7489 76.0147 74.588 75.0434 75.0755C74.0126 75.5928 73.5827 76.2454 73.1746 77.9122C72.7754 79.5428 72.3301 82.857 72.4135 83.5774C72.4676 84.0448 72.269 84.3071 71.9856 84.1423C71.8427 84.0591 71.7116 83.7176 71.2883 82.325C71.0015 81.3818 70.6492 80.3458 70.5053 80.0229C69.5527 77.8856 68.1302 75.7155 67.5993 75.5897C66.8709 75.417 66.1854 77.0094 64.1195 83.6729C63.5987 85.3526 63.15 86.9062 63.1224 87.1254C63.0664 87.5701 63.344 88.7676 63.6957 89.5987L63.9057 90.095L64.4795 89.8845C64.7951 89.7688 65.2327 89.5635 65.4519 89.4284C65.8811 89.164 66.1165 89.1297 66.2483 89.3123C66.3978 89.5195 66.3061 89.7116 65.963 89.9094C65.6646 90.0815 64.3072 90.7122 64.1351 90.7587C64.099 90.7685 64.1048 90.9096 64.1479 91.0724C64.3091 91.6815 63.7742 91.8588 63.5617 91.2667L63.454 90.9668L62.3469 91.1044C61.7379 91.1801 60.6922 91.325 60.023 91.4264C59.3537 91.5278 58.1447 91.6616 57.3362 91.7238C52.7606 92.0755 51.0906 93.02 45.6765 98.3188C42.8419 101.093 41.5959 101.976 37.3494 104.223C34.6752 105.638 33.6969 106.117 30.9178 107.372C27.3913 108.966 26.1414 109.442 21.1242 111.101C16.088 112.767 14.933 113.201 13.5104 113.965C11.8749 114.844 10.9611 115.726 10.0759 117.282C9.10388 118.99 8.4782 121.084 8.57825 122.295C8.69735 123.737 9.6331 126.133 10.2075 126.467C10.4193 126.59 10.8582 126.427 12.8827 125.473C13.8209 125.031 14.9312 124.58 15.7184 124.322C16.961 123.914 17.0447 123.872 17.8331 123.28C19.7391 121.847 19.6057 121.925 20.5485 121.674C21.1826 121.505 21.6189 121.444 22.1305 121.453C22.5191 121.46 23.411 121.406 24.1126 121.332C25.4299 121.194 26.0978 121.251 26.1906 121.509C26.3201 121.868 26.3731 122.296 26.6514 125.227C26.8656 127.483 27.1322 128.87 27.5957 130.138C28.2643 131.968 28.9985 133.11 30.2178 134.218C30.8179 134.763 31.6001 135.259 31.9239 135.299C32.3368 135.351 32.7044 135.196 32.8784 134.897ZM76.7726 94.8191C75.8704 94.9558 75.7513 94.7686 75.8337 93.3445C75.8771 92.596 76.019 92.3558 76.3159 92.5284C76.4964 92.6334 76.5057 92.6774 76.4874 93.3469C76.4768 93.736 76.4788 94.0946 76.4918 94.1438C76.5297 94.2868 77.7549 93.9226 78.1736 93.6439C78.4427 93.4648 78.6303 93.23 78.8374 92.8129C79.1397 92.2041 79.3397 92.0573 79.5538 92.287C79.6513 92.3917 79.6476 92.5246 79.5385 92.8477C79.1712 93.9349 78.2432 94.5963 76.7726 94.8191ZM73.0833 90.6131C72.7532 90.484 72.8307 90.21 73.2948 89.8657C73.7576 89.5224 74.0431 89.4979 74.1217 89.7949C74.1722 89.9856 74.0774 90.1272 73.7522 90.3466C73.6209 90.4351 73.4598 90.5481 73.3941 90.5977C73.3284 90.6473 73.1885 90.654 73.0833 90.6131ZM78.0093 88.4737C77.9362 88.4312 77.8379 88.2513 77.791 88.0741C77.6201 87.4286 78.1523 87.2449 78.3763 87.8721C78.542 88.3359 78.3405 88.6663 78.0093 88.4737Z" fill="#AF8903"/>
</g>
<g clip-path="url(#clip2_1409_12242)">
<path d="M173.608 195.958C174.695 195.823 176.767 193.946 177.69 192.26C178.808 190.216 179.186 188.621 179.628 184.08C179.731 183.013 179.831 182.084 179.849 182.015C179.896 181.838 180.051 181.835 181.444 181.993C182.122 182.07 182.973 182.131 183.334 182.13C184.807 182.123 185.414 182.356 186.817 183.463C188.022 184.414 188.338 184.58 189.912 185.083C190.972 185.422 191.64 185.693 192.515 186.141C193.163 186.472 194.012 186.852 194.401 186.985C195.01 187.192 195.154 187.212 195.425 187.126C196.099 186.914 196.788 185.668 197.298 183.742C197.666 182.351 197.678 182.023 197.413 180.649C197.07 178.874 196.254 177.096 195.121 175.656C193.687 173.835 191.802 172.848 186.358 171.065C182.941 169.947 179.451 168.737 178.244 168.251C175.714 167.235 171.522 165.27 168.82 163.833C164.038 161.291 163.154 160.655 159.616 157.207C157.062 154.719 155.463 153.42 153.719 152.416C153.144 152.085 152.828 151.973 151.39 151.592C149.877 151.19 149.587 151.14 148.206 151.046C147.37 150.989 145.955 150.837 145.062 150.707C144.168 150.578 143.186 150.437 142.881 150.395L142.325 150.319L142.698 148.959C142.935 148.099 143.067 147.46 143.058 147.219C143.042 146.791 143.011 146.684 141.934 143.266C141.509 141.915 141.133 140.719 141.1 140.608C140.259 137.804 139.146 135.352 138.585 135.068C137.772 134.655 137.137 135.062 136.054 136.692C135.245 137.909 134.567 139.257 134.033 140.705L133.656 141.731L133.491 140.608C133.062 137.687 132.523 135.944 131.834 135.26C131.212 134.642 130.297 134.152 129.681 134.107C128.683 134.033 127.106 135.675 126.383 137.54C126.209 137.988 125.769 139.48 125.405 140.855C125.041 142.231 124.726 143.352 124.706 143.347C124.686 143.341 124.276 142.936 123.796 142.446C122.03 140.643 120.301 139.299 119.034 138.744C118.69 138.594 117.989 138.376 117.474 138.26C116.649 138.073 116.479 138.063 116.02 138.177C115.221 138.375 114.584 138.924 113.44 140.397C112.476 141.639 112.35 141.9 112.021 143.356C111.773 144.459 111.71 145.01 111.59 147.14C111.426 150.045 111.478 150.509 112.032 151.068C112.613 151.655 113.143 151.856 115.535 152.403C116.71 152.671 118.441 153.092 119.382 153.337C121.089 153.783 121.092 153.784 121.533 154.167C122.041 154.609 122.496 155.487 122.651 156.322C122.838 157.337 122.732 158.04 121.875 161.481C120.981 165.071 120.899 165.565 121.055 166.419C121.42 168.42 123.506 170.811 125.944 172.026C126.91 172.507 127.481 172.401 128.162 171.615C129.044 170.597 129.856 167.876 130.059 165.254C130.264 162.596 130.397 161.603 130.702 160.444C131.058 159.09 131.218 158.847 131.783 158.806C132.305 158.769 133.14 159.018 133.457 159.306C134.094 159.885 135.348 161.772 136.179 163.405C137.107 165.229 137.757 167.17 138.005 168.859C138.26 170.601 138.194 171.014 137.51 171.937C136.501 173.298 136.049 174.455 135.922 175.997C135.849 176.894 135.883 177.34 136.107 178.382C136.666 180.977 137.385 181.959 138.714 181.942C139.753 181.929 140.888 180.687 141.75 178.619C141.904 178.249 142.333 176.812 142.703 175.426C143.414 172.765 143.49 172.279 143.544 170.044C143.554 169.634 143.6 169.156 143.646 168.981C143.722 168.693 143.758 168.664 144.03 168.679C144.195 168.688 145.306 168.915 146.498 169.183C148.399 169.61 148.775 169.669 149.558 169.663C150.396 169.657 150.629 169.698 153.381 170.352C154.992 170.734 156.36 171.032 156.421 171.014C156.481 170.996 156.724 171.061 156.96 171.16L157.39 171.34L157.137 172.083C156.998 172.491 156.692 173.365 156.457 174.025C155.93 175.507 155.292 178.206 155.216 179.276C154.953 182.954 155.778 186.789 157.153 188.287C157.923 189.125 159.642 189.983 160.529 189.971C161.79 189.953 163.052 188.644 163.836 186.543C164.591 184.521 164.947 182.637 165.029 180.234C165.052 179.569 165.086 178.565 165.106 178.003C165.126 177.441 165.191 176.764 165.251 176.497C165.358 176.025 165.369 176.012 165.707 175.948C165.898 175.912 166.555 175.901 167.167 175.924C168.126 175.96 168.579 176.034 170.445 176.463C172.868 177.021 175.268 177.757 175.671 178.066C176.202 178.473 176.718 179.926 176.727 181.037C176.738 182.346 176.287 184.511 175.663 186.144C175.338 186.995 174.943 187.726 174.001 189.22C173.143 190.58 172.871 191.117 172.429 192.321C172.05 193.353 171.851 194.253 171.877 194.824C171.905 195.432 172.85 196.051 173.608 195.958ZM172.625 194.897L172.458 194.61L172.906 193.119C173.387 191.514 173.613 191.033 174.646 189.425C175.87 187.518 176.106 187.006 176.685 185.008C177.258 183.028 177.434 181.943 177.383 180.715C177.335 179.593 176.57 177.799 175.994 177.463C174.986 176.873 169.799 175.468 168.117 175.329C166.292 175.178 165.376 175.243 164.965 175.552C164.56 175.857 164.455 176.616 164.385 179.735C164.328 182.237 164.095 183.692 163.44 185.627C163.184 186.385 162.85 187.225 162.698 187.494C162.289 188.22 161.67 188.892 161.18 189.145C160.755 189.364 160.731 189.365 160.024 189.176C159.222 188.962 158.512 188.613 157.932 188.147C156.257 186.801 155.333 181.573 156.117 177.874C156.365 176.705 157.06 174.297 157.654 172.55C158.074 171.316 158.073 171.193 157.634 170.816C157.307 170.535 157.208 170.499 156.245 170.306C155.675 170.192 154.135 169.851 152.823 169.549C150.694 169.059 150.336 168.999 149.501 168.995C148.688 168.99 148.28 168.925 146.398 168.5C143.484 167.841 143.287 167.856 143.049 168.756C142.974 169.038 142.897 169.655 142.879 170.127C142.796 172.239 142.78 172.346 142.228 174.596C141.618 177.081 141.07 178.719 140.564 179.571C140.13 180.3 139.43 181.081 139.088 181.216C138.733 181.357 137.987 181.182 137.732 180.897C137.212 180.318 136.546 177.916 136.556 176.657C136.571 174.977 136.937 173.899 138.009 172.387C138.379 171.865 138.712 171.326 138.748 171.191C139.018 170.171 138.5 167.309 137.628 165.008C136.821 162.878 134.934 159.774 133.848 158.791C133.424 158.407 132.61 158.135 131.93 158.15C131.284 158.165 131.075 158.252 130.686 158.669C130.431 158.942 130.373 159.096 130.044 160.374C129.756 161.489 129.659 162.063 129.571 163.156C129.357 165.817 129.26 166.647 129.041 167.705C128.744 169.131 128.219 170.497 127.737 171.093C127.138 171.834 126.874 171.838 125.675 171.124C123.855 170.041 122.18 168.138 121.78 166.699C121.524 165.777 121.547 165.613 122.475 161.84C123.171 159.008 123.348 158.173 123.375 157.577C123.459 155.753 122.702 154.059 121.466 153.302C120.899 152.955 119.456 152.563 116.924 152.067C113.806 151.458 112.361 150.878 112.21 150.176C112.119 149.751 112.128 148.964 112.243 147.409C112.303 146.599 112.358 145.643 112.366 145.284C112.385 144.429 112.937 142.228 113.248 141.767C113.747 141.028 114.749 139.807 115.201 139.387C115.848 138.786 116.305 138.665 117.229 138.854C119.091 139.233 120.978 140.499 123.437 143.018C124.497 144.104 124.584 144.218 124.656 144.605C124.733 145.022 125.052 145.242 125.295 145.046C125.526 144.858 125.543 144.702 125.381 144.255L125.238 143.858L126.121 140.742C127.1 137.286 127.253 136.908 128.056 135.937C129.04 134.749 129.489 134.588 130.46 135.075C131.491 135.593 131.921 136.245 132.329 137.912C132.728 139.543 133.173 142.857 133.09 143.577C133.036 144.045 133.235 144.307 133.518 144.142C133.661 144.059 133.792 143.718 134.215 142.325C134.502 141.382 134.854 140.346 134.998 140.023C135.951 137.886 137.373 135.716 137.904 135.59C138.633 135.417 139.318 137.009 141.384 143.673C141.905 145.353 142.354 146.906 142.381 147.125C142.437 147.57 142.16 148.768 141.808 149.599L141.598 150.095L141.024 149.885C140.708 149.769 140.271 149.564 140.052 149.428C139.622 149.164 139.387 149.13 139.255 149.312C139.106 149.519 139.197 149.712 139.54 149.909C139.839 150.082 141.196 150.712 141.368 150.759C141.404 150.768 141.399 150.91 141.356 151.072C141.194 151.682 141.729 151.859 141.942 151.267L142.05 150.967L143.157 151.104C143.766 151.18 144.811 151.325 145.481 151.426C146.15 151.528 147.359 151.662 148.167 151.724C152.743 152.075 154.413 153.02 159.827 158.319C162.662 161.093 163.908 161.976 168.154 164.223C170.828 165.638 171.807 166.117 174.586 167.372C178.112 168.966 179.362 169.442 184.379 171.101C189.416 172.767 190.571 173.201 191.993 173.965C193.629 174.844 194.542 175.726 195.428 177.282C196.4 178.99 197.025 181.084 196.925 182.295C196.806 183.737 195.87 186.133 195.296 186.467C195.084 186.59 194.645 186.427 192.621 185.473C191.683 185.031 190.572 184.58 189.785 184.322C188.543 183.914 188.459 183.872 187.67 183.28C185.764 181.847 185.898 181.925 184.955 181.674C184.321 181.505 183.885 181.444 183.373 181.453C182.984 181.46 182.092 181.406 181.391 181.332C180.074 181.194 179.406 181.251 179.313 181.509C179.183 181.868 179.13 182.296 178.852 185.227C178.638 187.483 178.371 188.87 177.908 190.138C177.239 191.968 176.505 193.11 175.286 194.218C174.686 194.763 173.903 195.259 173.58 195.299C173.167 195.351 172.799 195.196 172.625 194.897ZM128.731 154.819C129.633 154.956 129.752 154.769 129.67 153.345C129.626 152.596 129.485 152.356 129.188 152.528C129.007 152.633 128.998 152.677 129.016 153.347C129.027 153.736 129.025 154.095 129.012 154.144C128.974 154.287 127.749 153.923 127.33 153.644C127.061 153.465 126.873 153.23 126.666 152.813C126.364 152.204 126.164 152.057 125.95 152.287C125.852 152.392 125.856 152.525 125.965 152.848C126.332 153.935 127.26 154.596 128.731 154.819ZM132.42 150.613C132.75 150.484 132.673 150.21 132.209 149.866C131.746 149.522 131.46 149.498 131.382 149.795C131.331 149.986 131.426 150.127 131.751 150.347C131.883 150.435 132.044 150.548 132.109 150.598C132.175 150.647 132.315 150.654 132.42 150.613ZM127.494 148.474C127.567 148.431 127.666 148.251 127.713 148.074C127.883 147.429 127.351 147.245 127.127 147.872C126.961 148.336 127.163 148.666 127.494 148.474Z" fill="#AF8903"/>
</g>
<defs>
<clipPath id="clip0_1409_12242">
<rect width="92.7886" height="50.0331" fill="white" transform="matrix(-0.966692 -0.255941 -0.255941 0.966692 192.504 23.7484)"/>
</clipPath>
<clipPath id="clip1_1409_12242">
<rect width="92.7886" height="50.0331" fill="white" transform="translate(0 92.7484) rotate(-14.8293)"/>
</clipPath>
<clipPath id="clip2_1409_12242">
<rect width="92.7886" height="50.0331" fill="white" transform="matrix(-0.966692 -0.255941 -0.255941 0.966692 205.504 152.748)"/>
</clipPath>
</defs>
</svg>
