<?xml version="1.0" encoding="UTF-8" standalone="no"?>
<!-- Created with Inkscape (http://www.inkscape.org/) -->

<svg
   width="153.72852mm"
   height="82.864601mm"
   viewBox="0 0 153.72852 82.864601"
   version="1.1"
   id="svg1"
   xml:space="preserve"
   inkscape:version="1.3.2 (091e20e, 2023-11-25, custom)"
   sodipodi:docname="hippo_dog.svg"
   xmlns:inkscape="http://www.inkscape.org/namespaces/inkscape"
   xmlns:sodipodi="http://sodipodi.sourceforge.net/DTD/sodipodi-0.dtd"
   xmlns="http://www.w3.org/2000/svg"
   xmlns:svg="http://www.w3.org/2000/svg"><sodipodi:namedview
     id="namedview1"
     pagecolor="#ffffff"
     bordercolor="#000000"
     borderopacity="0.03529412"
     inkscape:showpageshadow="2"
     inkscape:pageopacity="0.0"
     inkscape:pagecheckerboard="false"
     inkscape:deskcolor="#4c4c4c"
     inkscape:document-units="mm"
     inkscape:zoom="1.4485269"
     inkscape:cx="310.66043"
     inkscape:cy="153.60432"
     inkscape:window-width="1920"
     inkscape:window-height="1009"
     inkscape:window-x="-8"
     inkscape:window-y="204"
     inkscape:window-maximized="1"
     inkscape:current-layer="layer1" /><defs
     id="defs1" /><g
     inkscape:label="Layer 1"
     inkscape:groupmode="layer"
     id="layer1"
     transform="translate(-38.228856,-33.645531)"><path
       style="fill:#000000"
       d="m 70.990394,116.3452 c -1.684115,-0.67581 -4.207663,-4.56 -4.970168,-7.64996 -0.924496,-3.74642 -0.853189,-6.4611 0.365611,-13.918926 0.286165,-1.75104 0.5203,-3.2809 0.5203,-3.39969 0,-0.30381 -0.246978,-0.37282 -2.544373,-0.71092 -1.119241,-0.16472 -2.507933,-0.42696 -3.085983,-0.58277 -2.354798,-0.6347 -3.426966,-0.5197 -6.142809,0.65884 -2.332728,1.01229 -2.909514,1.14327 -5.643403,1.28153 -1.842085,0.0932 -3.026458,0.24457 -4.618673,0.59044 -1.177724,0.25584 -2.69792,0.50402 -3.378214,0.55152 -1.063516,0.0743 -1.301849,0.0452 -1.700256,-0.20731 -0.988104,-0.62622 -1.56357,-2.91246 -1.56357,-6.21182 0,-2.38361 0.119514,-2.91403 1.126933,-5.00153 1.301182,-2.69622 3.363007,-5.19745 5.788195,-7.02176 3.068243,-2.30803 6.505688,-3.09 15.981654,-3.63557 5.946725,-0.34238 12.048455,-0.8007 14.188498,-1.06574 4.482952,-0.55521 12.029075,-1.92471 16.96614,-3.07907 8.735984,-2.04262 10.422344,-2.68706 17.550834,-6.70709 5.14459,-2.90123 8.25659,-4.30356 11.47477,-5.17077 1.06136,-0.28601 1.61563,-0.33123 4.08089,-0.33294 2.59328,-0.002 3.07801,0.0415 5.33007,0.47651 1.36254,0.26317 3.69351,0.61866 5.17992,0.78997 1.48642,0.17132 3.11776,0.36261 3.62521,0.42509 l 0.92263,0.11361 -0.0218,-2.33533 c -0.0138,-1.47819 0.0458,-2.55687 0.1624,-2.93891 0.20676,-0.67764 0.30082,-0.83603 3.47533,-5.85257 1.25415,-1.98189 2.36268,-3.73769 2.46339,-3.90179 2.53658,-4.13311 5.35817,-7.58638 6.3765,-7.804 1.47781,-0.31582 2.32154,0.60513 3.36516,3.67315 0.77964,2.29197 1.29516,4.73704 1.53532,7.28193 l 0.17003,1.80171 0.73938,-1.72664 c 1.92537,-4.49625 3.52876,-7.05702 4.92161,-7.86027 1.25874,-0.72592 2.93177,-1.12307 3.93678,-0.93453 1.63001,0.30579 3.45953,3.60243 3.82672,6.89543 0.0881,0.79041 0.16025,3.36535 0.16025,5.72209 0,2.35675 0.0284,4.28499 0.0632,4.28499 0.0348,0 0.86243,-0.4756 1.83925,-1.05689 3.59289,-2.13808 6.93179,-3.55639 9.19722,-3.90685 0.61335,-0.0949 1.82951,-0.14676 2.70257,-0.11529 1.40169,0.0505 1.67838,0.10718 2.36507,0.48423 1.19429,0.65577 1.98288,1.80449 3.19017,4.64709 1.01824,2.39746 1.10806,2.86911 1.01697,5.34016 -0.069,1.87053 -0.20196,2.78025 -0.91242,6.24024 -0.96954,4.7217 -1.24964,5.44132 -2.37518,6.10226 -1.17927,0.6925 -2.11281,0.79099 -6.17524,0.65149 -1.99633,-0.0685 -4.94719,-0.12901 -6.55747,-0.13436 -2.92238,-0.01 -2.92939,-0.009 -3.79738,0.41728 -1.00057,0.49132 -2.10182,1.70375 -2.7035,2.97645 -0.73062,1.54543 -0.85952,2.71585 -0.94585,8.58827 -0.0901,6.12704 -0.16807,6.95231 -0.77994,8.25349 -1.43333,3.04807 -5.78737,5.99328 -10.20711,6.90441 -1.75137,0.36104 -2.6211,-0.0504 -3.37918,-1.59862 -0.9812,-2.00386 -1.12669,-6.70386 -0.34012,-10.98715 0.79763,-4.3435 1.00599,-5.98923 1.00949,-7.97353 0.004,-2.32016 -0.14941,-2.7761 -1.0374,-3.08109 -0.81944,-0.28145 -2.26245,-0.23622 -2.89286,0.0907 -1.26543,0.65614 -4.07329,3.14712 -6.09674,5.40868 -2.26059,2.52659 -4.12471,5.35894 -5.23731,7.95757 -1.14793,2.68113 -1.21673,3.37076 -0.51264,5.13848 1.03803,2.6061 1.27216,4.65118 0.82123,7.173226 -0.26228,1.46699 -0.50691,2.16649 -1.30757,3.73897 -1.99526,3.91865 -3.56306,5.18638 -5.68411,4.59621 -1.6587,-0.46153 -2.94994,-2.93232 -3.45316,-6.60759 -0.0901,-0.65793 -0.16818,-3.140016 -0.17354,-5.515766 -0.0103,-4.56282 0.0742,-5.37355 0.93509,-8.97396 0.15797,-0.66063 0.28769,-1.44606 0.28827,-1.74541 9.5e-4,-0.49348 -0.0445,-0.55373 -0.48691,-0.64559 -0.26838,-0.0557 -2.14329,-0.16363 -4.16647,-0.23978 -3.22676,-0.12145 -3.85366,-0.18631 -5.10485,-0.52818 -1.33972,-0.36605 -1.72931,-0.39752 -6.41411,-0.51806 -2.74327,-0.0706 -5.06046,-0.17328 -5.14931,-0.22819 -0.0889,-0.0549 -0.50577,-0.0525 -0.92648,0.005 l -0.76491,0.1052 0.0903,1.29676 c 0.0496,0.71322 0.16898,2.24266 0.26517,3.39876 0.21595,2.59518 0.0935,7.1867 -0.23814,8.93349 -1.13912,5.998996 -4.08587,11.790036 -6.92275,13.604766 -1.588694,1.01627 -4.706888,1.66053 -6.120859,1.26464 -2.012067,-0.56334 -3.47914,-3.19293 -3.844107,-6.89021 -0.351156,-3.55735 -0.122677,-6.724096 0.765269,-10.606696 0.245513,-1.07352 0.615488,-2.69506 0.822166,-3.60342 0.206679,-0.90837 0.389363,-2.02094 0.405965,-2.47239 0.02948,-0.80165 0.01787,-0.8267 -0.497508,-1.07307 -0.290231,-0.13875 -1.337477,-0.43457 -2.327214,-0.65739 -1.550429,-0.34905 -2.308703,-0.42178 -5.47802,-0.52542 -4.117445,-0.13465 -8.274309,0.0263 -9.049949,0.35037 -1.022759,0.42734 -2.465591,2.53389 -2.951416,4.30911 -0.572103,2.09048 -0.767872,5.7485 -0.461693,8.62693 0.159594,1.500356 0.482144,2.837696 1.357965,5.630356 0.796977,2.54124 1.005317,3.51646 1.202842,5.63035 0.169489,1.81386 0.10555,3.33876 -0.177872,4.24215 -0.301543,0.96115 -2.07852,1.55158 -3.252189,1.0806 z m 2.02348,-1.28219 0.388659,-0.38866 -0.08376,-2.57667 c -0.09016,-2.77373 -0.249059,-3.63947 -1.220834,-6.65177 -1.152092,-3.57124 -1.31354,-4.49136 -1.392546,-7.936306 -0.07827,-3.41306 0.09921,-5.22409 0.702491,-7.16809 0.551349,-1.77666 2.538416,-4.32443 3.602685,-4.61928 1.864106,-0.51644 10.768103,-0.56744 13.520311,-0.0774 2.987129,0.53183 4.427661,1.02447 4.95462,1.69439 0.518305,0.65891 0.364919,1.91939 -0.844803,6.94234 -0.970471,4.02955 -1.214091,6.458656 -0.986305,9.834356 0.08916,1.32126 0.267912,2.80767 0.397237,3.30314 0.348526,1.33528 1.05434,2.6748 1.73196,3.28699 0.587115,0.53042 0.625231,0.54161 1.837796,0.53944 1.375807,-0.002 2.659523,-0.26049 3.787276,-0.76122 3.252679,-1.44422 6.949189,-9.42362 7.262579,-15.677206 0.0991,-1.97657 0.006,-6.1264 -0.20478,-9.17578 -0.14915,-2.1532 -0.0944,-2.35032 0.76834,-2.76799 0.64288,-0.31121 0.81645,-0.32738 2.44039,-0.22742 0.96156,0.0592 3.57253,0.16677 5.80215,0.23908 3.61656,0.11729 4.21582,0.1734 5.55528,0.52017 1.30401,0.33759 1.9851,0.40636 5.17993,0.52305 4.94631,0.18067 5.255,0.28817 5.255,1.83011 0,0.48355 -0.13927,1.50343 -0.3095,2.26641 -0.76254,3.41782 -0.78282,3.59457 -0.85263,7.43096 -0.0771,4.23793 0.10588,7.092796 0.55576,8.670266 0.38556,1.35191 1.17568,2.898 1.66616,3.26031 0.50907,0.37603 1.77728,0.41121 2.30719,0.064 1.07857,-0.70671 3.16371,-4.27044 3.68019,-6.28984 0.68973,-2.696826 0.55959,-4.577936 -0.51554,-7.452066 -0.37183,-0.994 -0.67606,-1.99709 -0.67606,-2.22907 0,-1.74783 2.04367,-6.10968 4.41561,-9.42433 2.19517,-3.06761 6.53397,-7.23714 8.69059,-8.35152 0.8417,-0.43493 2.26037,-0.52497 3.34319,-0.21218 1.02829,0.29703 1.32542,0.52462 1.77141,1.35685 0.29292,0.5466 0.32042,0.81644 0.30606,3.00285 -0.0125,1.9068 -0.0997,2.86681 -0.42261,4.65443 -0.78595,4.35089 -0.98298,5.72141 -1.07921,7.50714 -0.12983,2.40917 0.1325,4.8192 0.65056,5.97671 0.64508,1.44132 1.0669,1.55998 3.29007,0.92548 3.37402,-0.96294 6.86368,-3.29982 8.11426,-5.43379 0.80133,-1.36737 0.83344,-1.64097 0.94751,-8.07468 0.0856,-4.82922 0.15737,-6.24101 0.36627,-7.20686 0.63929,-2.95572 2.56915,-5.34729 4.87015,-6.03527 1.05435,-0.31525 3.53295,-0.33142 7.79755,-0.0509 5.25225,0.34552 7.81186,0.0299 8.35106,-1.02976 0.32696,-0.64257 0.64561,-1.90552 1.12154,-4.44511 0.24761,-1.32125 0.56437,-2.87523 0.70392,-3.45328 0.33257,-1.3776 0.38186,-5.13571 0.0788,-6.00572 -0.48553,-1.39368 -1.57233,-3.77281 -2.11845,-4.63754 -0.7812,-1.23693 -1.46295,-1.62346 -3.02269,-1.71375 -3.14227,-0.1819 -6.70125,1.04516 -11.70725,4.0364 -2.15834,1.28968 -2.34569,1.43411 -2.62566,2.0241 -0.30131,0.63496 -0.90483,0.85163 -1.20993,0.43438 -0.29112,-0.39812 -0.25237,-0.65513 0.19644,-1.30275 l 0.39829,-0.57474 -0.0931,-5.36398 c -0.10326,-5.94804 -0.18678,-6.61725 -1.06247,-8.51256 -1.07153,-2.3192 -1.72213,-2.76698 -3.48447,-2.39825 -1.8702,0.39129 -2.8355,1.2539 -4.19582,3.74945 -1.33089,2.44154 -3.44926,7.55886 -3.62117,8.74758 -0.11154,0.7713 -0.54091,1.10699 -0.92483,0.72307 -0.19373,-0.19372 -0.2588,-0.79602 -0.3463,-3.20519 -0.0593,-1.63165 -0.1843,-3.43959 -0.27788,-4.01764 -0.61929,-3.82564 -1.97732,-7.90295 -2.77427,-8.32947 -1.09338,-0.58516 -2.86652,1.67369 -9.00082,11.46643 -1.54632,2.46854 -2.92369,4.76573 -3.0608,5.10486 -0.27826,0.68822 -0.3415,2.72326 -0.13061,4.20282 l 0.12595,0.88364 1.00817,-0.0937 c 0.5545,-0.0515 1.34237,-0.19464 1.75084,-0.31801 0.79944,-0.24145 1.19103,-0.19665 1.32465,0.15157 0.15162,0.39512 -0.0768,0.66381 -0.71004,0.83514 -0.55096,0.14906 -2.99238,0.58343 -3.2877,0.58493 -0.0619,3.1e-4 -0.11261,0.22877 -0.11261,0.50769 0,1.0435 -0.93182,1.10063 -1.02122,0.0626 l -0.0453,-0.52594 -1.83149,-0.24889 c -1.00732,-0.13689 -2.74361,-0.34817 -3.85842,-0.46952 -1.11481,-0.12134 -3.10796,-0.41962 -4.42922,-0.66285 -7.4773,-1.37648 -10.55233,-0.57208 -21.47042,5.61643 -5.71609,3.23995 -8.08621,4.12621 -15.840069,5.9231 -4.882889,1.13157 -6.652724,1.48384 -11.636069,2.3161 -6.323646,1.0561 -8.527277,1.28818 -17.266426,1.81838 -8.772116,0.53221 -10.806293,0.73827 -13.408512,1.35829 -2.991815,0.71284 -4.829475,1.73813 -6.906788,3.85351 -2.281179,2.32298 -4.171409,5.41124 -4.524637,7.39234 -0.420493,2.35837 0.06229,6.59072 0.840587,7.36902 0.287016,0.28701 1.058994,0.212 4.705996,-0.4573 1.690026,-0.31015 3.659493,-0.56119 5.029784,-0.64114 2.163009,-0.1262 2.314536,-0.15674 3.828643,-0.77165 3.660357,-1.48655 3.413159,-1.41676 5.029785,-1.42008 1.087366,-0.002 1.811974,0.0851 2.627499,0.31685 0.619339,0.17596 2.070869,0.46711 3.225621,0.64698 2.168247,0.33775 3.213758,0.71175 3.253163,1.16373 0.05497,0.63052 -0.04148,1.33761 -0.838631,6.14795 -0.613719,3.703446 -0.774698,6.036546 -0.570185,8.263836 0.294999,3.21274 0.98648,5.35255 2.469731,7.64265 0.729935,1.12701 1.772387,2.25243 2.273834,2.45483 0.639248,0.25801 1.293758,0.16556 1.699346,-0.24002 z M 160.30802,69.503834 c -1.50277,-0.16359 -1.61425,-0.51378 -0.87828,-2.7589 0.38682,-1.18002 0.71596,-1.50446 1.11819,-1.10223 0.24468,0.24469 0.2408,0.31904 -0.0723,1.38311 -0.18196,0.61849 -0.33084,1.19352 -0.33084,1.27784 0,0.24496 2.11675,0.18121 2.9054,-0.0875 0.50706,-0.17277 0.90703,-0.46919 1.41557,-1.0491 0.74236,-0.84654 1.12489,-0.99681 1.37029,-0.53828 0.11179,0.20889 0.0496,0.4202 -0.26218,0.89118 -1.04929,1.58497 -2.81604,2.25058 -5.26589,1.98389 z m -4.12507,-8.29788 c -0.47397,-0.34657 -0.2336,-0.75245 0.6555,-1.10688 0.88688,-0.35354 1.35453,-0.2717 1.35453,0.23707 0,0.32683 -0.21189,0.51328 -0.82579,0.72668 -0.24774,0.0861 -0.55371,0.19875 -0.67995,0.25031 -0.12624,0.0515 -0.35317,0.003 -0.50429,-0.10718 z m 8.79648,-1.33716 c -0.0991,-0.0991 -0.18017,-0.42865 -0.18017,-0.73233 0,-1.1059 0.93019,-1.17434 1.02315,-0.0753 0.0687,0.81277 -0.39425,1.25634 -0.84298,0.80761 z"
       id="path2" /></g></svg>
