<?xml version="1.0" encoding="UTF-8" standalone="no"?>
<!-- Created with Inkscape (http://www.inkscape.org/) -->

<svg
   version="1.1"
   id="svg2"
   width="691.86249"
   height="691.86249"
   viewBox="0 0 691.86248 691.86249"
   sodipodi:docname="Hall 3 Official Logo.svg"
   inkscape:version="1.3 (0e150ed6c4, 2023-07-21)"
   xml:space="preserve"
   xmlns:inkscape="http://www.inkscape.org/namespaces/inkscape"
   xmlns:sodipodi="http://sodipodi.sourceforge.net/DTD/sodipodi-0.dtd"
   xmlns="http://www.w3.org/2000/svg"
   xmlns:svg="http://www.w3.org/2000/svg"><defs
     id="defs6"><clipPath
       clipPathUnits="userSpaceOnUse"
       id="clipPath18"><path
         d="M 0,419.528 H 595.276 V 0 H 0 Z"
         id="path16" /></clipPath><clipPath
       clipPathUnits="userSpaceOnUse"
       id="clipPath510"><path
         d="M 0,419.528 H 595.276 V 0 H 0 Z"
         id="path508" /></clipPath></defs><sodipodi:namedview
     id="namedview4"
     pagecolor="#505050"
     bordercolor="#ffffff"
     borderopacity="1"
     inkscape:showpageshadow="0"
     inkscape:pageopacity="0"
     inkscape:pagecheckerboard="1"
     inkscape:deskcolor="#505050"
     showgrid="false"
     inkscape:zoom="0.52397414"
     inkscape:cx="1412.2834"
     inkscape:cy="849.27856"
     inkscape:window-width="1920"
     inkscape:window-height="1009"
     inkscape:window-x="1912"
     inkscape:window-y="-8"
     inkscape:window-maximized="1"
     inkscape:current-layer="g10"><inkscape:page
       x="-3.7716777e-06"
       y="1.849599e-06"
       width="691.86249"
       height="691.86249"
       id="page1"
       margin="0"
       bleed="0" /></sodipodi:namedview><g
     id="g10"
     inkscape:groupmode="layer"
     inkscape:label="Page 1"
     transform="matrix(1.3333333,0,0,-1.3333333,-57.666687,-45.061028)"><circle
       style="fill:#fffbe8;fill-opacity:1;stroke:#d4a600;stroke-width:33.75;stroke-linecap:round;stroke-miterlimit:15;stroke-dasharray:none;stroke-dashoffset:5.4274;stroke-opacity:1;paint-order:fill markers stroke"
       id="path1961"
       cx="302.69846"
       cy="293.24423"
       r="242.57346"
       transform="scale(1,-1)"
       inkscape:export-filename="..\..\Documents\Projects\Media Projects\NTU\Hall 3 JCRC\new h3 instagram dp\h3 remastered dp..png"
       inkscape:export-xdpi="96"
       inkscape:export-ydpi="96" /><g
       id="g3952"
       transform="translate(5.0606474,-503.02876)"><g
         id="g3918"><g
           id="g3916"
           clip-path="url(#clipPath18)"><g
             id="g3446"
             transform="translate(257.7292,298.9996)"><path
               d="m 0,0 c 1.228,-1.174 2.917,-2.559 5.116,-3.804 1.556,-0.882 3.023,-1.498 4.287,-1.934 0.78,-2.898 1.559,-5.795 2.338,-8.693 1.201,-1.107 2.402,-2.215 3.602,-3.323 0.766,0.594 1.532,1.188 2.298,1.781 2.931,-3.684 5.862,-7.368 8.793,-11.051 -1.29,-1.312 -2.58,-2.623 -3.87,-3.934 -5.46,4.555 -12.212,11.387 -17.776,21.053 C 2.798,-6.446 1.235,-3.104 0,0"
               style="fill:#d4a600;fill-opacity:1;fill-rule:nonzero;stroke:none"
               id="path3444" /></g><g
             id="g3450"
             transform="translate(243.889,310.2816)"><path
               d="m 0,0 c 6.242,-9.112 12.473,-18.228 18.694,-27.349 0.604,-0.887 2.872,-4.213 3.476,-5.1 3.264,-3.264 6.528,-6.527 9.792,-9.791 h 4.819 c -4.591,4.89 -9.473,10.682 -14.282,17.446 -3.332,4.685 -6.197,9.228 -8.659,13.512 C 9.227,-7.521 4.613,-3.761 0,0"
               style="fill:#2a1c1f;fill-opacity:1;fill-rule:nonzero;stroke:none"
               id="path3448" /></g><g
             id="g3454"
             transform="translate(336.9791,299.4104)"><path
               d="m 0,0 c -1.228,-1.174 -2.917,-2.559 -5.116,-3.804 -1.556,-0.882 -3.023,-1.498 -4.287,-1.935 -0.78,-2.897 -1.559,-5.794 -2.338,-8.692 -1.201,-1.107 -2.402,-2.215 -3.602,-3.323 -0.766,0.594 -1.532,1.187 -2.298,1.781 -2.931,-3.684 -5.862,-7.368 -8.793,-11.052 1.29,-1.311 2.58,-2.622 3.87,-3.933 5.46,4.555 12.212,11.387 17.776,21.053 C -2.798,-6.446 -1.235,-3.104 0,0"
               style="fill:#d4a600;fill-opacity:1;fill-rule:nonzero;stroke:none"
               id="path3452" /></g><g
             id="g3458"
             transform="translate(350.8193,310.6925)"><path
               d="m 0,0 c -6.242,-9.112 -12.473,-18.228 -18.694,-27.35 -0.604,-0.886 -2.872,-4.213 -3.477,-5.099 -3.263,-3.264 -6.527,-6.527 -9.791,-9.791 h -4.819 c 4.591,4.89 9.472,10.682 14.282,17.446 3.332,4.685 6.197,9.228 8.659,13.512 C -9.227,-7.521 -4.613,-3.761 0,0"
               style="fill:#2a1c1f;fill-opacity:1;fill-rule:nonzero;stroke:none"
               id="path3456" /></g><g
             id="g3462"
             transform="translate(239.8981,318.6161)"><path
               d="m 0,0 c 4.539,-7.402 11.627,-16.214 22.49,-22.767 1.597,-0.963 3.182,-1.822 4.745,-2.588 7.776,-5.143 15.552,-10.286 23.328,-15.428 -3.263,-3.264 -6.527,-6.528 -9.791,-9.792 h -4.82 c -3.354,3.264 -6.709,6.528 -10.064,9.792 -3.752,1.28 -8.949,3.662 -13.783,8.232 C -0.712,-20.433 -0.157,-3.166 0,0 Z"
               style="fill:none;stroke:#f0d179;stroke-width:2;stroke-linecap:butt;stroke-linejoin:round;stroke-miterlimit:10;stroke-dasharray:none;stroke-opacity:1"
               id="path3460" /></g><g
             id="g3466"
             transform="translate(354.8677,318.6161)"><path
               d="m 0,0 c -4.539,-7.402 -11.627,-16.214 -22.49,-22.767 -1.597,-0.963 -3.182,-1.822 -4.745,-2.588 -7.776,-5.143 -15.552,-10.286 -23.328,-15.428 3.263,-3.264 6.527,-6.528 9.791,-9.792 h 4.82 c 3.354,3.264 6.709,6.528 10.064,9.792 3.752,1.28 8.949,3.662 13.783,8.232 C 0.712,-20.433 0.157,-3.166 0,0 Z"
               style="fill:none;stroke:#f0d179;stroke-width:2;stroke-linecap:butt;stroke-linejoin:round;stroke-miterlimit:10;stroke-dasharray:none;stroke-opacity:1"
               id="path3464" /></g><g
             id="g3470"
             transform="translate(342.1094,321.2306)"><path
               d="m 0,0 c 0.007,0.35 -0.022,0.694 -0.067,1.034 0.119,4.335 -0.329,8.331 -2.006,12.034 -0.169,0.575 -0.406,1.142 -0.735,1.688 -2.515,4.172 -5.896,7.648 -9.944,10.321 -1.391,2.493 -3.296,4.652 -5.937,6.13 -4.887,2.736 -11.832,2.352 -16.731,0.003 -3.695,-1.771 -4.669,-7.05 -2.722,-10.38 2.067,-3.534 6.106,-4.393 9.655,-3.033 0.111,0.009 0.232,0.019 0.378,0.033 0.59,0.027 1.18,0.039 1.771,0.036 0.096,-0.001 0.177,-0.004 0.257,-0.006 0.153,-0.23 0.357,-0.493 0.327,-0.36 0.429,-1.002 0.629,-2.155 0.862,-3.206 0.417,-1.886 1.673,-3.397 3.278,-4.365 -0.153,-0.994 -0.078,-2.015 0.301,-2.995 2.128,-5.501 1.924,-11.028 1.674,-16.837 -0.074,-1.717 0.341,-3.123 1.068,-4.234 -0.94,-1.126 -1.827,-2.316 -2.629,-3.51 -2.219,-3.302 -0.746,-8.548 2.722,-10.38 3.826,-2.021 8.012,-0.802 10.38,2.722 0.11,0.164 0.175,0.266 0.212,0.329 0.168,0.203 0.336,0.407 0.507,0.609 0.908,1.076 1.79,2.159 2.633,3.292 0.898,1.206 1.672,2.563 2.217,3.991 0.444,0.659 0.771,1.399 0.925,2.215 C -0.683,-9.961 -0.106,-4.994 0,0"
               style="fill:#2a1c1f;fill-opacity:1;fill-rule:nonzero;stroke:none"
               id="path3468" /></g><g
             id="g3474"
             transform="translate(276.9042,281.3891)"><path
               d="m 0,0 c 0.015,-0.016 0.034,-0.032 0.051,-0.048 0,0 0,0 0,0 C 0.033,-0.033 0.017,-0.016 0,0"
               style="fill:#151720;fill-opacity:1;fill-rule:nonzero;stroke:none"
               id="path3472" /></g><g
             id="g3478"
             transform="translate(331.7928,296.5973)"><path
               d="m 0,0 c -0.675,0.675 -2.055,0.807 -2.711,0 -3.76,-4.618 -7.836,-8.965 -12.169,-13.046 -0.214,0.401 -0.462,0.777 -0.775,1.064 -0.263,0.242 -0.546,0.444 -0.839,0.622 -0.035,0.065 -0.056,0.143 -0.096,0.205 -0.654,1.014 -1.628,1.907 -2.839,2.183 -1.206,0.275 -2.598,0.229 -3.662,-0.479 -0.532,-0.354 -1.019,-0.718 -1.479,-1.108 -0.724,0.432 -1.562,0.707 -2.454,0.77 -3.574,0.251 -7.15,0.428 -10.731,0.53 -0.104,0.003 -0.191,-0.018 -0.292,-0.02 -2.924,0.345 -5.776,-0.092 -8.455,-1.383 -0.663,1.06 -1.441,2.066 -2.391,2.861 -1.906,1.591 -4.879,2.006 -6.721,0 -1.613,-1.757 -2.037,-5.019 0,-6.721 0.257,-0.214 0.48,-0.464 0.725,-0.686 -0.193,0.205 -0.221,0.381 0.038,-0.026 0.005,-0.007 0.008,-0.015 0.013,-0.022 0.015,-0.014 0.029,-0.03 0.045,-0.043 -0.016,0.014 -0.03,0.028 -0.045,0.042 0.373,-0.587 0.714,-1.187 1.041,-1.801 0.781,-1.463 1.613,-2.772 2.679,-4.053 0.255,-0.306 0.57,-0.541 0.906,-0.744 -0.003,-0.048 -0.015,-0.093 -0.013,-0.142 0.023,-0.17 0.046,-0.34 0.069,-0.51 0.091,-0.325 0.255,-0.607 0.493,-0.846 0.129,-0.1 0.259,-0.2 0.388,-0.3 0.299,-0.173 0.621,-0.261 0.968,-0.262 0.312,0.039 0.636,0.067 0.94,0.16 0.302,0.092 0.596,0.219 0.877,0.362 0.139,0.071 0.27,0.154 0.394,0.248 0.251,0.189 0.508,0.373 0.722,0.606 0.187,0.173 0.319,0.379 0.396,0.617 0.072,0.137 0.113,0.284 0.138,0.434 0.153,0.121 0.312,0.235 0.443,0.377 0.416,0.453 0.715,0.938 0.935,1.438 0.318,0.099 0.633,0.228 0.941,0.399 0.127,0.071 0.755,0.334 0.77,0.362 0.265,0.075 0.642,0.18 0.837,0.24 0.192,0.002 0.868,0.07 1.001,0.069 0.181,0.001 0.363,-0.01 0.545,-0.023 0.065,-0.013 0.126,-0.025 0.224,-0.043 0.435,-0.089 0.882,-0.104 1.328,-0.086 0.022,-0.001 0.039,-0.007 0.061,-0.008 3.581,-0.102 7.157,-0.278 10.731,-0.53 0.218,-0.015 0.431,-0.005 0.642,0.017 0.261,-0.331 0.563,-0.626 0.871,-0.875 0.42,-0.781 1.06,-1.502 1.794,-1.89 0.016,-0.008 0.033,-0.015 0.049,-0.023 0.002,-0.095 0.004,-0.19 0.025,-0.284 0.012,-0.255 0.088,-0.493 0.228,-0.713 0.1,-0.129 0.2,-0.259 0.3,-0.388 0.016,-0.017 0.037,-0.026 0.054,-0.042 0,0 0,-0.001 0.001,-0.002 0.079,-0.15 0.187,-0.29 0.311,-0.405 0.064,-0.059 0.327,-0.268 0.402,-0.312 0.074,-0.043 0.387,-0.171 0.471,-0.199 0.168,-0.054 0.354,-0.078 0.531,-0.07 0.101,0.004 0.431,0.048 0.529,0.071 0.27,0.062 0.459,0.185 0.674,0.326 0.342,0.224 0.684,0.447 1.026,0.671 0.223,0.121 0.403,0.285 0.538,0.494 0.169,0.185 0.284,0.402 0.343,0.652 0.08,0.255 0.091,0.51 0.034,0.764 0,0.004 -0.001,0.007 -0.001,0.01 0.18,0.169 0.351,0.347 0.509,0.538 0.628,0.797 1.305,1.549 2.038,2.251 0.05,0.048 0.087,0.112 0.134,0.163 0.314,0.086 0.616,0.24 0.872,0.47 C -9.371,-13.342 -4.473,-8.207 0,-2.711 0.653,-1.909 0.785,-0.785 0,0"
               style="fill:#151720;fill-opacity:1;fill-rule:nonzero;stroke:none"
               id="path3476" /></g><g
             id="g3482"
             transform="translate(339.1649,329.0739)"><path
               d="M 0,0 C 0.169,0.926 0.305,1.861 0.389,2.809 0.434,3.316 0.19,3.811 -0.187,4.172 0.04,5.508 0.156,6.863 0.101,8.241 0.062,9.242 -0.752,10.206 -1.816,10.158 -2.821,10.113 -3.776,9.314 -3.733,8.241 -3.649,6.114 -3.939,4.372 -4.509,2.321 -5.077,0.28 -5.844,-1.697 -6.615,-3.668 c -0.03,-0.077 -0.042,-0.159 -0.057,-0.239 -0.634,-0.813 -1.198,-1.669 -1.559,-2.68 -0.005,-0.012 -0.004,-0.025 -0.008,-0.038 -2.833,-0.844 -3.74,-4.138 -2.736,-6.563 -0.43,-0.572 -0.575,-1.357 -0.208,-2.009 10e-4,-1.393 -0.028,-2.785 -0.117,-4.175 -0.105,-1.645 -0.305,-3.536 -0.503,-4.879 -0.028,-0.186 -0.029,-0.377 -0.017,-0.567 -0.1,-1.022 0.503,-2.125 1.83,-2.125 0.935,0 1.51,0.553 1.735,1.237 0.07,0.133 0.126,0.276 0.149,0.436 0.025,0.166 0.041,0.332 0.065,0.497 0.046,0.064 0.099,0.122 0.135,0.195 1.391,2.822 2.782,5.644 4.173,8.466 1.137,2.306 2.368,4.569 2.517,7.088 0.241,0.638 0.473,1.28 0.674,1.933 0.605,1.965 0.975,4.048 0.85,6.108 C 0.288,-0.637 0.176,-0.297 0,0"
               style="fill:#8e0716;fill-opacity:1;fill-rule:nonzero;stroke:none"
               id="path3480" /></g><g
             id="g3486"
             transform="translate(329.2439,345.2347)"><path
               d="m 0,0 c 0.106,0.334 0.124,0.693 0.008,1.039 -0.986,2.952 -3.753,4.918 -6.419,6.281 -2.805,1.434 -5.849,2.238 -8.993,2.405 -1.035,0.055 -1.918,-0.92 -1.918,-1.917 0,-1.084 0.879,-1.863 1.918,-1.918 0.017,-10e-4 0.035,-0.003 0.053,-0.005 0.017,-0.122 0.044,-0.24 0.082,-0.356 0.1,-0.508 0.371,-0.969 0.87,-1.18 0.146,-0.062 0.277,-0.141 0.411,-0.22 0.011,-0.029 0.271,-0.237 0.326,-0.289 0.046,-0.054 0.071,-0.083 0.086,-0.1 0.034,-0.047 0.068,-0.093 0.101,-0.141 0.12,-0.178 0.232,-0.362 0.341,-0.547 0.509,-0.868 0.985,-1.758 1.475,-2.637 0.502,-0.899 1.028,-1.789 1.495,-2.706 0.023,-0.045 0.197,-0.423 0.23,-0.481 0.084,-0.212 0.161,-0.429 0.22,-0.649 0.031,-0.116 0.058,-0.233 0.081,-0.351 0.002,-0.018 0.003,-0.03 0.005,-0.053 0.003,-0.252 -0.002,-0.492 -0.033,-0.743 -0.035,-0.285 0.037,-0.564 0.168,-0.821 0.039,-0.089 0.078,-0.179 0.135,-0.264 0.808,-1.196 1.594,-2.407 2.355,-3.634 0.366,-0.591 0.74,-1.182 1.081,-1.788 0.089,-0.157 0.168,-0.318 0.25,-0.478 h 10e-4 c 0.002,-0.013 0.003,-0.018 0.007,-0.035 0.027,-0.083 0.052,-0.167 0.072,-0.252 0.002,-0.01 0.003,-0.013 0.005,-0.022 -0.005,-0.144 -0.024,-0.345 -0.028,-0.37 -0.058,-0.451 0.257,-1.051 0.562,-1.356 0.053,-0.053 0.119,-0.099 0.181,-0.147 -0.001,-0.003 -0.002,-0.006 -0.003,-0.009 -0.228,-0.507 -0.283,-1.062 -0.142,-1.556 -0.761,-1.117 -0.267,-3.074 1.501,-3.074 1.456,0 2.047,1.334 1.785,2.428 0.063,0.083 0.123,0.169 0.167,0.267 C 0.649,-10.742 1.224,-5.263 0,0"
               style="fill:#8e0716;fill-opacity:1;fill-rule:nonzero;stroke:none"
               id="path3484" /></g><g
             id="g3490"
             transform="translate(316.118,348.478)"><path
               d="M 0,0 C -0.074,0.117 -0.155,0.23 -0.256,0.331 -0.792,0.925 -1.328,1.519 -1.865,2.113 -2.039,2.3 -2.244,2.432 -2.482,2.51 -2.71,2.63 -2.957,2.685 -3.221,2.675 -3.233,2.675 -3.245,2.671 -3.258,2.671 -3.343,2.97 -3.483,3.254 -3.718,3.439 -4.325,3.917 -4.937,4.421 -5.628,4.776 -6.435,5.19 -7.34,5.489 -8.26,5.431 -8.771,5.398 -9.246,5.239 -9.616,4.869 -9.948,4.536 -10.199,3.991 -10.177,3.513 c 0.022,-0.496 0.185,-1.01 0.561,-1.356 0.362,-0.331 0.849,-0.593 1.356,-0.561 0.101,0.006 0.202,-0.005 0.303,-0.009 0.09,-0.022 0.178,-0.045 0.266,-0.074 0.471,-0.227 0.905,-0.518 1.32,-0.835 0.162,-0.157 0.345,-0.278 0.559,-0.347 0.228,-0.12 0.474,-0.175 0.738,-0.165 0.012,0 0.025,0.003 0.037,0.004 0.095,-0.291 0.243,-0.55 0.461,-0.768 l 1.609,-1.782 c 0.092,-0.099 0.195,-0.181 0.305,-0.249 0.29,-0.513 0.819,-0.885 1.589,-0.885 2.032,0 2.389,2.596 1.073,3.514"
               style="fill:#d4a600;fill-opacity:1;fill-rule:nonzero;stroke:none"
               id="path3488" /></g><g
             id="g3494"
             transform="translate(335.4475,337.6447)"><path
               d="M 0,0 C 0.141,0.728 0.363,1.55 0.269,2.249 0.152,3.112 -0.486,3.514 -1.06,4.071 -1.54,4.538 -1.977,5.039 -2.391,5.565 -2.908,6.221 -4.044,6.256 -4.715,5.864 -5.469,5.423 -5.784,4.532 -5.596,3.699 c 0.372,-1.642 0.401,-3.292 0.18,-4.959 -0.066,-0.491 0.159,-0.947 0.509,-1.293 -0.023,-0.048 -0.047,-0.097 -0.068,-0.143 -0.071,-0.159 -0.142,-0.317 -0.213,-0.476 -0.082,-0.09 -0.158,-0.19 -0.226,-0.303 -0.485,-0.806 -0.849,-1.685 -1.064,-2.602 -0.007,-0.03 -0.007,-0.06 -0.013,-0.09 -0.501,-1.202 -1.037,-2.389 -1.646,-3.545 -0.463,-0.878 -1.097,-1.733 -1.447,-2.662 -0.236,-0.626 -0.232,-1.253 -0.027,-1.791 -0.015,-0.031 -0.031,-0.061 -0.045,-0.092 -0.435,-0.939 -0.266,-2.066 0.688,-2.623 0.828,-0.485 2.186,-0.256 2.623,0.688 2.232,4.82 5.456,9.206 6.765,14.422 C 0.579,-1.135 0.405,-0.473 0,0"
               style="fill:#d4a600;fill-opacity:1;fill-rule:nonzero;stroke:none"
               id="path3492" /></g><g
             id="g3498"
             transform="translate(121.2555,206.3488)"><path
               d="m 0,0 c -0.47,-10.098 0.084,-18.522 0.754,-24.659 2.42,-22.14 8.434,-33.54 10.546,-37.214 1.928,-3.355 3.872,-5.957 6.122,-8.301 4.518,-4.707 9.286,-7.353 12.397,-8.787 2.01,3.599 4.02,7.198 6.03,10.797 -2.388,6.717 -4.702,14.93 -6.152,24.436 -2.123,13.92 -1.693,26.02 -0.643,35.189 -1.05,-9.169 -1.48,-21.269 0.643,-35.189 1.45,-9.506 3.764,-17.719 6.152,-24.436 1.42,-2.024 4.045,-5.208 8.291,-7.834 3.418,-2.115 6.636,-3.093 8.844,-3.576 2.007,3.199 4.015,6.398 6.022,9.597 -1.845,4.313 -3.587,9.172 -5.006,14.56 -4.452,16.899 -3.871,31.914 -2.388,42.562 -1.483,-10.648 -2.064,-25.663 2.388,-42.562 1.419,-5.388 3.161,-10.247 5.006,-14.56 1.026,-1.404 2.499,-3.122 4.537,-4.779 2.902,-2.358 5.77,-3.63 7.771,-4.328 2.406,2.304 4.812,4.608 7.219,6.912 -1.238,4.883 -2.318,10.274 -3.072,16.128 -1.814,14.083 -1.179,26.51 0.179,36.414 -1.358,-9.904 -1.993,-22.331 -0.179,-36.414 0.754,-5.854 1.834,-11.245 3.072,-16.128 1.84,-1.782 4.196,-3.759 7.125,-5.62 1.702,-1.081 3.341,-1.959 4.855,-2.674 l 8.602,8.755 c -1.248,3.814 -2.379,8.074 -3.226,12.748 -2.393,13.211 -1.617,24.783 -0.206,33.386 -1.411,-8.603 -2.187,-20.175 0.206,-33.386 0.847,-4.674 1.978,-8.934 3.226,-12.748 1.239,-1.245 3.182,-2.915 5.906,-4.302 2.472,-1.258 4.738,-1.851 6.382,-2.149 1.843,3.379 3.686,6.758 5.529,10.137 -2.093,5.479 -4.276,12.748 -5.376,21.485 -0.944,7.5 -0.84,14.102 -0.392,19.388 C 105.442,-20.574 88.886,-3.286 60.911,3.859 31.719,11.314 7.995,3.153 0,0"
               style="fill:#d4a600;fill-opacity:1;fill-rule:nonzero;stroke:none"
               id="path3496" /></g><g
             id="g3502"
             transform="translate(121.2555,206.3488)"><path
               d="m 0,0 c -0.47,-10.098 0.084,-18.522 0.754,-24.659 2.42,-22.14 8.434,-33.54 10.546,-37.214 1.928,-3.355 3.872,-5.957 6.122,-8.301 4.518,-4.707 9.286,-7.353 12.397,-8.787 2.01,3.599 4.02,7.198 6.03,10.797 -2.388,6.717 -4.702,14.93 -6.152,24.436 -2.123,13.92 -1.693,26.02 -0.643,35.189 -1.05,-9.169 -1.48,-21.269 0.643,-35.189 1.45,-9.506 3.764,-17.719 6.152,-24.436 1.42,-2.024 4.045,-5.208 8.291,-7.834 3.418,-2.115 6.636,-3.093 8.844,-3.576 2.007,3.199 4.015,6.398 6.022,9.597 -1.845,4.313 -3.587,9.172 -5.006,14.56 -4.452,16.899 -3.871,31.914 -2.388,42.562 -1.483,-10.648 -2.064,-25.663 2.388,-42.562 1.419,-5.388 3.161,-10.247 5.006,-14.56 1.026,-1.404 2.499,-3.122 4.537,-4.779 2.902,-2.358 5.77,-3.63 7.771,-4.328 2.406,2.304 4.812,4.608 7.219,6.912 -1.238,4.883 -2.318,10.274 -3.072,16.128 -1.814,14.083 -1.179,26.51 0.179,36.414 -1.358,-9.904 -1.993,-22.331 -0.179,-36.414 0.754,-5.854 1.834,-11.245 3.072,-16.128 1.84,-1.782 4.196,-3.759 7.125,-5.62 1.702,-1.081 3.341,-1.959 4.855,-2.674 l 8.602,8.755 c -1.248,3.814 -2.379,8.074 -3.226,12.748 -2.393,13.211 -1.617,24.783 -0.206,33.386 -1.411,-8.603 -2.187,-20.175 0.206,-33.386 0.847,-4.674 1.978,-8.934 3.226,-12.748 1.239,-1.245 3.182,-2.915 5.906,-4.302 2.472,-1.258 4.738,-1.851 6.382,-2.149 1.843,3.379 3.686,6.758 5.529,10.137 -2.093,5.479 -4.276,12.748 -5.376,21.485 -0.944,7.5 -0.84,14.102 -0.392,19.388 C 105.442,-20.574 88.886,-3.286 60.911,3.859 31.719,11.314 7.995,3.153 0,0 Z"
               style="fill:none;stroke:#f0d179;stroke-width:2;stroke-linecap:butt;stroke-linejoin:round;stroke-miterlimit:10;stroke-dasharray:none;stroke-opacity:1"
               id="path3500" /></g><g
             id="g3506"
             transform="translate(140.1075,291.7433)"><path
               d="m 0,0 c -3.833,-5.291 -7.71,-11.544 -11.156,-18.816 -11.31,-23.864 -12.197,-46.483 -11.418,-60.517 3.362,-6.28 6.724,-12.56 10.086,-18.84 5.836,4.821 11.672,9.642 17.507,14.463 1.078,9.541 3.002,20.919 6.471,33.494 C 16.41,-32.379 22.269,-20 22.27,-20 22.272,-20.001 16.213,-33.009 11.327,-50.808 7.587,-64.435 5.879,-75.967 5.019,-83.71 l 10.371,-20.456 c 4.719,3.358 9.438,6.716 14.158,10.074 1.038,7.77 2.779,16.813 5.717,26.682 2.916,9.797 6.374,18.266 9.728,25.304 -3.354,-7.038 -6.812,-15.507 -9.728,-25.304 -2.938,-9.869 -4.679,-18.912 -5.717,-26.682 l 11.571,-14.975 c 4.22,3.449 8.44,6.897 12.66,10.346 0.693,6.269 2.059,13.956 4.765,22.462 2.704,8.502 6.029,15.562 9.084,21.077 -3.055,-5.515 -6.38,-12.575 -9.084,-21.077 -2.706,-8.506 -4.072,-16.193 -4.765,-22.462 l 8.577,-17.969 11.707,10.482 c 0.523,5.579 1.5,12.023 3.267,19.058 1.987,7.911 4.508,14.721 6.979,20.32 -2.471,-5.599 -4.992,-12.409 -6.979,-20.32 -1.767,-7.035 -2.744,-13.479 -3.267,-19.058 2.744,-4.721 5.488,-9.442 8.232,-14.163 3.322,2.353 6.645,4.707 9.968,7.06 0.37,6.235 1.369,13.905 3.736,22.42 1.836,6.601 4.099,12.289 6.315,16.994 C 69.049,-17.233 33.52,17.124 11.716,9.796 7.917,8.519 3.822,5.737 0,0"
               style="fill:#2a1c1f;fill-opacity:1;fill-rule:nonzero;stroke:none"
               id="path3504" /></g><g
             id="g3510"
             transform="translate(140.1075,291.7433)"><path
               d="m 0,0 c -3.833,-5.291 -7.71,-11.544 -11.156,-18.816 -11.31,-23.864 -12.197,-46.483 -11.418,-60.517 3.362,-6.28 6.724,-12.56 10.086,-18.84 5.836,4.821 11.672,9.642 17.507,14.463 1.078,9.541 3.002,20.919 6.471,33.494 C 16.41,-32.379 22.269,-20 22.27,-20 22.272,-20.001 16.213,-33.009 11.327,-50.808 7.587,-64.435 5.879,-75.967 5.019,-83.71 l 10.371,-20.456 c 4.719,3.358 9.438,6.716 14.158,10.074 1.038,7.77 2.779,16.813 5.717,26.682 2.916,9.797 6.374,18.266 9.728,25.304 -3.354,-7.038 -6.812,-15.507 -9.728,-25.304 -2.938,-9.869 -4.679,-18.912 -5.717,-26.682 l 11.571,-14.975 c 4.22,3.449 8.44,6.897 12.66,10.346 0.693,6.269 2.059,13.956 4.765,22.462 2.704,8.502 6.029,15.562 9.084,21.077 -3.055,-5.515 -6.38,-12.575 -9.084,-21.077 -2.706,-8.506 -4.072,-16.193 -4.765,-22.462 l 8.577,-17.969 11.707,10.482 c 0.523,5.579 1.5,12.023 3.267,19.058 1.987,7.911 4.508,14.721 6.979,20.32 -2.471,-5.599 -4.992,-12.409 -6.979,-20.32 -1.767,-7.035 -2.744,-13.479 -3.267,-19.058 2.744,-4.721 5.488,-9.442 8.232,-14.163 3.322,2.353 6.645,4.707 9.968,7.06 0.37,6.235 1.369,13.905 3.736,22.42 1.836,6.601 4.099,12.289 6.315,16.994 C 69.049,-17.233 33.52,17.124 11.716,9.796 7.917,8.519 3.822,5.737 0,0 Z"
               style="fill:none;stroke:#f0d179;stroke-width:2;stroke-linecap:butt;stroke-linejoin:round;stroke-miterlimit:10;stroke-dasharray:none;stroke-opacity:1"
               id="path3508" /></g><g
             id="g3514"
             transform="translate(474.0201,206.3488)"><path
               d="m 0,0 c 0.47,-10.098 -0.084,-18.522 -0.754,-24.659 -2.42,-22.14 -8.434,-33.54 -10.546,-37.214 -1.928,-3.355 -3.872,-5.957 -6.122,-8.301 -4.518,-4.707 -9.286,-7.353 -12.397,-8.787 -2.01,3.599 -4.02,7.198 -6.03,10.797 2.388,6.717 4.702,14.93 6.152,24.436 2.123,13.92 1.693,26.02 0.643,35.189 1.05,-9.169 1.48,-21.269 -0.643,-35.189 -1.45,-9.506 -3.764,-17.719 -6.152,-24.436 -1.42,-2.024 -4.045,-5.208 -8.291,-7.834 -3.418,-2.115 -6.636,-3.093 -8.844,-3.576 -2.007,3.199 -4.015,6.398 -6.022,9.597 1.845,4.313 3.587,9.172 5.006,14.56 4.452,16.899 3.871,31.914 2.388,42.562 1.483,-10.648 2.064,-25.663 -2.388,-42.562 -1.419,-5.388 -3.161,-10.247 -5.006,-14.56 -1.026,-1.404 -2.499,-3.122 -4.537,-4.779 -2.902,-2.358 -5.77,-3.63 -7.771,-4.328 -2.406,2.304 -4.813,4.608 -7.219,6.912 1.238,4.883 2.318,10.274 3.072,16.128 1.814,14.083 1.179,26.51 -0.179,36.414 1.358,-9.904 1.993,-22.331 0.179,-36.414 -0.754,-5.854 -1.834,-11.245 -3.072,-16.128 -1.84,-1.782 -4.196,-3.759 -7.125,-5.62 -1.702,-1.081 -3.341,-1.959 -4.855,-2.674 -2.868,2.918 -5.735,5.837 -8.602,8.755 1.248,3.814 2.379,8.074 3.226,12.748 2.393,13.211 1.617,24.783 0.206,33.386 1.411,-8.603 2.187,-20.175 -0.206,-33.386 -0.847,-4.674 -1.978,-8.934 -3.226,-12.748 -1.239,-1.245 -3.182,-2.915 -5.906,-4.302 -2.472,-1.258 -4.738,-1.851 -6.382,-2.149 -1.843,3.379 -3.686,6.758 -5.529,10.137 2.093,5.479 4.276,12.748 5.376,21.485 0.944,7.5 0.84,14.102 0.392,19.388 5.722,6.578 22.278,23.866 50.253,31.011 C -31.719,11.314 -7.995,3.153 0,0"
               style="fill:#d4a600;fill-opacity:1;fill-rule:nonzero;stroke:none"
               id="path3512" /></g><g
             id="g3518"
             transform="translate(474.0201,206.3488)"><path
               d="m 0,0 c 0.47,-10.098 -0.084,-18.522 -0.754,-24.659 -2.42,-22.14 -8.434,-33.54 -10.546,-37.214 -1.928,-3.355 -3.872,-5.957 -6.122,-8.301 -4.518,-4.707 -9.286,-7.353 -12.397,-8.787 -2.01,3.599 -4.02,7.198 -6.03,10.797 2.388,6.717 4.702,14.93 6.152,24.436 2.123,13.92 1.693,26.02 0.643,35.189 1.05,-9.169 1.48,-21.269 -0.643,-35.189 -1.45,-9.506 -3.764,-17.719 -6.152,-24.436 -1.42,-2.024 -4.045,-5.208 -8.291,-7.834 -3.418,-2.115 -6.636,-3.093 -8.844,-3.576 -2.007,3.199 -4.015,6.398 -6.022,9.597 1.845,4.313 3.587,9.172 5.006,14.56 4.452,16.899 3.871,31.914 2.388,42.562 1.483,-10.648 2.064,-25.663 -2.388,-42.562 -1.419,-5.388 -3.161,-10.247 -5.006,-14.56 -1.026,-1.404 -2.499,-3.122 -4.537,-4.779 -2.902,-2.358 -5.77,-3.63 -7.771,-4.328 -2.406,2.304 -4.813,4.608 -7.219,6.912 1.238,4.883 2.318,10.274 3.072,16.128 1.814,14.083 1.179,26.51 -0.179,36.414 1.358,-9.904 1.993,-22.331 0.179,-36.414 -0.754,-5.854 -1.834,-11.245 -3.072,-16.128 -1.84,-1.782 -4.196,-3.759 -7.125,-5.62 -1.702,-1.081 -3.341,-1.959 -4.855,-2.674 -2.868,2.918 -5.735,5.837 -8.602,8.755 1.248,3.814 2.379,8.074 3.226,12.748 2.393,13.211 1.617,24.783 0.206,33.386 1.411,-8.603 2.187,-20.175 -0.206,-33.386 -0.847,-4.674 -1.978,-8.934 -3.226,-12.748 -1.239,-1.245 -3.182,-2.915 -5.906,-4.302 -2.472,-1.258 -4.738,-1.851 -6.382,-2.149 -1.843,3.379 -3.686,6.758 -5.529,10.137 2.093,5.479 4.276,12.748 5.376,21.485 0.944,7.5 0.84,14.102 0.392,19.388 5.722,6.578 22.278,23.866 50.253,31.011 C -31.719,11.314 -7.995,3.153 0,0 Z"
               style="fill:none;stroke:#f0d179;stroke-width:2;stroke-linecap:butt;stroke-linejoin:round;stroke-miterlimit:10;stroke-dasharray:none;stroke-opacity:1"
               id="path3516" /></g><g
             id="g3522"
             transform="translate(455.1681,291.7433)"><path
               d="m 0,0 c 3.833,-5.291 7.71,-11.544 11.156,-18.816 11.31,-23.864 12.197,-46.483 11.418,-60.517 -3.362,-6.28 -6.724,-12.56 -10.086,-18.84 -5.836,4.821 -11.672,9.642 -17.507,14.463 -1.078,9.541 -3.002,20.919 -6.471,33.494 -4.92,17.837 -10.779,30.216 -10.78,30.216 -0.002,-0.001 6.057,-13.009 10.943,-30.808 3.74,-13.627 5.448,-25.159 6.308,-32.902 -3.457,-6.818 -6.914,-13.637 -10.371,-20.456 -4.719,3.358 -9.438,6.716 -14.158,10.074 -1.038,7.77 -2.779,16.813 -5.717,26.682 -2.916,9.797 -6.374,18.266 -9.728,25.304 3.354,-7.038 6.812,-15.507 9.728,-25.304 2.938,-9.869 4.679,-18.912 5.717,-26.682 -3.857,-4.992 -7.714,-9.984 -11.571,-14.975 -4.22,3.449 -8.44,6.897 -12.66,10.346 -0.693,6.269 -2.059,13.956 -4.765,22.462 -2.704,8.502 -6.029,15.562 -9.084,21.077 3.055,-5.515 6.38,-12.575 9.084,-21.077 2.706,-8.506 4.072,-16.193 4.765,-22.462 l -8.577,-17.969 c -3.902,3.494 -7.805,6.988 -11.707,10.482 -0.523,5.579 -1.5,12.023 -3.267,19.058 -1.987,7.911 -4.508,14.721 -6.979,20.32 2.471,-5.599 4.992,-12.409 6.979,-20.32 1.767,-7.035 2.744,-13.479 3.267,-19.058 -2.744,-4.721 -5.488,-9.442 -8.232,-14.163 -3.322,2.353 -6.645,4.707 -9.968,7.06 -0.37,6.235 -1.369,13.905 -3.736,22.42 -1.836,6.601 -4.099,12.289 -6.315,16.994 33.265,56.664 68.794,91.021 90.598,83.693 C -7.917,8.519 -3.822,5.737 0,0"
               style="fill:#2a1c1f;fill-opacity:1;fill-rule:nonzero;stroke:none"
               id="path3520" /></g><g
             id="g3526"
             transform="translate(455.1681,291.7433)"><path
               d="m 0,0 c 3.833,-5.291 7.71,-11.544 11.156,-18.816 11.31,-23.864 12.197,-46.483 11.418,-60.517 -3.362,-6.28 -6.724,-12.56 -10.086,-18.84 -5.836,4.821 -11.672,9.642 -17.507,14.463 -1.078,9.541 -3.002,20.919 -6.471,33.494 -4.92,17.837 -10.779,30.216 -10.78,30.216 -0.002,-0.001 6.057,-13.009 10.943,-30.808 3.74,-13.627 5.448,-25.159 6.308,-32.902 -3.457,-6.818 -6.914,-13.637 -10.371,-20.456 -4.719,3.358 -9.438,6.716 -14.158,10.074 -1.038,7.77 -2.779,16.813 -5.717,26.682 -2.916,9.797 -6.374,18.266 -9.728,25.304 3.354,-7.038 6.812,-15.507 9.728,-25.304 2.938,-9.869 4.679,-18.912 5.717,-26.682 -3.857,-4.992 -7.714,-9.984 -11.571,-14.975 -4.22,3.449 -8.44,6.897 -12.66,10.346 -0.693,6.269 -2.059,13.956 -4.765,22.462 -2.704,8.502 -6.029,15.562 -9.084,21.077 3.055,-5.515 6.38,-12.575 9.084,-21.077 2.706,-8.506 4.072,-16.193 4.765,-22.462 l -8.577,-17.969 c -3.902,3.494 -7.805,6.988 -11.707,10.482 -0.523,5.579 -1.5,12.023 -3.267,19.058 -1.987,7.911 -4.508,14.721 -6.979,20.32 2.471,-5.599 4.992,-12.409 6.979,-20.32 1.767,-7.035 2.744,-13.479 3.267,-19.058 -2.744,-4.721 -5.488,-9.442 -8.232,-14.163 -3.322,2.353 -6.645,4.707 -9.968,7.06 -0.37,6.235 -1.369,13.905 -3.736,22.42 -1.836,6.601 -4.099,12.289 -6.315,16.994 33.265,56.664 68.794,91.021 90.598,83.693 C -7.917,8.519 -3.822,5.737 0,0 Z"
               style="fill:none;stroke:#f0d179;stroke-width:2;stroke-linecap:butt;stroke-linejoin:round;stroke-miterlimit:10;stroke-dasharray:none;stroke-opacity:1"
               id="path3524" /></g><g
             id="g3530"
             transform="translate(266.0595,277.8327)"><path
               d="m 0,0 c -9.604,14.094 -16.956,24.864 -21.917,31.426 -1.289,1.705 -4.148,5.404 -4.343,10.547 -0.102,2.674 0.525,5.007 2.068,8.48 3.182,7.162 7.077,11.997 14.89,23.577 1.563,2.316 3.492,5.259 3.309,9.099 -0.042,0.893 -0.229,3.885 -2.541,6.477 -2.876,3.225 -6.864,3.384 -7.607,3.4 -15.093,-0.035 -30.186,-0.071 -45.279,-0.107 -0.906,0.014 -2.483,0.001 -4.411,-0.235 -13.718,-1.68 -22.934,-11.118 -44.587,-39.561 -5.792,-7.609 -12.443,-16.531 -19.701,-26.626 2.378,-7.172 4.756,-14.343 7.134,-21.515 6.154,1.215 12.308,2.429 18.462,3.644 4.315,9.678 10.868,21.89 20.796,34.603 9.05,11.589 18.336,20.304 26.085,26.61 -7.749,-6.306 -17.035,-15.021 -26.085,-26.61 -9.928,-12.713 -16.481,-24.925 -20.796,-34.603 -0.936,-2.324 -1.871,-4.647 -2.807,-6.97 2.782,-5.891 5.564,-11.782 8.345,-17.672 l 15.969,7.333 c 1.963,4.785 4.568,10.222 8.043,15.969 3.927,6.492 8.034,11.842 11.754,16.116 -3.72,-4.274 -7.827,-9.624 -11.754,-16.116 -3.475,-5.747 -6.08,-11.184 -8.043,-15.969 -1.148,-3.127 -2.295,-6.255 -3.443,-9.383 2.585,-4.751 5.17,-9.502 7.755,-14.253 4.867,1.048 9.734,2.096 14.601,3.144 2.353,4.606 4.767,9.25 7.243,13.932 2.87,5.424 5.747,10.752 8.626,15.982 -2.879,-5.23 -5.756,-10.558 -8.626,-15.982 -2.476,-4.682 -4.89,-9.326 -7.243,-13.932 2.946,-6.156 5.892,-12.313 8.837,-18.469 4.369,1.759 8.737,3.517 13.106,5.276 1.073,2.395 2.31,4.907 3.741,7.499 2.643,4.791 5.436,8.931 8.116,12.448 -2.68,-3.517 -5.473,-7.657 -8.116,-12.448 -1.431,-2.592 -2.668,-5.104 -3.741,-7.499 -0.465,-1.166 -0.918,-2.446 -1.329,-3.834 -0.277,-0.94 -0.511,-1.846 -0.709,-2.711 2.977,-4.962 5.954,-9.924 8.93,-14.886 3.877,1.779 7.754,3.557 11.63,5.336 v 48.692 c 3.264,3.264 6.528,6.527 9.791,9.791 z"
               style="fill:#151720;fill-opacity:1;fill-rule:nonzero;stroke:none"
               id="path3528" /></g><g
             id="g3534"
             transform="translate(266.0595,277.8327)"><path
               d="m 0,0 c -9.604,14.094 -16.956,24.864 -21.917,31.426 -1.289,1.705 -4.148,5.404 -4.343,10.547 -0.102,2.674 0.525,5.007 2.068,8.48 3.182,7.162 7.077,11.997 14.89,23.577 1.563,2.316 3.492,5.259 3.309,9.099 -0.042,0.893 -0.229,3.885 -2.541,6.477 -2.876,3.225 -6.864,3.384 -7.607,3.4 -15.093,-0.035 -30.186,-0.071 -45.279,-0.107 -0.906,0.014 -2.483,0.001 -4.411,-0.235 -13.718,-1.68 -22.934,-11.118 -44.587,-39.561 -5.792,-7.609 -12.443,-16.531 -19.701,-26.626 2.378,-7.172 4.756,-14.343 7.134,-21.515 6.154,1.215 12.308,2.429 18.462,3.644 4.315,9.678 10.868,21.89 20.796,34.603 9.05,11.589 18.336,20.304 26.085,26.61 -7.749,-6.306 -17.035,-15.021 -26.085,-26.61 -9.928,-12.713 -16.481,-24.925 -20.796,-34.603 -0.936,-2.324 -1.871,-4.647 -2.807,-6.97 2.782,-5.891 5.564,-11.782 8.345,-17.672 l 15.969,7.333 c 1.963,4.785 4.568,10.222 8.043,15.969 3.927,6.492 8.034,11.842 11.754,16.116 -3.72,-4.274 -7.827,-9.624 -11.754,-16.116 -3.475,-5.747 -6.08,-11.184 -8.043,-15.969 -1.148,-3.127 -2.295,-6.255 -3.443,-9.383 2.585,-4.751 5.17,-9.502 7.755,-14.253 4.867,1.048 9.734,2.096 14.601,3.144 2.353,4.606 4.767,9.25 7.243,13.932 2.87,5.424 5.747,10.752 8.626,15.982 -2.879,-5.23 -5.756,-10.558 -8.626,-15.982 -2.476,-4.682 -4.89,-9.326 -7.243,-13.932 2.946,-6.156 5.892,-12.313 8.837,-18.469 4.369,1.759 8.737,3.517 13.106,5.276 1.073,2.395 2.31,4.907 3.741,7.499 2.643,4.791 5.436,8.931 8.116,12.448 -2.68,-3.517 -5.473,-7.657 -8.116,-12.448 -1.431,-2.592 -2.668,-5.104 -3.741,-7.499 -0.465,-1.166 -0.918,-2.446 -1.329,-3.834 -0.277,-0.94 -0.511,-1.846 -0.709,-2.711 2.977,-4.962 5.954,-9.924 8.93,-14.886 3.877,1.779 7.754,3.557 11.63,5.336 v 48.692 c 3.264,3.264 6.528,6.527 9.791,9.791 z"
               style="fill:none;stroke:#f0d179;stroke-width:2;stroke-linecap:butt;stroke-linejoin:round;stroke-miterlimit:10;stroke-dasharray:none;stroke-opacity:1"
               id="path3532" /></g><g
             id="g3538"
             transform="translate(219.8182,275.2574)"><path
               d="m 0,0 -3.69,-12.589 c 4.016,0.344 8.032,0.688 12.048,1.032 -1.453,1.76 -2.942,3.673 -4.436,5.743 C 2.481,-3.816 1.178,-1.87 0,0"
               style="fill:#2a1c1f;fill-opacity:1;fill-rule:nonzero;stroke:none"
               id="path3536" /></g><g
             id="g3542"
             transform="translate(219.8182,275.2574)"><path
               d="m 0,0 -3.69,-12.589 c 4.016,0.344 8.032,0.688 12.048,1.032 -1.453,1.76 -2.942,3.673 -4.436,5.743 C 2.481,-3.816 1.178,-1.87 0,0 Z"
               style="fill:none;stroke:#f0d179;stroke-width:2;stroke-linecap:butt;stroke-linejoin:round;stroke-miterlimit:10;stroke-dasharray:none;stroke-opacity:1"
               id="path3540" /></g><g
             id="g3546"
             transform="translate(225.7754,266.7139)"><path
               d="m 0,0 c -0.872,-4.109 -1.745,-8.218 -2.617,-12.327 4.165,0.368 8.331,0.737 12.496,1.105 C 8.05,-9.401 6.162,-7.398 4.256,-5.204 2.716,-3.43 1.3,-1.689 0,0"
               style="fill:#2a1c1f;fill-opacity:1;fill-rule:nonzero;stroke:none"
               id="path3544" /></g><g
             id="g3550"
             transform="translate(225.7754,266.7139)"><path
               d="m 0,0 c -0.872,-4.109 -1.745,-8.218 -2.617,-12.327 4.165,0.368 8.331,0.737 12.496,1.105 C 8.05,-9.401 6.162,-7.398 4.256,-5.204 2.716,-3.43 1.3,-1.689 0,0 Z"
               style="fill:none;stroke:#f0d179;stroke-width:2;stroke-linecap:butt;stroke-linejoin:round;stroke-miterlimit:10;stroke-dasharray:none;stroke-opacity:1"
               id="path3548" /></g><g
             id="g3554"
             transform="translate(232.6429,258.6075)"><path
               d="m 0,0 c -0.66,-3.516 -1.32,-7.032 -1.98,-10.547 3.614,0.662 7.229,1.323 10.843,1.985 -1.064,0.924 -2.14,1.894 -3.226,2.91 C 3.6,-3.744 1.724,-1.851 0,0"
               style="fill:#2a1c1f;fill-opacity:1;fill-rule:nonzero;stroke:none"
               id="path3552" /></g><g
             id="g3558"
             transform="translate(232.6429,258.6075)"><path
               d="m 0,0 c -0.66,-3.516 -1.32,-7.032 -1.98,-10.547 3.614,0.662 7.229,1.323 10.843,1.985 -1.064,0.924 -2.14,1.894 -3.226,2.91 C 3.6,-3.744 1.724,-1.851 0,0 Z"
               style="fill:none;stroke:#f0d179;stroke-width:2;stroke-linecap:butt;stroke-linejoin:round;stroke-miterlimit:10;stroke-dasharray:none;stroke-opacity:1"
               id="path3556" /></g><g
             id="g3562"
             transform="translate(328.7086,277.8337)"><path
               d="m 0,0 c 9.604,14.094 16.956,24.864 21.917,31.426 1.289,1.705 4.148,5.404 4.343,10.547 0.102,2.674 -0.525,5.007 -2.068,8.48 -3.182,7.162 -7.077,11.997 -14.89,23.577 -1.563,2.316 -3.492,5.259 -3.309,9.099 0.042,0.893 0.229,3.885 2.541,6.477 2.876,3.225 6.864,3.384 7.607,3.4 15.093,-0.035 30.186,-0.071 45.279,-0.107 0.906,0.014 2.483,0.001 4.411,-0.235 13.718,-1.68 22.934,-11.118 44.587,-39.561 5.792,-7.609 12.443,-16.531 19.701,-26.626 -2.378,-7.172 -4.756,-14.343 -7.134,-21.515 -6.154,1.215 -12.308,2.429 -18.462,3.644 -4.315,9.678 -10.868,21.89 -20.796,34.603 -9.05,11.589 -18.336,20.304 -26.085,26.61 7.749,-6.306 17.035,-15.021 26.085,-26.61 9.928,-12.713 16.481,-24.925 20.796,-34.603 0.936,-2.324 1.871,-4.647 2.807,-6.97 -2.782,-5.891 -5.564,-11.782 -8.345,-17.672 -5.323,2.444 -10.646,4.889 -15.969,7.333 -1.963,4.785 -4.568,10.222 -8.043,15.969 -3.927,6.492 -8.034,11.842 -11.754,16.116 3.72,-4.274 7.827,-9.624 11.754,-16.116 3.475,-5.747 6.08,-11.184 8.043,-15.969 1.148,-3.127 2.295,-6.255 3.443,-9.383 -2.585,-4.751 -5.17,-9.502 -7.755,-14.253 l -14.601,3.144 c -2.353,4.606 -4.767,9.25 -7.243,13.932 -2.87,5.424 -5.747,10.752 -8.626,15.982 2.879,-5.23 5.756,-10.558 8.626,-15.982 2.476,-4.682 4.89,-9.326 7.243,-13.932 -2.946,-6.156 -5.892,-12.313 -8.837,-18.469 -4.369,1.759 -8.737,3.517 -13.106,5.276 -1.073,2.395 -2.31,4.907 -3.741,7.499 -2.643,4.791 -5.436,8.931 -8.116,12.448 2.68,-3.517 5.473,-7.657 8.116,-12.448 1.431,-2.592 2.668,-5.104 3.741,-7.499 0.465,-1.166 0.918,-2.446 1.329,-3.834 0.277,-0.94 0.511,-1.846 0.709,-2.711 -2.977,-4.962 -5.954,-9.924 -8.93,-14.886 -3.877,1.779 -7.754,3.557 -11.63,5.336 V -9.791 L 13.847,0 Z"
               style="fill:#151720;fill-opacity:1;fill-rule:nonzero;stroke:none"
               id="path3560" /></g><g
             id="g3566"
             transform="translate(328.7086,277.8337)"><path
               d="m 0,0 c 9.604,14.094 16.956,24.864 21.917,31.426 1.289,1.705 4.148,5.404 4.343,10.547 0.102,2.674 -0.525,5.007 -2.068,8.48 -3.182,7.162 -7.077,11.997 -14.89,23.577 -1.563,2.316 -3.492,5.259 -3.309,9.099 0.042,0.893 0.229,3.885 2.541,6.477 2.876,3.225 6.864,3.384 7.607,3.4 15.093,-0.035 30.186,-0.071 45.279,-0.107 0.906,0.014 2.483,0.001 4.411,-0.235 13.718,-1.68 22.934,-11.118 44.587,-39.561 5.792,-7.609 12.443,-16.531 19.701,-26.626 -2.378,-7.172 -4.756,-14.343 -7.134,-21.515 -6.154,1.215 -12.308,2.429 -18.462,3.644 -4.315,9.678 -10.868,21.89 -20.796,34.603 -9.05,11.589 -18.336,20.304 -26.085,26.61 7.749,-6.306 17.035,-15.021 26.085,-26.61 9.928,-12.713 16.481,-24.925 20.796,-34.603 0.936,-2.324 1.871,-4.647 2.807,-6.97 -2.782,-5.891 -5.564,-11.782 -8.345,-17.672 -5.323,2.444 -10.646,4.889 -15.969,7.333 -1.963,4.785 -4.568,10.222 -8.043,15.969 -3.927,6.492 -8.034,11.842 -11.754,16.116 3.72,-4.274 7.827,-9.624 11.754,-16.116 3.475,-5.747 6.08,-11.184 8.043,-15.969 1.148,-3.127 2.295,-6.255 3.443,-9.383 -2.585,-4.751 -5.17,-9.502 -7.755,-14.253 l -14.601,3.144 c -2.353,4.606 -4.767,9.25 -7.243,13.932 -2.87,5.424 -5.747,10.752 -8.626,15.982 2.879,-5.23 5.756,-10.558 8.626,-15.982 2.476,-4.682 4.89,-9.326 7.243,-13.932 -2.946,-6.156 -5.892,-12.313 -8.837,-18.469 -4.369,1.759 -8.737,3.517 -13.106,5.276 -1.073,2.395 -2.31,4.907 -3.741,7.499 -2.643,4.791 -5.436,8.931 -8.116,12.448 2.68,-3.517 5.473,-7.657 8.116,-12.448 1.431,-2.592 2.668,-5.104 3.741,-7.499 0.465,-1.166 0.918,-2.446 1.329,-3.834 0.277,-0.94 0.511,-1.846 0.709,-2.711 -2.977,-4.962 -5.954,-9.924 -8.93,-14.886 -3.877,1.779 -7.754,3.557 -11.63,5.336 V -9.791 L 13.847,0 Z"
               style="fill:none;stroke:#f0d179;stroke-width:2;stroke-linecap:butt;stroke-linejoin:round;stroke-miterlimit:10;stroke-dasharray:none;stroke-opacity:1"
               id="path3564" /></g><g
             id="g3570"
             transform="translate(374.9499,275.2585)"><path
               d="m 0,0 3.69,-12.589 c -4.016,0.344 -8.032,0.688 -12.048,1.032 1.453,1.76 2.942,3.673 4.436,5.743 C -2.481,-3.816 -1.178,-1.87 0,0"
               style="fill:#2a1c1f;fill-opacity:1;fill-rule:nonzero;stroke:none"
               id="path3568" /></g><g
             id="g3574"
             transform="translate(374.9499,275.2585)"><path
               d="m 0,0 3.69,-12.589 c -4.016,0.344 -8.032,0.688 -12.048,1.032 1.453,1.76 2.942,3.673 4.436,5.743 C -2.481,-3.816 -1.178,-1.87 0,0 Z"
               style="fill:none;stroke:#f0d179;stroke-width:2;stroke-linecap:butt;stroke-linejoin:round;stroke-miterlimit:10;stroke-dasharray:none;stroke-opacity:1"
               id="path3572" /></g><g
             id="g3578"
             transform="translate(368.9927,266.7149)"><path
               d="m 0,0 c 0.872,-4.109 1.745,-8.218 2.617,-12.327 -4.165,0.368 -8.331,0.737 -12.496,1.105 1.829,1.821 3.717,3.824 5.623,6.018 C -2.716,-3.43 -1.3,-1.689 0,0"
               style="fill:#2a1c1f;fill-opacity:1;fill-rule:nonzero;stroke:none"
               id="path3576" /></g><g
             id="g3582"
             transform="translate(368.9927,266.7149)"><path
               d="m 0,0 c 0.872,-4.109 1.745,-8.218 2.617,-12.327 -4.165,0.368 -8.331,0.737 -12.496,1.105 1.829,1.821 3.717,3.824 5.623,6.018 C -2.716,-3.43 -1.3,-1.689 0,0 Z"
               style="fill:none;stroke:#f0d179;stroke-width:2;stroke-linecap:butt;stroke-linejoin:round;stroke-miterlimit:10;stroke-dasharray:none;stroke-opacity:1"
               id="path3580" /></g><g
             id="g3586"
             transform="translate(362.1253,258.6086)"><path
               d="m 0,0 c 0.66,-3.516 1.32,-7.032 1.98,-10.547 l -10.843,1.985 c 1.064,0.924 2.14,1.894 3.226,2.91 C -3.6,-3.744 -1.724,-1.851 0,0"
               style="fill:#2a1c1f;fill-opacity:1;fill-rule:nonzero;stroke:none"
               id="path3584" /></g><g
             id="g3590"
             transform="translate(362.1253,258.6086)"><path
               d="m 0,0 c 0.66,-3.516 1.32,-7.032 1.98,-10.547 l -10.843,1.985 c 1.064,0.924 2.14,1.894 3.226,2.91 C -3.6,-3.744 -1.724,-1.851 0,0 Z"
               style="fill:none;stroke:#f0d179;stroke-width:2;stroke-linecap:butt;stroke-linejoin:round;stroke-miterlimit:10;stroke-dasharray:none;stroke-opacity:1"
               id="path3588" /></g><g
             id="g3594"
             transform="translate(200.0903,314.541)"><path
               d="M 0,0 C -0.079,2.131 1.018,4.518 3.151,5.922 4.502,6.811 6.975,7.771 8.84,6.9 13.041,4.939 12.86,-5.706 9.225,-7.26 6.419,-8.459 0.18,-4.834 0,0"
               style="fill:#2a1c1f;fill-opacity:1;fill-rule:nonzero;stroke:none"
               id="path3592" /></g><g
             id="g3598"
             transform="translate(200.0903,314.541)"><path
               d="M 0,0 C -0.079,2.131 1.018,4.518 3.151,5.922 4.502,6.811 6.975,7.771 8.84,6.9 13.041,4.939 12.86,-5.706 9.225,-7.26 6.419,-8.459 0.18,-4.834 0,0 Z"
               style="fill:none;stroke:#f0d179;stroke-width:2;stroke-linecap:butt;stroke-linejoin:round;stroke-miterlimit:10;stroke-dasharray:none;stroke-opacity:1"
               id="path3596" /></g><g
             id="g3602"
             transform="translate(208.005,321.214)"><path
               d="m 0,0 c 0.426,1.336 1.513,2.754 3.115,3.508 1.429,0.672 3.34,0.841 4.851,0.073 3.717,-1.889 2.542,-8.98 2.146,-10.968 -0.021,-0.106 -0.041,-0.25 -0.088,-0.424 C 9.614,-9.345 8.288,-10.486 7.548,-10.716 5.001,-11.51 -1.577,-4.945 0,0"
               style="fill:#2a1c1f;fill-opacity:1;fill-rule:nonzero;stroke:none"
               id="path3600" /></g><g
             id="g3606"
             transform="translate(208.005,321.214)"><path
               d="m 0,0 c 0.426,1.336 1.513,2.754 3.115,3.508 1.429,0.672 3.34,0.841 4.851,0.073 3.717,-1.889 2.542,-8.98 2.146,-10.968 -0.021,-0.106 -0.041,-0.25 -0.088,-0.424 C 9.614,-9.345 8.288,-10.486 7.548,-10.716 5.001,-11.51 -1.577,-4.945 0,0 Z"
               style="fill:none;stroke:#f0d179;stroke-width:2;stroke-linecap:butt;stroke-linejoin:round;stroke-miterlimit:10;stroke-dasharray:none;stroke-opacity:1"
               id="path3604" /></g><g
             id="g3610"
             transform="translate(215.8178,324.825)"><path
               d="M 0,0 C 0.853,1.59 2.718,2.438 3.134,2.616 3.785,2.895 6.149,3.909 7.795,2.828 9.344,1.81 9.368,-0.478 9.384,-2.152 9.417,-5.412 8.379,-11.01 5.994,-11.369 3.012,-11.818 -2.195,-4.093 0,0"
               style="fill:#2a1c1f;fill-opacity:1;fill-rule:nonzero;stroke:none"
               id="path3608" /></g><g
             id="g3614"
             transform="translate(215.8178,324.825)"><path
               d="M 0,0 C 0.853,1.59 2.718,2.438 3.134,2.616 3.785,2.895 6.149,3.909 7.795,2.828 9.344,1.81 9.368,-0.478 9.384,-2.152 9.417,-5.412 8.379,-11.01 5.994,-11.369 3.012,-11.818 -2.195,-4.093 0,0 Z"
               style="fill:none;stroke:#f0d179;stroke-width:2;stroke-linecap:butt;stroke-linejoin:round;stroke-miterlimit:10;stroke-dasharray:none;stroke-opacity:1"
               id="path3612" /></g><g
             id="g3618"
             transform="translate(225.1688,325.6429)"><path
               d="M 0,0 C 0.261,0.313 1.267,1.52 3,1.904 4.533,2.244 6.419,1.892 7.556,0.738 9.968,-1.711 7.787,-6.544 7.344,-7.525 6.42,-9.571 3.978,-13.476 1.856,-13.054 -1.043,-12.477 -3.215,-3.855 0,0"
               style="fill:#2a1c1f;fill-opacity:1;fill-rule:nonzero;stroke:none"
               id="path3616" /></g><g
             id="g3622"
             transform="translate(225.1688,325.6429)"><path
               d="M 0,0 C 0.261,0.313 1.267,1.52 3,1.904 4.533,2.244 6.419,1.892 7.556,0.738 9.968,-1.711 7.787,-6.544 7.344,-7.525 6.42,-9.571 3.978,-13.476 1.856,-13.054 -1.043,-12.477 -3.215,-3.855 0,0 Z"
               style="fill:none;stroke:#f0d179;stroke-width:2;stroke-linecap:butt;stroke-linejoin:round;stroke-miterlimit:10;stroke-dasharray:none;stroke-opacity:1"
               id="path3620" /></g><g
             id="g3626"
             transform="translate(252.2127,277.8327)"><path
               d="m 0,0 c -1.963,6.522 -5.561,15.597 -12.398,24.904 -4.046,5.506 -8.267,9.79 -11.97,13.032 -0.417,-0.017 -0.948,0.004 -1.547,0.136 -1.053,0.232 -1.824,0.7 -2.281,1.033 -0.423,-0.405 -1.164,-1.01 -2.243,-1.426 -1.339,-0.517 -2.52,-0.48 -3.139,-0.417 -0.265,-0.422 -1.254,-1.888 -3.238,-2.564 -1.984,-0.676 -3.663,-0.119 -4.131,0.054 -0.236,-0.375 -1.61,-2.481 -3.938,-2.689 -1.607,-0.143 -2.831,0.694 -4.024,1.504 -0.796,0.541 -2.107,1.591 -3.214,3.421 -0.348,-1.862 -0.578,-4.563 0.139,-7.639 1.853,-7.944 8.52,-11.938 10.001,-12.779 1.635,-4.252 3.679,-8.788 6.25,-13.473 7.954,-14.494 17.857,-24.783 25.937,-31.668 0.002,6.26 0.003,12.52 0.005,18.78 C -6.527,-6.527 -3.264,-3.264 0,0"
               style="fill:#8e0716;fill-opacity:1;fill-rule:nonzero;stroke:none"
               id="path3624" /></g><g
             id="g3630"
             transform="translate(252.2127,277.8327)"><path
               d="m 0,0 c -1.963,6.522 -5.561,15.597 -12.398,24.904 -4.046,5.506 -8.267,9.79 -11.97,13.032 -0.417,-0.017 -0.948,0.004 -1.547,0.136 -1.053,0.232 -1.824,0.7 -2.281,1.033 -0.423,-0.405 -1.164,-1.01 -2.243,-1.426 -1.339,-0.517 -2.52,-0.48 -3.139,-0.417 -0.265,-0.422 -1.254,-1.888 -3.238,-2.564 -1.984,-0.676 -3.663,-0.119 -4.131,0.054 -0.236,-0.375 -1.61,-2.481 -3.938,-2.689 -1.607,-0.143 -2.831,0.694 -4.024,1.504 -0.796,0.541 -2.107,1.591 -3.214,3.421 -0.348,-1.862 -0.578,-4.563 0.139,-7.639 1.853,-7.944 8.52,-11.938 10.001,-12.779 1.635,-4.252 3.679,-8.788 6.25,-13.473 7.954,-14.494 17.857,-24.783 25.937,-31.668 0.002,6.26 0.003,12.52 0.005,18.78 C -6.527,-6.527 -3.264,-3.264 0,0 Z"
               style="fill:none;stroke:#f0d179;stroke-width:2;stroke-linecap:butt;stroke-linejoin:round;stroke-miterlimit:10;stroke-dasharray:none;stroke-opacity:1"
               id="path3628" /></g><g
             id="g3634"
             transform="translate(242.4216,149.514)"><path
               d="m 0,0 c -6.184,-4.545 -14.259,-11.609 -21.516,-21.952 -4.236,-6.037 -7.243,-11.836 -9.393,-16.821 3.099,-6.4 9.518,-10.485 15.028,-14.657 3.157,-2.39 6.49,-4.089 9.952,-5.462 2.48,3.793 3.303,7.531 3.534,8.692 1.953,1.604 3.946,3.341 5.954,5.22 0,0 3.084,2.886 6.052,6.073 3.918,4.209 10.733,12.884 18.312,24.964 C 18.616,-9.296 9.308,-4.648 0,0"
               style="fill:#8e0716;fill-opacity:1;fill-rule:nonzero;stroke:none"
               id="path3632" /></g><g
             id="g3638"
             transform="translate(242.4216,149.514)"><path
               d="m 0,0 c -6.184,-4.545 -14.259,-11.609 -21.516,-21.952 -4.236,-6.037 -7.243,-11.836 -9.393,-16.821 3.099,-6.4 9.518,-10.485 15.028,-14.657 3.157,-2.39 6.49,-4.089 9.952,-5.462 2.48,3.793 3.303,7.531 3.534,8.692 1.953,1.604 3.946,3.341 5.954,5.22 0,0 3.084,2.886 6.052,6.073 3.918,4.209 10.733,12.884 18.312,24.964 C 18.616,-9.296 9.308,-4.648 0,0 Z"
               style="fill:none;stroke:#f0d179;stroke-width:2;stroke-linecap:butt;stroke-linejoin:round;stroke-miterlimit:10;stroke-dasharray:none;stroke-opacity:1"
               id="path3636" /></g><g
             id="g3642"
             transform="translate(352.3611,149.514)"><path
               d="m 0,0 c 6.184,-4.545 14.259,-11.609 21.516,-21.952 4.236,-6.037 7.243,-11.836 9.393,-16.821 -3.099,-6.4 -9.517,-10.485 -15.028,-14.657 -3.157,-2.39 -6.49,-4.089 -9.952,-5.462 -2.48,3.793 -3.303,7.531 -3.534,8.692 -1.953,1.604 -3.946,3.341 -5.954,5.22 0,0 -3.084,2.886 -6.052,6.073 -3.918,4.209 -10.733,12.884 -18.312,24.964 C -18.616,-9.296 -9.308,-4.648 0,0"
               style="fill:#8e0716;fill-opacity:1;fill-rule:nonzero;stroke:none"
               id="path3640" /></g><g
             id="g3646"
             transform="translate(352.3611,149.514)"><path
               d="m 0,0 c 6.184,-4.545 14.259,-11.609 21.516,-21.952 4.236,-6.037 7.243,-11.836 9.393,-16.821 -3.099,-6.4 -9.517,-10.485 -15.028,-14.657 -3.157,-2.39 -6.49,-4.089 -9.952,-5.462 -2.48,3.793 -3.303,7.531 -3.534,8.692 -1.953,1.604 -3.946,3.341 -5.954,5.22 0,0 -3.084,2.886 -6.052,6.073 -3.918,4.209 -10.733,12.884 -18.312,24.964 C -18.616,-9.296 -9.308,-4.648 0,0 Z"
               style="fill:none;stroke:#f0d179;stroke-width:2;stroke-linecap:butt;stroke-linejoin:round;stroke-miterlimit:10;stroke-dasharray:none;stroke-opacity:1"
               id="path3644" /></g><g
             id="g3650"
             transform="translate(228.9362,306.4965)"><path
               d="M 0,0 C 2.303,-1.003 5.419,2.174 5.592,2.355 7.862,4.72 9.299,9.002 7.358,11.773 7.24,11.94 5.875,13.83 3.826,13.833 0.986,13.836 -0.857,10.211 -1.472,8.241 -2.354,5.413 -2.266,0.987 0,0"
               style="fill:#2a1c1f;fill-opacity:1;fill-rule:nonzero;stroke:none"
               id="path3648" /></g><g
             id="g3654"
             transform="translate(228.9362,306.4965)"><path
               d="M 0,0 C 2.303,-1.003 5.419,2.174 5.592,2.355 7.862,4.72 9.299,9.002 7.358,11.773 7.24,11.94 5.875,13.83 3.826,13.833 0.986,13.836 -0.857,10.211 -1.472,8.241 -2.354,5.413 -2.266,0.987 0,0 Z"
               style="fill:none;stroke:#f0d179;stroke-width:2;stroke-linecap:butt;stroke-linejoin:round;stroke-miterlimit:10;stroke-dasharray:none;stroke-opacity:1"
               id="path3652" /></g><g
             id="g3658"
             transform="translate(394.6505,314.541)"><path
               d="M 0,0 C 0.079,2.131 -1.018,4.518 -3.151,5.922 -4.502,6.811 -6.975,7.771 -8.84,6.9 -13.041,4.939 -12.86,-5.706 -9.224,-7.26 -6.419,-8.459 -0.18,-4.834 0,0"
               style="fill:#2a1c1f;fill-opacity:1;fill-rule:nonzero;stroke:none"
               id="path3656" /></g><g
             id="g3662"
             transform="translate(394.6505,314.541)"><path
               d="M 0,0 C 0.079,2.131 -1.018,4.518 -3.151,5.922 -4.502,6.811 -6.975,7.771 -8.84,6.9 -13.041,4.939 -12.86,-5.706 -9.224,-7.26 -6.419,-8.459 -0.18,-4.834 0,0 Z"
               style="fill:none;stroke:#f0d179;stroke-width:2;stroke-linecap:butt;stroke-linejoin:round;stroke-miterlimit:10;stroke-dasharray:none;stroke-opacity:1"
               id="path3660" /></g><g
             id="g3666"
             transform="translate(386.7358,321.214)"><path
               d="m 0,0 c -0.426,1.336 -1.513,2.754 -3.115,3.508 -1.429,0.672 -3.34,0.841 -4.851,0.073 -3.717,-1.889 -2.542,-8.98 -2.146,-10.968 0.021,-0.106 0.041,-0.25 0.088,-0.424 0.41,-1.534 1.736,-2.675 2.476,-2.905 C -5.001,-11.51 1.577,-4.945 0,0"
               style="fill:#2a1c1f;fill-opacity:1;fill-rule:nonzero;stroke:none"
               id="path3664" /></g><g
             id="g3670"
             transform="translate(386.7358,321.214)"><path
               d="m 0,0 c -0.426,1.336 -1.513,2.754 -3.115,3.508 -1.429,0.672 -3.34,0.841 -4.851,0.073 -3.717,-1.889 -2.542,-8.98 -2.146,-10.968 0.021,-0.106 0.041,-0.25 0.088,-0.424 0.41,-1.534 1.736,-2.675 2.476,-2.905 C -5.001,-11.51 1.577,-4.945 0,0 Z"
               style="fill:none;stroke:#f0d179;stroke-width:2;stroke-linecap:butt;stroke-linejoin:round;stroke-miterlimit:10;stroke-dasharray:none;stroke-opacity:1"
               id="path3668" /></g><g
             id="g3674"
             transform="translate(378.9229,324.825)"><path
               d="m 0,0 c -0.853,1.59 -2.718,2.438 -3.134,2.616 -0.651,0.279 -3.015,1.293 -4.661,0.212 -1.549,-1.018 -1.573,-3.306 -1.589,-4.98 -0.033,-3.26 1.005,-8.858 3.39,-9.217 C -3.012,-11.818 2.195,-4.093 0,0"
               style="fill:#2a1c1f;fill-opacity:1;fill-rule:nonzero;stroke:none"
               id="path3672" /></g><g
             id="g3678"
             transform="translate(378.9229,324.825)"><path
               d="m 0,0 c -0.853,1.59 -2.718,2.438 -3.134,2.616 -0.651,0.279 -3.015,1.293 -4.661,0.212 -1.549,-1.018 -1.573,-3.306 -1.589,-4.98 -0.033,-3.26 1.005,-8.858 3.39,-9.217 C -3.012,-11.818 2.195,-4.093 0,0 Z"
               style="fill:none;stroke:#f0d179;stroke-width:2;stroke-linecap:butt;stroke-linejoin:round;stroke-miterlimit:10;stroke-dasharray:none;stroke-opacity:1"
               id="path3676" /></g><g
             id="g3682"
             transform="translate(369.572,325.6429)"><path
               d="m 0,0 c -0.261,0.313 -1.267,1.52 -3,1.904 -1.533,0.34 -3.419,-0.012 -4.556,-1.166 -2.412,-2.449 -0.231,-7.282 0.212,-8.263 0.924,-2.046 3.366,-5.951 5.488,-5.529 C 1.043,-12.477 3.215,-3.855 0,0"
               style="fill:#2a1c1f;fill-opacity:1;fill-rule:nonzero;stroke:none"
               id="path3680" /></g><g
             id="g3686"
             transform="translate(369.572,325.6429)"><path
               d="m 0,0 c -0.261,0.313 -1.267,1.52 -3,1.904 -1.533,0.34 -3.419,-0.012 -4.556,-1.166 -2.412,-2.449 -0.231,-7.282 0.212,-8.263 0.924,-2.046 3.366,-5.951 5.488,-5.529 C 1.043,-12.477 3.215,-3.855 0,0 Z"
               style="fill:none;stroke:#f0d179;stroke-width:2;stroke-linecap:butt;stroke-linejoin:round;stroke-miterlimit:10;stroke-dasharray:none;stroke-opacity:1"
               id="path3684" /></g><g
             id="g3690"
             transform="translate(342.5567,277.8327)"><path
               d="m 0,0 c 1.95,6.513 5.535,15.593 12.37,24.904 4.045,5.511 8.268,9.794 11.969,13.032 0.417,-0.017 0.949,0.004 1.547,0.136 1.053,0.232 1.824,0.7 2.282,1.033 0.422,-0.405 1.164,-1.01 2.242,-1.426 1.339,-0.517 2.521,-0.48 3.139,-0.417 0.265,-0.422 1.255,-1.888 3.239,-2.564 1.984,-0.676 3.662,-0.119 4.13,0.054 0.236,-0.375 1.61,-2.481 3.939,-2.689 1.606,-0.143 2.83,0.694 4.023,1.504 0.796,0.541 2.107,1.591 3.214,3.421 0.348,-1.862 0.579,-4.563 -0.139,-7.639 -1.852,-7.944 -8.52,-11.938 -10,-12.779 C 40.319,12.318 38.275,7.782 35.704,3.097 27.751,-11.397 17.848,-21.686 9.767,-28.571 c 0.008,6.26 0.016,12.52 0.024,18.78 C 6.527,-6.527 3.264,-3.264 0,0"
               style="fill:#8e0716;fill-opacity:1;fill-rule:nonzero;stroke:none"
               id="path3688" /></g><g
             id="g3694"
             transform="translate(342.5567,277.8327)"><path
               d="m 0,0 c 1.95,6.513 5.535,15.593 12.37,24.904 4.045,5.511 8.268,9.794 11.969,13.032 0.417,-0.017 0.949,0.004 1.547,0.136 1.053,0.232 1.824,0.7 2.282,1.033 0.422,-0.405 1.164,-1.01 2.242,-1.426 1.339,-0.517 2.521,-0.48 3.139,-0.417 0.265,-0.422 1.255,-1.888 3.239,-2.564 1.984,-0.676 3.662,-0.119 4.13,0.054 0.236,-0.375 1.61,-2.481 3.939,-2.689 1.606,-0.143 2.83,0.694 4.023,1.504 0.796,0.541 2.107,1.591 3.214,3.421 0.348,-1.862 0.579,-4.563 -0.139,-7.639 -1.852,-7.944 -8.52,-11.938 -10,-12.779 C 40.319,12.318 38.275,7.782 35.704,3.097 27.751,-11.397 17.848,-21.686 9.767,-28.571 c 0.008,6.26 0.016,12.52 0.024,18.78 C 6.527,-6.527 3.264,-3.264 0,0 Z"
               style="fill:none;stroke:#f0d179;stroke-width:2;stroke-linecap:butt;stroke-linejoin:round;stroke-miterlimit:10;stroke-dasharray:none;stroke-opacity:1"
               id="path3692" /></g><g
             id="g3698"
             transform="translate(365.8046,306.4965)"><path
               d="m 0,0 c -2.303,-1.003 -5.419,2.174 -5.592,2.355 -2.27,2.365 -3.706,6.647 -1.766,9.418 0.118,0.167 1.483,2.057 3.532,2.06 2.84,0.003 4.683,-3.622 5.298,-5.592 C 2.354,5.413 2.266,0.987 0,0"
               style="fill:#2a1c1f;fill-opacity:1;fill-rule:nonzero;stroke:none"
               id="path3696" /></g><g
             id="g3702"
             transform="translate(365.8046,306.4965)"><path
               d="m 0,0 c -2.303,-1.003 -5.419,2.174 -5.592,2.355 -2.27,2.365 -3.706,6.647 -1.766,9.418 0.118,0.167 1.483,2.057 3.532,2.06 2.84,0.003 4.683,-3.622 5.298,-5.592 C 2.354,5.413 2.266,0.987 0,0 Z"
               style="fill:none;stroke:#f0d179;stroke-width:2;stroke-linecap:butt;stroke-linejoin:round;stroke-miterlimit:10;stroke-dasharray:none;stroke-opacity:1"
               id="path3700" /></g><g
             id="g3706"
             transform="translate(328.71,244.4037)"><path
               d="m 0,0 -9.791,9.791 v 13.847 h -4.82 V 9.791 L -24.402,0 h -13.847 l -9.791,9.791 v 13.847 h -4.819 V 9.791 L -62.651,0 h -13.846 l -9.791,9.791 V -94.89 c 17.65,-8.813 35.301,-17.627 52.951,-26.441 v -0.076 c 0.671,-0.31 1.341,-0.619 2.012,-0.928 v 0 c 18.321,9.148 36.642,18.297 54.963,27.445 V 9.791 L 13.847,0 Z"
               style="fill:#d4a600;fill-opacity:1;fill-rule:nonzero;stroke:none"
               id="path3704" /></g><g
             id="g3710"
             transform="translate(328.71,244.4037)"><path
               d="m 0,0 -9.791,9.791 v 13.847 h -4.82 V 9.791 L -24.402,0 h -13.847 l -9.791,9.791 v 13.847 h -4.819 V 9.791 L -62.651,0 h -13.846 l -9.791,9.791 V -94.89 c 17.65,-8.813 35.301,-17.627 52.951,-26.441 v -0.076 c 0.671,-0.31 1.341,-0.619 2.012,-0.928 v 0 c 18.321,9.148 36.642,18.297 54.963,27.445 V 9.791 L 13.847,0 Z"
               style="fill:none;stroke:#f0d179;stroke-width:2;stroke-linecap:butt;stroke-linejoin:round;stroke-miterlimit:10;stroke-dasharray:none;stroke-opacity:1"
               id="path3708" /></g><g
             id="g3714"
             transform="translate(266.0595,277.8327)"><path
               d="M 0,0 V 0 L 9.791,-9.791 Z"
               style="fill:#bfa62e;fill-opacity:1;fill-rule:nonzero;stroke:none"
               id="path3712" /></g><g
             id="g3718"
             transform="translate(266.0595,277.8327)"><path
               d="M 0,0 V 0 L 9.791,-9.791 Z"
               style="fill:none;stroke:#f0d179;stroke-width:2;stroke-linecap:butt;stroke-linejoin:round;stroke-miterlimit:10;stroke-dasharray:none;stroke-opacity:1"
               id="path3716" /></g><g
             id="g3722"
             transform="translate(252.2127,277.8327)"><path
               d="M 0,0 -9.791,-9.791 C -6.527,-6.527 -3.264,-3.264 0,0 Z"
               style="fill:none;stroke:#f0d179;stroke-width:2;stroke-linecap:butt;stroke-linejoin:round;stroke-miterlimit:10;stroke-dasharray:none;stroke-opacity:1"
               id="path3720" /></g><g
             id="g3726"
             transform="translate(266.0594,244.4037)"><path
               d="M 0,0 9.791,9.791 V 23.638 L 0,33.429 h -13.847 c -3.263,-3.264 -6.527,-6.527 -9.791,-9.791 V 9.791 L -13.847,0 Z"
               style="fill:none;stroke:#f0d179;stroke-width:2;stroke-linecap:butt;stroke-linejoin:round;stroke-miterlimit:10;stroke-dasharray:none;stroke-opacity:1"
               id="path3724" /></g><g
             id="g3730"
             transform="translate(290.4613,277.8327)"><path
               d="m 0,0 -9.791,-9.791 v 0 z"
               style="fill:#f0d179;fill-opacity:1;fill-rule:nonzero;stroke:none"
               id="path3728" /></g><g
             id="g3734"
             transform="translate(290.4613,244.4037)"><path
               d="m 0,0 h 13.847 l 9.791,9.791 v 13.847 c -3.264,3.264 -6.528,6.527 -9.791,9.791 H 8.782 6.923 4.912 0 l -9.791,-9.791 v 0 -13.847 z"
               style="fill:none;stroke:#f0d179;stroke-width:2;stroke-linecap:butt;stroke-linejoin:round;stroke-miterlimit:10;stroke-dasharray:none;stroke-opacity:1"
               id="path3732" /></g><g
             id="g3738"
             transform="translate(342.5567,277.8327)"><path
               d="m 0,0 h -13.847 c -3.263,-3.264 -6.527,-6.527 -9.791,-9.791 v -13.847 l 9.791,-9.791 H 0 l 9.791,9.791 v 13.847 z"
               style="fill:none;stroke:#f0d179;stroke-width:2;stroke-linecap:butt;stroke-linejoin:round;stroke-miterlimit:10;stroke-dasharray:none;stroke-opacity:1"
               id="path3736" /></g><g
             id="g3742"
             transform="translate(248.7526,235.4109)"><path
               d="M 0,0 V -80.822 L 27.098,-94.291 V 0 Z"
               style="fill:#151720;fill-opacity:1;fill-rule:nonzero;stroke:none"
               id="path3740" /></g><g
             id="g3746"
             transform="translate(248.7526,235.4109)"><path
               d="M 0,0 V -80.822 L 27.098,-94.291 V 0 Z"
               style="fill:none;stroke:#f0d179;stroke-width:2;stroke-linecap:butt;stroke-linejoin:round;stroke-miterlimit:10;stroke-dasharray:none;stroke-opacity:1"
               id="path3744" /></g><g
             id="g3750"
             transform="translate(346.0168,235.4109)"><path
               d="M 0,0 H -27.098 V -94.291 L 0,-80.822 Z"
               style="fill:#151720;fill-opacity:1;fill-rule:nonzero;stroke:none"
               id="path3748" /></g><g
             id="g3754"
             transform="translate(346.0168,235.4109)"><path
               d="M 0,0 H -27.098 V -94.291 L 0,-80.822 Z"
               style="fill:none;stroke:#f0d179;stroke-width:2;stroke-linecap:butt;stroke-linejoin:round;stroke-miterlimit:10;stroke-dasharray:none;stroke-opacity:1"
               id="path3752" /></g><g
             id="g3758"
             transform="translate(275.8506,235.4109)"><path
               d="m 0,0 v -94.291 l 21.534,-10.703 21.534,10.703 V 0 Z"
               style="fill:#4d81bf;fill-opacity:1;fill-rule:nonzero;stroke:none"
               id="path3756" /></g><g
             id="g3762"
             transform="translate(275.8506,235.4109)"><path
               d="m 0,0 v -94.291 l 21.534,-10.703 21.534,10.703 V 0 Z"
               style="fill:none;stroke:#f0d179;stroke-width:2;stroke-linecap:butt;stroke-linejoin:round;stroke-miterlimit:10;stroke-dasharray:none;stroke-opacity:1"
               id="path3760" /></g><g
             id="g3766"
             transform="translate(303.8773,351.4538)"><path
               d="m 0,0 c 4.223,2.466 8.591,3.056 8.591,3.056 1.434,0.193 4.074,0.524 7.287,-0.31 1.042,-0.271 4.982,-1.346 8.191,-4.732 2.657,-2.805 2.579,-4.838 5.565,-6.678 0.633,-0.39 1.586,-0.884 2.832,-1.923 0,0 0.386,-0.322 0.928,-0.851 0,0 1.007,-0.984 1.863,-2.095 1.034,-1.343 6.949,-15.034 -0.236,-33.437 -0.762,-1.95 -1.817,-4.33 -3.286,-6.96 -8.251,-8.748 -16.502,-17.495 -24.752,-26.243 -2.184,2.184 -4.368,4.368 -6.552,6.552 h -13.847 l -6.163,-6.163 c -3.14,3.775 -6.281,7.549 -9.421,11.324 C -17.801,-29.898 -5.594,-3.266 0,0 Z"
               style="fill:none;stroke:#f0d179;stroke-width:2;stroke-linecap:butt;stroke-linejoin:round;stroke-miterlimit:10;stroke-dasharray:none;stroke-opacity:1"
               id="path3764" /></g><g
             id="g3770"
             transform="translate(261.5991,322.3379)"><path
               d="M 0,0 C -0.472,2.899 1.851,5.322 5.303,8.835 15.468,19.18 20.6,24.246 24.187,25.967 30.012,28.762 37.88,30.266 43.72,28.831 57.87,25.355 68.994,2.444 66.284,-27.33 c -3.986,-4.729 -7.971,-9.458 -11.957,-14.187 -1.881,1.713 -3.763,3.425 -5.644,5.137 -2.22,-1.839 -4.441,-3.677 -6.661,-5.516 -1.887,1.72 -3.775,3.439 -5.663,5.159 l -5.056,-4.489 c -1.339,1.697 -2.679,3.394 -4.019,5.091 -1.787,-1.786 -3.573,-3.573 -5.36,-5.359 -1.697,1.518 -3.394,3.037 -5.091,4.555 -1.787,-1.384 -3.573,-2.769 -5.359,-4.153 -1.281,1.318 -2.562,2.637 -3.843,3.955 -0.957,2.928 -2.485,8.27 -2.801,14.075 -0.182,3.359 0.085,6.072 1.749,8.385 0.342,0.476 0.671,0.835 0.9,1.067 0.487,-0.754 1.589,-2.219 3.536,-3.066 3.12,-1.358 7.104,-0.562 9.098,1.851 3.345,4.049 0.334,11.746 -4.296,13.186 -2.398,0.746 -5.286,-0.389 -7.13,-1.885 C 7.552,-4.445 6.873,-5.47 6.49,-6.164 4.932,-5.529 0.577,-3.542 0,0"
               style="fill:#2a1c1f;fill-opacity:1;fill-rule:nonzero;stroke:none"
               id="path3768" /></g><g
             id="g3774"
             transform="translate(261.5991,322.3379)"><path
               d="M 0,0 C -0.472,2.899 1.851,5.322 5.303,8.835 15.468,19.18 20.6,24.246 24.187,25.967 30.012,28.762 37.88,30.266 43.72,28.831 57.87,25.355 68.994,2.444 66.284,-27.33 c -3.986,-4.729 -7.971,-9.458 -11.957,-14.187 -1.881,1.713 -3.763,3.425 -5.644,5.137 -2.22,-1.839 -4.441,-3.677 -6.661,-5.516 -1.887,1.72 -3.775,3.439 -5.663,5.159 l -5.056,-4.489 c -1.339,1.697 -2.679,3.394 -4.019,5.091 -1.787,-1.786 -3.573,-3.573 -5.36,-5.359 -1.697,1.518 -3.394,3.037 -5.091,4.555 -1.787,-1.384 -3.573,-2.769 -5.359,-4.153 -1.281,1.318 -2.562,2.637 -3.843,3.955 -0.957,2.928 -2.485,8.27 -2.801,14.075 -0.182,3.359 0.085,6.072 1.749,8.385 0.342,0.476 0.671,0.835 0.9,1.067 0.487,-0.754 1.589,-2.219 3.536,-3.066 3.12,-1.358 7.104,-0.562 9.098,1.851 3.345,4.049 0.334,11.746 -4.296,13.186 -2.398,0.746 -5.286,-0.389 -7.13,-1.885 C 7.552,-4.445 6.873,-5.47 6.49,-6.164 4.932,-5.529 0.577,-3.542 0,0 Z"
               style="fill:none;stroke:#f0d179;stroke-width:2;stroke-linecap:butt;stroke-linejoin:round;stroke-miterlimit:10;stroke-dasharray:none;stroke-opacity:1"
               id="path3772" /></g><g
             id="g3778"
             transform="translate(322.9185,289.1173)"><path
               d="m 0,0 c 0.23,10.669 -0.118,20.098 -0.681,28.057 0,0 -0.845,11.95 -6.445,21.097 -0.504,0.823 -1.385,2.067 -2.921,2.921 -2.408,1.339 -4.949,0.9 -6.185,0.687 -3.86,-0.666 -6.369,-3.032 -7.388,-4.124 3.323,-12.706 1.016,-19.234 0.028,-21.458 -0.69,-1.553 -3.098,-6.321 -6.214,-11.53 -1.381,-2.31 -1.476,-2.322 -1.948,-3.206 -1.622,-3.039 -3.146,-7.84 -2.282,-15.358"
               style="fill:none;stroke:#f0d179;stroke-width:2;stroke-linecap:butt;stroke-linejoin:round;stroke-miterlimit:10;stroke-dasharray:none;stroke-opacity:1"
               id="path3776" /></g><g
             id="g3782"
             transform="translate(307.6664,342.0278)"><path
               d="m 0,0 c 1.212,-1.824 2.744,-4.471 3.998,-7.878 0.32,-0.87 1.751,-4.858 2.267,-10.586 0.085,-0.947 0.366,-4.392 -0.112,-9.522 C 5.266,-37.498 2.924,-40.436 2.492,-49.074 2.338,-52.133 2.49,-54.61 2.616,-56.07"
               style="fill:none;stroke:#f0d179;stroke-width:2;stroke-linecap:butt;stroke-linejoin:round;stroke-miterlimit:10;stroke-dasharray:none;stroke-opacity:1"
               id="path3780" /></g><g
             id="g3786"
             transform="translate(303.133,340.6774)"><path
               d="m 0,0 c 0.941,-2.295 1.995,-5.436 2.62,-9.272 0.237,-1.455 0.902,-6.017 0.242,-11.961 -0.603,-5.428 -2.029,-9.49 -3.408,-13.416 -1.588,-4.52 -2.154,-4.897 -3.092,-8.053 -1.507,-5.071 -1.646,-9.484 -1.537,-12.375"
               style="fill:none;stroke:#f0d179;stroke-width:2;stroke-linecap:butt;stroke-linejoin:round;stroke-miterlimit:10;stroke-dasharray:none;stroke-opacity:1"
               id="path3784" /></g><g
             id="g3790"
             transform="translate(266.7227,295.8843)"><path
               d="M 0,0 H 22.352"
               style="fill:none;stroke:#f0d179;stroke-width:2;stroke-linecap:butt;stroke-linejoin:round;stroke-miterlimit:10;stroke-dasharray:none;stroke-opacity:1"
               id="path3788" /></g><g
             id="g3794"
             transform="translate(278.432,285.3993)"><path
               d="M 0,0 V 10.496"
               style="fill:none;stroke:#f0d179;stroke-width:2;stroke-linecap:butt;stroke-linejoin:round;stroke-miterlimit:10;stroke-dasharray:none;stroke-opacity:1"
               id="path3792" /></g><g
             id="g3798"
             transform="translate(283.6445,328.9503)"><path
               d="m 0,0 c 0.568,-0.45 1.346,-1.169 2.028,-2.221 0.306,-0.471 0.941,-1.546 1.449,-3.96 0.299,-1.42 0.591,-3.479 0.468,-6.026"
               style="fill:none;stroke:#f0d179;stroke-width:2;stroke-linecap:butt;stroke-linejoin:round;stroke-miterlimit:10;stroke-dasharray:none;stroke-opacity:1"
               id="path3796" /></g><g
             id="g3802"
             transform="translate(287.0876,329.4684)"><path
               d="m 0,0 c 0.568,-0.45 1.346,-1.169 2.028,-2.221 0.306,-0.471 0.941,-1.546 1.449,-3.96 0.299,-1.42 0.591,-3.479 0.468,-6.026"
               style="fill:none;stroke:#f0d179;stroke-width:2;stroke-linecap:butt;stroke-linejoin:round;stroke-miterlimit:10;stroke-dasharray:none;stroke-opacity:1"
               id="path3800" /></g><g
             id="g3806"
             transform="translate(290.787,329.4684)"><path
               d="m 0,0 c 0.568,-0.45 1.346,-1.169 2.028,-2.221 0.306,-0.471 0.941,-1.546 1.449,-3.96 0.299,-1.42 0.591,-3.479 0.468,-6.026"
               style="fill:none;stroke:#f0d179;stroke-width:2;stroke-linecap:butt;stroke-linejoin:round;stroke-miterlimit:10;stroke-dasharray:none;stroke-opacity:1"
               id="path3804" /></g><g
             id="g3810"
             transform="translate(292.0873,339.1225)"><path
               d="m 0,0 c -1.55,-0.792 -3.142,-1.465 -4.77,-2.04 -0.804,-0.282 -1.556,-0.883 -2.428,-0.758 -1.012,0.103 -1.873,0.425 -2.744,1.159 l -0.057,0.348 c 0.331,0.568 0.695,0.947 1.069,1.257 0.372,0.323 0.76,0.549 1.157,0.722 0.786,0.398 1.691,0.071 2.543,0.061 1.727,-0.022 3.45,-0.148 5.173,-0.4 z"
               style="fill:#f0d179;fill-opacity:1;fill-rule:nonzero;stroke:none"
               id="path3808" /></g><g
             id="g3814"
             transform="translate(329.3459,347.7444)"><path
               d="m 0,0 c 0.666,-2.414 1.584,-7.001 0.517,-12.592 -0.907,-4.75 -2.866,-8.229 -4.196,-10.216"
               style="fill:none;stroke:#f0d179;stroke-width:2;stroke-linecap:butt;stroke-linejoin:round;stroke-miterlimit:10;stroke-dasharray:none;stroke-opacity:1"
               id="path3812" /></g><g
             id="g3818"
             transform="translate(336.3437,340.8666)"><path
               d="m 0,0 c -0.072,-2.487 -0.448,-5.863 -1.733,-9.636 -1.972,-5.79 -5.146,-9.761 -7.225,-11.974"
               style="fill:none;stroke:#f0d179;stroke-width:2;stroke-linecap:butt;stroke-linejoin:round;stroke-miterlimit:10;stroke-dasharray:none;stroke-opacity:1"
               id="path3816" /></g><g
             id="g3822"
             transform="translate(309.9094,354.4889)"><path
               d="m 0,0 c 1.448,-1.139 3.17,-2.731 4.801,-4.883 2.85,-3.76 4.111,-7.502 4.706,-9.923"
               style="fill:none;stroke:#f0d179;stroke-width:2;stroke-linecap:butt;stroke-linejoin:round;stroke-miterlimit:10;stroke-dasharray:none;stroke-opacity:1"
               id="path3820" /></g><g
             id="g3826"
             transform="translate(339.1343,337.9209)"><path
               d="M 0,0 C 0.643,-3.944 1.166,-10.329 -0.579,-17.84 -2.911,-27.875 -8.064,-34.641 -10.923,-37.895"
               style="fill:none;stroke:#f0d179;stroke-width:2;stroke-linecap:butt;stroke-linejoin:round;stroke-miterlimit:10;stroke-dasharray:none;stroke-opacity:1"
               id="path3824" /></g><g
             id="g3830"
             transform="translate(136.7391,117.5881)"><path
               d="m 0,0 c -0.232,0.59 -0.618,1.828 -0.233,3.217 0.525,1.897 2.126,2.849 2.803,3.251 4.245,2.518 11.981,0.81 12.852,-2.759 0.113,-0.466 0.43,-2.278 -2.245,-5.096 v -25.425 c -1.761,0.887 -4.146,1.815 -7.063,2.23 -0.993,0.141 -1.927,0.205 -2.788,0.219 C 2.217,-16.242 1.109,-8.121 0,0"
               style="fill:#4d81bf;fill-opacity:1;fill-rule:nonzero;stroke:none"
               id="path3828" /></g><g
             id="g3834"
             transform="translate(136.7391,117.5881)"><path
               d="m 0,0 c -0.232,0.59 -0.618,1.828 -0.233,3.217 0.525,1.897 2.126,2.849 2.803,3.251 4.245,2.518 11.981,0.81 12.852,-2.759 0.113,-0.466 0.43,-2.278 -2.245,-5.096 v -25.425 c -1.761,0.887 -4.146,1.815 -7.063,2.23 -0.993,0.141 -1.927,0.205 -2.788,0.219 C 2.217,-16.242 1.109,-8.121 0,0 Z"
               style="fill:none;stroke:#f0d179;stroke-width:2.001;stroke-linecap:butt;stroke-linejoin:round;stroke-miterlimit:10;stroke-dasharray:none;stroke-opacity:1"
               id="path3832" /></g><g
             id="g3838"
             transform="translate(136.8055,90.6459)"><path
               d="M 0,0 C -0.125,9.344 -0.251,18.688 -0.376,28.031 -0.137,27.395 0.748,25.281 3.063,23.962 4.742,23.005 6.346,22.939 7.088,22.956 7.135,14.846 7.183,6.737 7.23,-1.372 6.77,-1.597 5.075,-2.358 2.99,-1.818 1.374,-1.4 0.384,-0.423 0,0"
               style="fill:#21547d;fill-opacity:1;fill-rule:nonzero;stroke:none"
               id="path3836" /></g><g
             id="g3842"
             transform="translate(136.8055,90.6459)"><path
               d="M 0,0 C -0.125,9.344 -0.251,18.688 -0.376,28.031 -0.137,27.395 0.748,25.281 3.063,23.962 4.742,23.005 6.346,22.939 7.088,22.956 7.135,14.846 7.183,6.737 7.23,-1.372 6.77,-1.597 5.075,-2.358 2.99,-1.818 1.374,-1.4 0.384,-0.423 0,0 Z"
               style="fill:none;stroke:#f0d179;stroke-width:2.001;stroke-linecap:butt;stroke-linejoin:round;stroke-miterlimit:10;stroke-dasharray:none;stroke-opacity:1"
               id="path3840" /></g><g
             id="g3846"
             transform="translate(241.8176,90.6919)"><path
               d="M 0,0 C -30.634,0.028 -61.267,0.056 -91.901,0.084 V 25.509 H 12.809 C 12.827,21.066 12.845,16.624 12.863,12.181 8.576,8.121 4.288,4.06 0,0"
               style="fill:#4d81bf;fill-opacity:1;fill-rule:nonzero;stroke:none"
               id="path3844" /></g><g
             id="g3850"
             transform="translate(241.8176,90.6919)"><path
               d="M 0,0 C -30.634,0.028 -61.267,0.056 -91.901,0.084 V 25.509 H 12.809 C 12.827,21.066 12.845,16.624 12.863,12.181 8.576,8.121 4.288,4.06 0,0 Z"
               style="fill:none;stroke:#f0d179;stroke-width:2.001;stroke-linecap:butt;stroke-linejoin:round;stroke-miterlimit:10;stroke-dasharray:none;stroke-opacity:1"
               id="path3848" /></g><g
             id="g3854"
             transform="translate(252.88,116.2872)"><path
               d="m 0,0 c -2.635,0.688 -4.371,2.23 -4.347,3.685 0.028,1.709 2.482,2.833 3.334,3.226 C 4.57,9.493 14.394,7.436 15.346,2.718 15.744,0.748 14.13,-1.2 10.862,-5.019 7.443,-9.016 4.087,-11.745 1.801,-13.414 1.783,-8.972 1.764,-4.529 1.746,-0.086 1.164,-0.057 0.582,-0.029 0,0"
               style="fill:#4d81bf;fill-opacity:1;fill-rule:nonzero;stroke:none"
               id="path3852" /></g><g
             id="g3858"
             transform="translate(252.88,116.2872)"><path
               d="m 0,0 c -2.635,0.688 -4.371,2.23 -4.347,3.685 0.028,1.709 2.482,2.833 3.334,3.226 C 4.57,9.493 14.394,7.436 15.346,2.718 15.744,0.748 14.13,-1.2 10.862,-5.019 7.443,-9.016 4.087,-11.745 1.801,-13.414 1.783,-8.972 1.764,-4.529 1.746,-0.086 1.164,-0.057 0.582,-0.029 0,0 Z"
               style="fill:none;stroke:#f0d179;stroke-width:2.001;stroke-linecap:butt;stroke-linejoin:round;stroke-miterlimit:10;stroke-dasharray:none;stroke-opacity:1"
               id="path3856" /></g><g
             id="g3862"
             transform="translate(268.2941,117.9303)"><path
               d="m 0,0 v -30.841 c -4.365,-4.112 -8.73,-8.225 -13.095,-12.337 -11.525,-2.935 -20.68,-3.344 -21.689,-1.176 -0.139,0.298 -0.923,2.359 -1.541,5.1 -0.119,0.526 -0.18,0.79 -0.187,0.889 -0.181,2.374 2.127,4.155 6.622,8.092 1.146,1.003 2.304,1.992 3.413,3.035 13.085,12.303 22.587,21.276 24.086,22.671 0.235,0.22 0.923,0.858 1.504,1.901 C -0.298,-1.609 -0.085,-0.627 0,0"
               style="fill:#21547d;fill-opacity:1;fill-rule:nonzero;stroke:none"
               id="path3860" /></g><g
             id="g3866"
             transform="translate(268.2941,117.9303)"><path
               d="m 0,0 v -30.841 c -4.365,-4.112 -8.73,-8.225 -13.095,-12.337 -11.525,-2.935 -20.68,-3.344 -21.689,-1.176 -0.139,0.298 -0.923,2.359 -1.541,5.1 -0.119,0.526 -0.18,0.79 -0.187,0.889 -0.181,2.374 2.127,4.155 6.622,8.092 1.146,1.003 2.304,1.992 3.413,3.035 13.085,12.303 22.587,21.276 24.086,22.671 0.235,0.22 0.923,0.858 1.504,1.901 C -0.298,-1.609 -0.085,-0.627 0,0 Z"
               style="fill:none;stroke:#f0d179;stroke-width:2.001;stroke-linecap:butt;stroke-linejoin:round;stroke-miterlimit:10;stroke-dasharray:none;stroke-opacity:1"
               id="path3864" /></g><g
             id="g3870"
             transform="translate(458.0437,117.5881)"><path
               d="m 0,0 c 0.232,0.59 0.618,1.828 0.233,3.217 -0.525,1.897 -2.126,2.849 -2.803,3.251 -4.245,2.518 -11.981,0.81 -12.852,-2.759 -0.113,-0.466 -0.43,-2.278 2.245,-5.096 v -25.425 c 1.761,0.887 4.146,1.815 7.063,2.23 0.993,0.141 1.927,0.205 2.788,0.219 C -2.217,-16.242 -1.109,-8.121 0,0"
               style="fill:#4d81bf;fill-opacity:1;fill-rule:nonzero;stroke:none"
               id="path3868" /></g><g
             id="g3874"
             transform="translate(458.0437,117.5881)"><path
               d="m 0,0 c 0.232,0.59 0.618,1.828 0.233,3.217 -0.525,1.897 -2.126,2.849 -2.803,3.251 -4.245,2.518 -11.981,0.81 -12.852,-2.759 -0.113,-0.466 -0.43,-2.278 2.245,-5.096 v -25.425 c 1.761,0.887 4.146,1.815 7.063,2.23 0.993,0.141 1.927,0.205 2.788,0.219 C -2.217,-16.242 -1.109,-8.121 0,0 Z"
               style="fill:none;stroke:#f0d179;stroke-width:2.001;stroke-linecap:butt;stroke-linejoin:round;stroke-miterlimit:10;stroke-dasharray:none;stroke-opacity:1"
               id="path3872" /></g><g
             id="g3878"
             transform="translate(457.9772,90.6459)"><path
               d="M 0,0 C 0.125,9.344 0.251,18.688 0.376,28.031 0.137,27.395 -0.748,25.281 -3.063,23.962 -4.742,23.005 -6.346,22.939 -7.088,22.956 -7.135,14.846 -7.183,6.737 -7.23,-1.372 -6.77,-1.597 -5.075,-2.358 -2.99,-1.818 -1.374,-1.4 -0.384,-0.423 0,0"
               style="fill:#21547d;fill-opacity:1;fill-rule:nonzero;stroke:none"
               id="path3876" /></g><g
             id="g3882"
             transform="translate(457.9772,90.6459)"><path
               d="M 0,0 C 0.125,9.344 0.251,18.688 0.376,28.031 0.137,27.395 -0.748,25.281 -3.063,23.962 -4.742,23.005 -6.346,22.939 -7.088,22.956 -7.135,14.846 -7.183,6.737 -7.23,-1.372 -6.77,-1.597 -5.075,-2.358 -2.99,-1.818 -1.374,-1.4 -0.384,-0.423 0,0 Z"
               style="fill:none;stroke:#f0d179;stroke-width:2.001;stroke-linecap:butt;stroke-linejoin:round;stroke-miterlimit:10;stroke-dasharray:none;stroke-opacity:1"
               id="path3880" /></g><g
             id="g3886"
             transform="translate(352.9652,90.6919)"><path
               d="M 0,0 C 30.634,0.028 61.267,0.056 91.901,0.084 V 25.509 H -12.809 C -12.827,21.066 -12.845,16.624 -12.863,12.181 -8.576,8.121 -4.288,4.06 0,0"
               style="fill:#4d81bf;fill-opacity:1;fill-rule:nonzero;stroke:none"
               id="path3884" /></g><g
             id="g3890"
             transform="translate(352.9652,90.6919)"><path
               d="M 0,0 C 30.634,0.028 61.267,0.056 91.901,0.084 V 25.509 H -12.809 C -12.827,21.066 -12.845,16.624 -12.863,12.181 -8.576,8.121 -4.288,4.06 0,0 Z"
               style="fill:none;stroke:#f0d179;stroke-width:2.001;stroke-linecap:butt;stroke-linejoin:round;stroke-miterlimit:10;stroke-dasharray:none;stroke-opacity:1"
               id="path3888" /></g><g
             id="g3894"
             transform="translate(341.7813,116.201)"><path
               d="M 0,0 C 2.718,0.707 4.5,2.289 4.469,3.771 4.432,5.484 1.978,6.608 1.135,6.998 c -5.583,2.581 -15.407,0.524 -16.36,-4.194 -0.397,-1.97 1.217,-3.917 4.484,-7.737 3.419,-3.997 6.776,-6.726 9.062,-8.395 0.018,4.443 0.036,8.885 0.054,13.328 z"
               style="fill:#4d81bf;fill-opacity:1;fill-rule:nonzero;stroke:none"
               id="path3892" /></g><g
             id="g3898"
             transform="translate(341.7813,116.201)"><path
               d="M 0,0 C 2.718,0.707 4.5,2.289 4.469,3.771 4.432,5.484 1.978,6.608 1.135,6.998 c -5.583,2.581 -15.407,0.524 -16.36,-4.194 -0.397,-1.97 1.217,-3.917 4.484,-7.737 3.419,-3.997 6.776,-6.726 9.062,-8.395 0.018,4.443 0.036,8.885 0.054,13.328 z"
               style="fill:none;stroke:#f0d179;stroke-width:2.001;stroke-linecap:butt;stroke-linejoin:round;stroke-miterlimit:10;stroke-dasharray:none;stroke-opacity:1"
               id="path3896" /></g><g
             id="g3902"
             transform="translate(326.4886,117.9303)"><path
               d="m 0,0 v -30.841 c 4.665,-4.4 9.33,-8.8 13.995,-13.2 10.675,-2.231 18.716,-0.882 20.171,0.815 1.605,1.873 2.159,3.972 2.159,3.972 0.106,0.402 0.166,0.615 0.187,0.889 0.181,2.374 -2.127,4.155 -6.622,8.092 -1.146,1.003 -2.304,1.992 -3.413,3.035 C 13.392,-14.935 3.89,-5.962 2.391,-4.567 2.156,-4.347 1.468,-3.709 0.887,-2.666 0.298,-1.609 0.085,-0.627 0,0"
               style="fill:#21547d;fill-opacity:1;fill-rule:nonzero;stroke:none"
               id="path3900" /></g><g
             id="g3906"
             transform="translate(326.4886,117.9303)"><path
               d="m 0,0 v -30.841 c 4.665,-4.4 9.33,-8.8 13.995,-13.2 10.675,-2.231 18.716,-0.882 20.171,0.815 1.605,1.873 2.159,3.972 2.159,3.972 0.106,0.402 0.166,0.615 0.187,0.889 0.181,2.374 -2.127,4.155 -6.622,8.092 -1.146,1.003 -2.304,1.992 -3.413,3.035 C 13.392,-14.935 3.89,-5.962 2.391,-4.567 2.156,-4.347 1.468,-3.709 0.887,-2.666 0.298,-1.609 0.085,-0.627 0,0 Z"
               style="fill:none;stroke:#f0d179;stroke-width:2.001;stroke-linecap:butt;stroke-linejoin:round;stroke-miterlimit:10;stroke-dasharray:none;stroke-opacity:1"
               id="path3904" /></g><g
             id="g3910"
             transform="translate(231.7819,79.566)"><path
               d="m 0,0 c 0,0.192 0.188,-2.374 2.046,-3.707 1.178,-0.845 2.663,-0.946 3.793,-0.883 66.846,-0.224 115.815,-0.106 119.279,0.343 2.742,0.355 4.36,1.755 4.36,1.755 1.036,0.909 1.519,1.911 1.741,2.492 v -25.075 c -0.177,-1.234 -0.638,-2.927 -1.977,-4.156 -0.834,-0.765 -2.184,-1.625 -4.531,-1.625 H 8.459 c -0.351,-0.03 -4.997,-0.357 -7.318,2.947 -0.729,1.037 -1.008,2.119 -1.117,2.927 C 0.016,-16.655 0.008,-8.327 0,0"
               style="fill:#4d81bf;fill-opacity:1;fill-rule:nonzero;stroke:none"
               id="path3908" /></g><g
             id="g3914"
             transform="translate(231.7819,79.566)"><path
               d="m 0,0 c 0,0.192 0.188,-2.374 2.046,-3.707 1.178,-0.845 2.663,-0.946 3.793,-0.883 66.846,-0.224 115.815,-0.106 119.279,0.343 2.742,0.355 4.36,1.755 4.36,1.755 1.036,0.909 1.519,1.911 1.741,2.492 v -25.075 c -0.177,-1.234 -0.638,-2.927 -1.977,-4.156 -0.834,-0.765 -2.184,-1.625 -4.531,-1.625 H 8.459 c -0.351,-0.03 -4.997,-0.357 -7.318,2.947 -0.729,1.037 -1.008,2.119 -1.117,2.927 C 0.016,-16.655 0.008,-8.327 0,0 Z"
               style="fill:none;stroke:#f0d179;stroke-width:1.914;stroke-linecap:butt;stroke-linejoin:round;stroke-miterlimit:10;stroke-dasharray:none;stroke-opacity:1"
               id="path3912" /></g></g></g><text
         xml:space="preserve"
         transform="matrix(1,0,0,-1,241.6538,57.3936)"
         style="font-variant:normal;font-weight:500;font-stretch:normal;font-size:11px;font-family:'Roboto Medium';-inkscape-font-specification:Roboto-Medium;writing-mode:lr-tb;fill:#f0d179;fill-opacity:1;fill-rule:nonzero;stroke:none"
         id="text3926"><tspan
           x="0 7.6856999 14.8885 20.642599 26.3186 28.7826 36.198799 41.962799 44.4268 51.131302 57.172501 63.6702 66.576401 73.5504 79.568497 87.203598 94.2183 100.1583 102.6223 105.4911 108.3599"
           y="0"
           sodipodi:role="line"
           id="tspan3920">HALL OF RESIDENCE III</tspan><tspan
           x="121.154 127.6528 130.55791 138.18201 145.442 152.64371 159.5033 166.9173 173.6207"
           y="-41.888"
           sodipodi:role="line"
           id="tspan3922">SINGAPORE</tspan><tspan
           x="-85.096001 -77.412498 -70.207497 -62.497601 -56.816101 -49.611099 -41.987"
           y="-45.716"
           sodipodi:role="line"
           id="tspan3924">NANYANG</tspan></text><text
         xml:space="preserve"
         transform="matrix(1,0,0,-1,156.5562,95.9092)"
         style="font-variant:normal;font-weight:500;font-stretch:normal;font-size:6px;font-family:'Roboto Medium';-inkscape-font-specification:Roboto-Medium;writing-mode:lr-tb;fill:#f0d179;fill-opacity:1;fill-rule:nonzero;stroke:none"
         id="text3930"><tspan
           x="0 3.678 7.0187998 10.9866 15.3006 19.5966 23.7852 26.961599 31.1322 35.2542 36.985802 40.887001 44.955601 48.050999 49.395 53.390999 57.683998 59.431198 63.388802 66.814796 70.572601 74.257797 75.9702 79.837196"
           y="0"
           sodipodi:role="line"
           id="tspan3928">TECHNOLOGICAL UNIVERSITY</tspan></text><g
         id="g3950"><g
           id="g3948"
           clip-path="url(#clipPath510)"><g
             id="g3934"
             transform="translate(248.5326,119.9718)"><path
               d="M 0,0 V -3.771"
               style="fill:#8e0716;fill-opacity:1;fill-rule:nonzero;stroke:#f0d179;stroke-width:2;stroke-linecap:butt;stroke-linejoin:round;stroke-miterlimit:10;stroke-dasharray:none;stroke-opacity:1"
               id="path3932" /></g><g
             id="g3938"
             transform="translate(346.2314,120.1852)"><path
               d="M 0,0 C 0.015,-1.328 0.03,-2.656 0.045,-3.984"
               style="fill:#8e0716;fill-opacity:1;fill-rule:nonzero;stroke:#f0d179;stroke-width:2;stroke-linecap:butt;stroke-linejoin:round;stroke-miterlimit:10;stroke-dasharray:none;stroke-opacity:1"
               id="path3936" /></g><g
             id="g3942"
             transform="translate(442.5529,120.7918)"><path
               d="M 0,0 C 0.015,-1.53 0.029,-3.061 0.044,-4.591"
               style="fill:#8e0716;fill-opacity:1;fill-rule:nonzero;stroke:#f0d179;stroke-width:2;stroke-linecap:butt;stroke-linejoin:round;stroke-miterlimit:10;stroke-dasharray:none;stroke-opacity:1"
               id="path3940" /></g><g
             id="g3946"
             transform="translate(152.2287,120.8177)"><path
               d="M 0,0 V -4.366"
               style="fill:#8e0716;fill-opacity:1;fill-rule:nonzero;stroke:#f0d179;stroke-width:2;stroke-linecap:butt;stroke-linejoin:round;stroke-miterlimit:10;stroke-dasharray:none;stroke-opacity:1"
               id="path3944" /></g></g></g></g></g></svg>
