<svg width="43" height="34" viewBox="0 0 43 34" fill="none" xmlns="http://www.w3.org/2000/svg">
<path d="M6.01278 33.6194H36.8481C40.2966 33.6194 42.288 31.6279 42.288 27.6826V6.53737C42.288 2.61084 40.2778 0.619385 36.2736 0.619385H5.43912C2.01107 0.619385 0 2.59205 0 6.53737V27.6818C0 31.6459 2.02986 33.6186 6.01441 33.6186M18.8661 18.0865L4.40458 3.81863C4.82542 3.6462 5.32308 3.55059 5.91717 3.55059H36.3896C36.9829 3.55059 37.5002 3.6462 37.9406 3.85703L23.4995 18.0873C22.6758 18.9102 21.9477 19.2747 21.182 19.2747C20.4155 19.2747 19.6882 18.9102 18.8645 18.0873M2.92876 27.6826V6.34615L13.941 17.1492L2.94837 28.007C2.92957 27.9114 2.92957 27.7962 2.92957 27.6818M39.3576 6.55616V27.9498L28.4214 17.1484L39.3584 6.40417L39.3576 6.55616ZM5.91717 30.6898C5.36149 30.6898 4.90224 30.613 4.50019 30.4406L15.9529 19.1211L17.1983 20.3468C18.5384 21.6682 19.8214 22.2239 21.182 22.2239C22.5222 22.2239 23.8248 21.6682 25.1657 20.3468L26.4103 19.1211L37.845 30.421C37.4422 30.613 36.9445 30.689 36.3888 30.689L5.91717 30.6898Z" fill="#2F2F2F"/>
</svg>
