<svg width="42" height="33" viewBox="0 0 42 33" fill="none" xmlns="http://www.w3.org/2000/svg">
<path d="M20.831 18.4002C21.6217 18.4002 22.3377 18.0426 23.1477 17.2133L39.5325 0.997232C38.8358 0.319822 37.5364 0 35.6721 0H5.34857C3.76634 0 2.6558 0.301339 2.03384 0.9225L18.5135 17.2141C19.3235 18.0233 20.0579 18.4002 20.8302 18.4002M0.470893 29.4179L13.7861 16.253L0.433929 3.08813C0.151071 3.61607 0 4.52009 0 5.81946V26.6119C0 27.949 0.169554 28.8908 0.470893 29.4179ZM41.1525 29.3995C41.4346 28.853 41.5864 27.9297 41.5864 26.6111V5.82027C41.5864 4.55866 41.4538 3.65384 41.171 3.14598L27.8743 16.253L41.1525 29.3995ZM5.91429 32.449H36.2362C37.8193 32.449 38.9113 32.1477 39.5325 31.545L25.9722 18.0988L24.7106 19.3604C23.4297 20.6036 22.2059 21.1685 20.831 21.1685C19.4561 21.1685 18.2314 20.6036 16.9513 19.3604L15.6897 18.0988L2.14714 31.5273C2.86232 32.1485 4.12393 32.4498 5.91348 32.4498" fill="#2F2F2F"/>
</svg>
