<svg width="30" height="39" viewBox="0 0 30 39" fill="none" xmlns="http://www.w3.org/2000/svg">
<path d="M14.9286 0.619385C10.9707 0.624054 7.17627 2.19838 4.37764 4.99701C1.579 7.79565 0.00467857 11.5901 9.36995e-06 15.5479C-0.00362958 18.7821 1.05275 21.9284 3.00743 24.5051C3.00743 24.5051 3.41458 25.0411 3.48108 25.1185L14.9286 38.6193L26.3815 25.1117C26.4412 25.0398 26.8497 24.5051 26.8497 24.5051L26.851 24.501C28.8044 21.9253 29.8603 18.7806 29.8571 15.5479C29.8524 11.5901 28.2781 7.79565 25.4795 4.99701C22.6809 2.19838 18.8864 0.624054 14.9286 0.619385ZM14.9286 20.9765C13.8549 20.9765 12.8053 20.6581 11.9126 20.0616C11.0199 19.4651 10.3241 18.6173 9.91322 17.6254C9.50235 16.6334 9.39484 15.5419 9.60431 14.4889C9.81377 13.4358 10.3308 12.4686 11.09 11.7094C11.8492 10.9502 12.8165 10.4331 13.8695 10.2237C14.9225 10.0142 16.014 10.1217 17.006 10.5326C17.9979 10.9435 18.8458 11.6393 19.4422 12.532C20.0387 13.4247 20.3571 14.4743 20.3571 15.5479C20.3553 16.9871 19.7828 18.3669 18.7652 19.3845C17.7475 20.4022 16.3678 20.9747 14.9286 20.9765Z" fill="#2F2F2F"/>
</svg>
