<svg width="38" height="37" viewBox="0 0 38 37" fill="none" xmlns="http://www.w3.org/2000/svg">
<path d="M26.3039 23.465L25.3508 24.414C25.3508 24.414 23.0821 26.668 16.892 20.5135C10.7019 14.359 12.9706 12.105 12.9706 12.105L13.5697 11.5059C15.0507 10.0354 15.1911 7.67248 13.8986 5.94637L11.2592 2.42085C9.65874 0.284177 6.56894 0.00138116 4.736 1.82384L1.44719 5.0917C0.540153 5.99665 -0.0673347 7.16554 0.0059827 8.4643C0.194513 11.7887 1.69857 18.9382 10.0861 27.2796C18.9826 36.1238 27.3303 36.4757 30.7427 36.1573C31.8236 36.0568 32.7621 35.5079 33.5183 34.7538L36.4929 31.796C38.5039 29.7997 37.9383 26.3747 35.3659 24.9775L31.3649 22.801C29.6765 21.8856 27.6236 22.1537 26.3039 23.465Z" fill="#2F2F2F"/>
</svg>
