<?xml version="1.0" encoding="UTF-8" standalone="no"?>
<svg
   viewBox="0 0 480 463.97211"
   x="0px"
   y="0px"
   version="1.1"
   id="svg12"
   sodipodi:docname="noun-air-condition-3379051.svg"
   width="480"
   height="463.97211"
   inkscape:version="1.3.2 (091e20e, 2023-11-25, custom)"
   xmlns:inkscape="http://www.inkscape.org/namespaces/inkscape"
   xmlns:sodipodi="http://sodipodi.sourceforge.net/DTD/sodipodi-0.dtd"
   xmlns="http://www.w3.org/2000/svg"
   xmlns:svg="http://www.w3.org/2000/svg">
  <defs
     id="defs12" />
  <sodipodi:namedview
     id="namedview12"
     pagecolor="#ffffff"
     bordercolor="#000000"
     borderopacity="0.25"
     inkscape:showpageshadow="2"
     inkscape:pageopacity="0.0"
     inkscape:pagecheckerboard="0"
     inkscape:deskcolor="#d1d1d1"
     inkscape:zoom="0.89824658"
     inkscape:cx="217.08961"
     inkscape:cy="324.52113"
     inkscape:window-width="1920"
     inkscape:window-height="1009"
     inkscape:window-x="-8"
     inkscape:window-y="204"
     inkscape:window-maximized="1"
     inkscape:current-layer="svg12" />
  <g
     id="g11"
     transform="translate(-16,-32)"
     style="fill:#2f2f2f;fill-opacity:1">
    <path
       d="M 472,32 H 40 A 24.028,24.028 0 0 0 16,56 v 112 a 24.028,24.028 0 0 0 24,24 h 432 a 24.028,24.028 0 0 0 24,-24 V 56 A 24.028,24.028 0 0 0 472,32 Z M 432,144 H 80 V 128 H 432 Z M 80,176 v -16 h 352 v 16 z m 400,-8 a 8.009,8.009 0 0 1 -8,8 H 448 V 128 A 16.019,16.019 0 0 0 432,112 H 80 a 16.019,16.019 0 0 0 -16,16 v 48 H 40 a 8.009,8.009 0 0 1 -8,-8 V 56 a 8.009,8.009 0 0 1 8,-8 h 432 a 8.009,8.009 0 0 1 8,8 z"
       id="path1"
       style="fill:#2f2f2f;fill-opacity:1" />
    <path
       d="m 192.827,422.265 a 8,8 0 0 0 11.084,2.268 l 10.8,-7.133 8.307,4.8 v 19.6 l -8.307,4.8 -10.8,-7.133 a 8,8 0 0 0 -8.816,13.352 l 11.59,7.653 0.833,13.864 a 8,8 0 0 0 7.977,7.521 c 0.162,0 0.324,-0.005 0.487,-0.015 a 8,8 0 0 0 7.506,-8.465 l -0.776,-12.921 8.308,-4.8 16.98,9.8 v 9.593 l -11.578,5.789 a 8,8 0 0 0 7.156,14.31 l 12.422,-6.204 12.422,6.211 a 8,8 0 0 0 7.156,-14.31 L 264,475.056 v -9.593 l 16.98,-9.8 8.308,4.8 -0.776,12.921 a 8,8 0 0 0 7.506,8.465 c 0.163,0.01 0.325,0.015 0.487,0.015 a 8,8 0 0 0 7.977,-7.521 l 0.833,-13.864 11.59,-7.653 a 8,8 0 1 0 -8.816,-13.352 l -10.8,7.133 -8.307,-4.8 V 422.2 l 8.307,-4.8 10.8,7.133 a 8,8 0 1 0 8.816,-13.352 l -11.59,-7.653 -0.833,-13.864 a 8,8 0 1 0 -15.97,0.959 l 0.776,12.921 -8.308,4.8 -16.98,-9.8 v -9.593 l 11.578,-5.789 a 8,8 0 1 0 -7.156,-14.31 L 256,375.056 243.578,368.845 a 8,8 0 1 0 -7.156,14.31 L 248,388.944 v 9.593 l -16.98,9.8 -8.308,-4.8 0.776,-12.921 a 8,8 0 1 0 -15.97,-0.959 l -0.833,13.864 -11.59,7.653 a 8,8 0 0 0 -2.268,11.091 z m 46.193,-0.068 16.98,-9.8 16.98,9.8 V 441.8 l -16.98,9.8 -16.98,-9.8 z"
       id="path2"
       style="fill:#2f2f2f;fill-opacity:1" />
    <path
       d="m 95.769,362.713 -4.753,2.743 -7.6,-5.019 A 8,8 0 0 0 74.6,373.789 l 8.391,5.54 0.6,10.037 a 8,8 0 0 0 7.977,7.522 c 0.161,0 0.325,0 0.488,-0.015 a 8,8 0 0 0 7.506,-8.465 l -0.546,-9.1 4.753,-2.744 11.627,6.713 v 5.488 l -8.15,4.075 a 8,8 0 0 0 7.156,14.31 l 8.994,-4.5 8.995,4.5 a 8.0002041,8.0002041 0 0 0 7.154,-14.312 L 131.4,388.77 v -5.488 l 11.627,-6.713 4.753,2.744 -0.546,9.1 a 8,8 0 0 0 7.506,8.465 c 0.163,0.01 0.326,0.015 0.488,0.015 a 8,8 0 0 0 7.977,-7.522 l 0.6,-10.037 8.391,-5.54 a 8,8 0 1 0 -8.816,-13.352 l -7.6,5.019 -4.753,-2.743 v -13.431 l 4.753,-2.743 7.6,5.019 a 8,8 0 1 0 8.816,-13.352 l -8.391,-5.54 -0.6,-10.037 a 8,8 0 1 0 -15.971,0.958 l 0.546,9.1 -4.753,2.744 -11.627,-6.718 v -5.488 l 8.149,-4.074 a 8.0002041,8.0002041 0 0 0 -7.154,-14.312 l -8.995,4.5 -8.994,-4.5 a 8,8 0 0 0 -7.156,14.31 l 8.15,4.075 v 5.488 l -11.627,6.713 -4.753,-2.744 0.546,-9.1 a 8,8 0 1 0 -15.971,-0.958 l -0.6,10.037 -8.391,5.54 a 8,8 0 1 0 8.816,13.352 l 7.6,-5.019 4.753,2.743 z m 16,-13.426 11.627,-6.713 11.627,6.713 v 13.426 l -11.623,6.713 -11.627,-6.713 z"
       id="path3"
       style="fill:#2f2f2f;fill-opacity:1" />
    <path
       d="m 357.051,323.127 a 8,8 0 0 0 -8.465,7.507 l -0.6,10.037 -8.391,5.54 a 8,8 0 1 0 8.816,13.352 l 7.6,-5.019 4.753,2.743 v 13.426 l -4.753,2.743 -7.6,-5.019 a 8,8 0 0 0 -8.816,13.352 l 8.391,5.54 0.6,10.037 a 8,8 0 0 0 7.977,7.522 c 0.162,0 0.325,0 0.488,-0.015 a 8,8 0 0 0 7.506,-8.465 l -0.546,-9.1 4.753,-2.744 11.627,6.713 v 5.488 l -8.15,4.075 a 8,8 0 0 0 7.156,14.31 l 8.994,-4.5 8.993,4.5 a 8,8 0 0 0 7.156,-14.31 l -8.149,-4.075 v -5.488 l 11.627,-6.713 4.753,2.744 -0.546,9.1 a 8,8 0 0 0 7.5,8.465 c 0.164,0.01 0.326,0.015 0.488,0.015 a 8,8 0 0 0 7.977,-7.521 l 0.6,-10.038 8.39,-5.54 a 8,8 0 1 0 -8.816,-13.352 l -7.6,5.02 -4.753,-2.744 v -13.426 l 4.753,-2.744 7.6,5.02 a 8,8 0 1 0 8.816,-13.352 l -8.39,-5.54 -0.6,-10.038 a 8,8 0 1 0 -15.97,0.959 l 0.546,9.1 -4.753,2.744 -11.627,-6.713 v -5.493 l 8.149,-4.075 a 8,8 0 1 0 -7.156,-14.31 l -8.993,4.5 -8.994,-4.5 a 8,8 0 0 0 -7.156,14.31 l 8.15,4.075 v 5.488 l -11.627,6.713 -4.753,-2.744 0.546,-9.1 a 8,8 0 0 0 -7.501,-8.46 z m 19.713,34.16 11.627,-6.713 11.627,6.713 v 13.426 l -11.627,6.713 -11.627,-6.713 z"
       id="path4"
       style="fill:#2f2f2f;fill-opacity:1" />
    <circle
       cx="362.40799"
       cy="88"
       r="8"
       id="circle4"
       style="fill:#2f2f2f;fill-opacity:1" />
    <circle
       cx="392"
       cy="88"
       r="8"
       id="circle5"
       style="fill:#2f2f2f;fill-opacity:1" />
    <circle
       cx="424"
       cy="88"
       r="8"
       id="circle6"
       style="fill:#2f2f2f;fill-opacity:1" />
    <path
       d="m 256,232 a 8,8 0 0 0 8,-8 v -8 a 8,8 0 0 0 -16,0 v 8 a 8,8 0 0 0 8,8 z"
       id="path6"
       style="fill:#2f2f2f;fill-opacity:1" />
    <path
       d="m 248,296 a 8,8 0 0 0 16,0 v -48 a 8,8 0 0 0 -16,0 z"
       id="path7"
       style="fill:#2f2f2f;fill-opacity:1" />
    <path
       d="m 179.42,266.4 a 72.315,72.315 0 0 1 -8.22,7.2 8,8 0 1 0 9.6,12.8 88.522,88.522 0 0 0 10.046,-8.8 8,8 0 0 0 -11.426,-11.2 z"
       id="path8"
       style="fill:#2f2f2f;fill-opacity:1" />
    <path
       d="M 198.121,255.332 A 7.993,7.993 0 0 0 208.653,251.2 87.475,87.475 0 0 0 216,216 a 8,8 0 0 0 -16,0 71.563,71.563 0 0 1 -6.011,28.8 8,8 0 0 0 4.132,10.532 z"
       id="path9"
       style="fill:#2f2f2f;fill-opacity:1" />
    <path
       d="m 340.8,273.6 a 71.6,71.6 0 0 1 -19.154,-21.6 8,8 0 0 0 -13.856,8 87.511,87.511 0 0 0 23.41,26.4 8,8 0 0 0 9.6,-12.8 z"
       id="path10"
       style="fill:#2f2f2f;fill-opacity:1" />
    <path
       d="m 312,216 a 8,8 0 0 0 -16,0 88.293,88.293 0 0 0 1.776,17.6 8.00062,8.00062 0 0 0 15.678,-3.2 A 72.164,72.164 0 0 1 312,216 Z"
       id="path11"
       style="fill:#2f2f2f;fill-opacity:1" />
  </g>
</svg>
