<?xml version="1.0" encoding="UTF-8" standalone="no"?>
<svg
   xml:space="preserve"
   style="image-rendering:optimizeQuality;shape-rendering:geometricPrecision;text-rendering:geometricPrecision"
   viewBox="0 0 6.1069582 4.4438828"
   x="0px"
   y="0px"
   fill-rule="evenodd"
   clip-rule="evenodd"
   version="1.1"
   id="svg20"
   sodipodi:docname="canteens.svg"
   width="6.1069584"
   height="4.4438829"
   inkscape:version="1.3.2 (091e20e, 2023-11-25, custom)"
   xmlns:inkscape="http://www.inkscape.org/namespaces/inkscape"
   xmlns:sodipodi="http://sodipodi.sourceforge.net/DTD/sodipodi-0.dtd"
   xmlns="http://www.w3.org/2000/svg"
   xmlns:svg="http://www.w3.org/2000/svg"><sodipodi:namedview
     id="namedview20"
     pagecolor="#ffffff"
     bordercolor="#000000"
     borderopacity="0.25"
     inkscape:showpageshadow="2"
     inkscape:pageopacity="0.0"
     inkscape:pagecheckerboard="0"
     inkscape:deskcolor="#d1d1d1"
     inkscape:zoom="47.636764"
     inkscape:cx="6.9379188"
     inkscape:cy="3.1383324"
     inkscape:window-width="1920"
     inkscape:window-height="1009"
     inkscape:window-x="-8"
     inkscape:window-y="204"
     inkscape:window-maximized="1"
     inkscape:current-layer="svg20" /><defs
     id="defs1"><style
       type="text/css"
       id="style1">
   
    .fil0 {fill:black}
   
  </style></defs><g
     id="g19"
     transform="translate(-0.359851,-1.1913871)"
     style="fill:#2f2f2f;fill-opacity:1"><g
       id="g18"
       style="fill:#2f2f2f;fill-opacity:1"><path
         class="fil0"
         d="M 0.923898,5.63527 C 0.8452445,5.63527 0.768367,5.602916 0.712981,5.54653 0.6580834,5.490554 0.6286306,5.417361 0.6300401,5.34014 L 0.6760677,2.82416 c 6.7716e-4,-0.036811 0.0311535,-0.065965 0.067878,-0.065409 0.036811,6.929e-4 0.0661102,0.03111 0.065437,0.067917 l -0.0460276,2.51596 c -7.5591e-4,0.04111 0.0151417,0.080287 0.0447638,0.110429 0.0304764,0.031102 0.0726811,0.048886 0.11578,0.048886 0.0430906,0 0.0852874,-0.017776 0.115768,-0.048886 C 1.0692889,5.422911 1.0851949,5.38375 1.0844429,5.34264 L 1.0384079,2.82666 c -6.732e-4,-0.036811 0.028626,-0.067216 0.065437,-0.067909 0.036905,-8.386e-4 0.067201,0.02861 0.067878,0.065417 l 0.046032,2.51596 c 0.00141,0.077221 -0.028047,0.150429 -0.082945,0.206402 -0.055394,0.056382 -0.132272,0.088748 -0.210909,0.08874 z"
         id="path1"
         style="fill:#2f2f2f;fill-opacity:1" /><path
         class="fil0"
         d="m 0.923898,1.40221 c -0.233472,0 -0.430713,0.322795 -0.430713,0.704736 0,0.381937 0.19724,0.704587 0.430713,0.704587 0.233472,-7.9e-6 0.430713,-0.322642 0.430713,-0.704587 0,-0.381953 -0.19724,-0.70472 -0.430713,-0.704736 z m 0,1.54264 C 0.767607,2.94485 0.622811,2.8537516 0.51617,2.688472 0.415367,2.532082 0.359851,2.325559 0.359851,2.106944 c 0,-0.218752 0.0555157,-0.425276 0.156319,-0.581528 0.106634,-0.165425 0.251437,-0.256528 0.407728,-0.256528 0.156283,-7.9e-6 0.301087,0.09111 0.407728,0.256528 0.100803,0.156244 0.156319,0.36278 0.156319,0.581528 0,0.21861 -0.055516,0.425138 -0.156319,0.581528 C 1.224984,2.85374 1.080181,2.944862 0.923898,2.94485 Z"
         id="path2"
         style="fill:#2f2f2f;fill-opacity:1" /><path
         class="fil0"
         d="M 6.40014,2.35499 H 5.404294 c -0.036815,0 -0.066681,-0.029854 -0.066681,-0.066657 0,-0.036811 0.029862,-0.066665 0.066681,-0.066665 l 0.995846,-7.9e-6 c 0.036823,0 0.066665,0.02987 0.066665,0.066673 3.9e-6,0.036795 -0.029847,0.066669 -0.066665,0.066658 z"
         id="path3"
         style="fill:#2f2f2f;fill-opacity:1" /><path
         class="fil0"
         d="m 5.4043,2.35499 c -0.036815,0 -0.066681,-0.029854 -0.066681,-0.066657 v -1.03028 c 0,-0.036815 0.029862,-0.066665 0.066681,-0.066665 0.036819,-7.9e-6 0.066665,0.029862 0.066665,0.066669 l 3.9e-6,1.03028 c 0,0.036795 -0.02985,0.066669 -0.066669,0.066658 z"
         id="path4"
         style="fill:#2f2f2f;fill-opacity:1" /><path
         class="fil0"
         d="m 5.73624,2.35499 c -0.036819,0 -0.066681,-0.029854 -0.066681,-0.066657 l 3.9e-6,-1.03028 c 0,-0.036815 0.029858,-0.066665 0.066677,-0.066665 0.036807,-7.9e-6 0.066665,0.029862 0.066665,0.066669 l 4e-6,1.03028 c 0,0.036795 -0.029866,0.066669 -0.066669,0.066658 z"
         id="path5"
         style="fill:#2f2f2f;fill-opacity:1" /><path
         class="fil0"
         d="m 6.06819,2.35499 c -0.036819,0 -0.066669,-0.029854 -0.066669,-0.066657 l 3.9e-6,-1.03028 c 0,-0.036815 0.029847,-0.066665 0.066665,-0.066665 0.036823,-7.9e-6 0.066665,0.029862 0.066665,0.066669 v 1.03028 c 0,0.036795 -0.029847,0.066669 -0.066665,0.066658 z"
         id="path6"
         style="fill:#2f2f2f;fill-opacity:1" /><path
         class="fil0"
         d="m 6.40014,2.35499 c -0.036819,0 -0.066665,-0.029854 -0.066665,-0.066657 l 3.9e-6,-1.03028 c 0,-0.036815 0.029842,-0.066665 0.066661,-0.066665 0.036823,-7.9e-6 0.066665,0.029862 0.066665,0.066669 l 4e-6,1.03028 c 0,0.036795 -0.02985,0.066669 -0.066669,0.066658 z"
         id="path7"
         style="fill:#2f2f2f;fill-opacity:1" /><path
         class="fil0"
         d="m 5.47096,2.35499 v 0.157232 c 0,0.108752 0.081024,0.203335 0.188496,0.220138 0.073642,0.01152 0.126126,0.074028 0.124819,0.148472 l -0.04261,2.4543 c -7.205e-4,0.04111 0.015224,0.080429 0.04489,0.110567 0.030476,0.031106 0.07261,0.04889 0.115654,0.04889 C 5.945237,5.4945851 5.98739,5.47681 6.017847,5.445699 6.047516,5.415557 6.063473,5.376254 6.062749,5.335144 l -0.04261,-2.45431 c 0,0 0,0 0,0 C 6.018839,2.806381 6.071336,2.743889 6.144958,2.732362 6.252434,2.715555 6.333474,2.620976 6.333474,2.512224 l 3.9e-6,-0.157232 H 5.4709619 Z M 5.902208,5.62791 C 5.823653,5.62791 5.746834,5.595556 5.691456,5.539166 5.636531,5.483331 5.607011,5.409997 5.608346,5.332776 L 5.65096,2.878476 C 5.6510978,2.871096 5.64624,2.865279 5.638873,2.864169 5.467137,2.83735 5.337625,2.68611 5.337625,2.512224 v -0.22389 c 0,-0.036811 0.029846,-0.066665 0.066665,-0.066665 l 0.995846,-7.9e-6 c 0.036823,0 0.066665,0.02987 0.066665,0.066673 l 3.9e-6,0.22389 c 0,0.173874 -0.129531,0.325138 -0.30128,0.351945 -0.00736,0.0011 -0.012209,0.00694 -0.012083,0.014307 l 0.042626,2.4543 c 0.00133,0.077221 -0.028181,0.150563 -0.083126,0.206398 -0.055374,0.056386 -0.132181,0.088748 -0.210736,0.088744 z"
         id="path8"
         style="fill:#2f2f2f;fill-opacity:1" /><path
         class="fil0"
         d="m 3.41332,1.6243 c -0.986484,0 -1.78907,0.802504 -1.78907,1.78903 0,0.986516 0.802579,1.78903 1.78907,1.78903 0.9865,-1.18e-5 1.78907,-0.8025 1.78907,-1.78903 0,-0.986531 -0.802571,-1.78903 -1.78907,-1.78903 z m 0,3.71139 c -1.06001,0 -1.9224,-0.862358 -1.9224,-1.92236 0,-1.06 0.862386,-1.92236 1.9224,-1.92236 1.06002,0 1.9224,0.862358 1.9224,1.92236 0,1.06 -0.862386,1.92236 -1.9224,1.92236 z"
         id="path9"
         style="fill:#2f2f2f;fill-opacity:1" /><path
         class="fil0"
         d="m 3.41332,1.96999 c -0.795819,0 -1.44326,0.647512 -1.44326,1.44334 0,0.795827 0.647445,1.44333 1.44326,1.44333 C 4.209139,4.8566521 4.8566,4.20916 4.8566,3.41333 4.8566,2.617487 4.209139,1.97 3.41332,1.96999 Z m 0,3.02 c -0.869346,0 -1.57661,-0.70735 -1.57661,-1.57666 0,-0.869311 0.707264,-1.57667 1.57661,-1.57667 0.869346,-7.9e-6 1.57661,0.707362 1.57661,1.57667 3.9e-6,0.869295 -0.707264,1.57667 -1.57661,1.57666 z"
         id="path10"
         style="fill:#2f2f2f;fill-opacity:1" /><path
         class="fil0"
         d="m 4.06392,3.23194 c -0.105488,0 -0.216016,0.026114 -0.308654,0.065835 C 3.638156,3.348051 3.534168,3.377913 3.450597,3.401803 3.268668,3.453878 3.204723,3.4775 3.184514,3.586803 3.118695,3.943331 3.490904,4.239858 3.700585,4.29222 3.864865,4.33333 4.052431,4.369165 4.199278,4.273748 4.317668,4.196941 4.398628,4.039028 4.43992,3.804303 4.481392,3.568457 4.44396,3.402638 4.328613,3.311248 4.2575303,3.2549874 4.162948,3.2319401 4.06392,3.23194 Z M 3.969837,4.46763 C 3.852282,4.46763 3.74292,4.44028 3.66825,4.421532 3.410222,4.357083 2.971667,4.00528 3.053404,3.562638 3.089628,3.366382 3.232739,3.325418 3.413904,3.273614 3.498018,3.249583 3.593337,3.222224 3.702684,3.175279 3.902838,3.089444 4.20853,3.046114 4.411393,3.206807 4.519113,3.292083 4.634295,3.469031 4.571239,3.827362 4.523282,4.099992 4.422558,4.287779 4.271893,4.385559 4.176255,4.447772 4.070058,4.467642 3.969837,4.46763 Z"
         id="path11"
         style="fill:#2f2f2f;fill-opacity:1" /><path
         class="fil0"
         d="m 3.83249,3.61249 c -0.094114,0 -0.170669,0.076539 -0.170669,0.170705 0,0.094153 0.076555,0.170693 0.170665,0.170693 C 3.9266,3.9538801 4.003167,3.87736 4.003167,3.783195 4.003167,3.689022 3.9266,3.612502 3.83249,3.61249 Z m 0,0.474717 c -0.167642,0 -0.304016,-0.136374 -0.304016,-0.304012 0,-0.167642 0.136374,-0.304028 0.304012,-0.304028 0.167642,-7.9e-6 0.304016,0.13639 0.304016,0.304028 0,0.167638 -0.136374,0.304028 -0.304012,0.304012 z"
         id="path12"
         style="fill:#2f2f2f;fill-opacity:1" /><path
         class="fil0"
         d="m 2.77013,4.16069 c -0.00802,0 -0.015961,-1.339e-4 -0.02385,-5.551e-4 -0.188929,-0.010287 -0.386528,-0.13972 -0.40211,-0.406106 -0.00661,-0.113197 -0.034945,-0.16 -0.067736,-0.214445 -0.038335,-0.063488 -0.081764,-0.135417 -0.083693,-0.29528 -0.00164,-0.137224 0.034236,-0.25111 0.106638,-0.338331 0.09761,-0.117642 0.256043,-0.178614 0.47089,-0.181394 5.709e-4,0 0.00115,0 0.00172,0 0.214862,0.00277 0.37328,0.063752 0.47089,0.181394 0.072417,0.087216 0.108291,0.201106 0.106638,0.338331 -7.756e-4,0.065543 -0.00848,0.120972 -0.023555,0.169724 -0.010874,0.03513 -0.048193,0.054858 -0.08339,0.044028 -0.035177,-0.01085 -0.054874,-0.048197 -0.044,-0.083476 0.011224,-0.036248 0.016988,-0.079441 0.017626,-0.131803 0.00302,-0.251256 -0.146736,-0.380835 -0.445067,-0.384862 -0.298335,0.00403 -0.448071,0.13361 -0.445059,0.384862 0.00149,0.123461 0.030697,0.171945 0.064516,0.227917 0.036638,0.060685 0.078153,0.129583 0.086693,0.275555 0.011516,0.196803 0.155972,0.274307 0.276169,0.280693 0.131445,0.00736 0.277445,-0.064303 0.306902,-0.240138 0.00608,-0.036252 0.040457,-0.060835 0.076764,-0.054724 0.036319,0.00611 0.060819,0.040559 0.05472,0.076807 -0.040984,0.244587 -0.24265,0.351807 -0.421705,0.351803 z"
         id="path13"
         style="fill:#2f2f2f;fill-opacity:1" /><path
         class="fil0"
         d="M 2.98172,3.20916 H 2.560527 c -0.036819,0 -0.066665,-0.029854 -0.066665,-0.066661 0,-0.036807 0.029847,-0.066665 0.066665,-0.066665 H 2.98172 c 0.036823,0 0.066681,0.029862 0.066681,0.066665 0,0.036803 -0.029862,0.066669 -0.066681,0.066661 z"
         id="path14"
         style="fill:#2f2f2f;fill-opacity:1" /><path
         class="fil0"
         d="M 2.91452,3.5093 H 2.627756 C 2.590933,3.5093 2.561071,3.479442 2.561071,3.442639 2.5610749,3.405832 2.590933,3.37597 2.627752,3.37597 l 0.286768,-1.18e-5 c 0.036819,0 0.066665,0.029874 0.066665,0.066681 0,0.036803 -0.029847,0.066665 -0.066666,0.066661 z"
         id="path15"
         style="fill:#2f2f2f;fill-opacity:1" /><path
         class="fil0"
         d="M 2.87867,3.80958 H 2.663587 c -0.036819,0 -0.066665,-0.029858 -0.066665,-0.066665 0,-0.036819 0.029847,-0.066665 0.066665,-0.066665 l 0.215083,-1.18e-5 c 0.036823,0 0.066665,0.029874 0.066665,0.066677 3.9e-6,0.036791 -0.029846,0.066665 -0.066665,0.066665 z"
         id="path16"
         style="fill:#2f2f2f;fill-opacity:1" /><path
         class="fil0"
         d="m 3.55609,2.24249 c -0.108929,0 -0.197555,0.088622 -0.197555,0.197512 0,0.10902 0.088626,0.197634 0.197555,0.197634 0.01861,-7.9e-6 0.037083,-0.00263 0.054819,-0.00778 -3.858e-4,-0.00653 -5.669e-4,-0.013055 -5.669e-4,-0.019583 0,-0.100976 0.046067,-0.195276 0.123094,-0.2575 C 3.7009084,2.2860966 3.633034,2.2425017 3.55609,2.24249 Z m 0,0.528469 c -0.182457,0 -0.33089,-0.148457 -0.33089,-0.330957 0,-0.182374 0.148433,-0.330835 0.33089,-0.330835 0.154169,-7.9e-6 0.286571,0.10472 0.322,0.254583 C 3.88495,2.39277 3.87166,2.422915 3.845547,2.43736 3.7827,2.472222 3.743673,2.53847 3.743673,2.610277 c 0,0.015413 0.00178,0.030693 0.00531,0.045555 C 3.755843,2.684989 3.742553,2.715001 3.71644,2.72958 3.667621,2.756659 3.612176,2.77097 3.5560935,2.770959 Z"
         id="path17"
         style="fill:#2f2f2f;fill-opacity:1" /><path
         class="fil0"
         d="m 3.94121,2.41263 c -0.108929,0 -0.197555,0.088622 -0.197555,0.19765 0,0.108882 0.088622,0.1975 0.197555,0.1975 0.108929,-7.9e-6 0.197555,-0.08861 0.197555,-0.1975 0,-0.109039 -0.088626,-0.197638 -0.197555,-0.19765 z m 0,0.528469 c -0.182445,0 -0.33089,-0.148457 -0.33089,-0.330819 0,-0.182508 0.148445,-0.330972 0.33089,-0.330972 0.182445,-3.9e-6 0.33089,0.148472 0.33089,0.330972 0,0.18235 -0.148445,0.330831 -0.33089,0.330819 z"
         id="path18"
         style="fill:#2f2f2f;fill-opacity:1" /></g></g></svg>
