<?xml version="1.0" encoding="UTF-8" standalone="no"?>
<svg
   viewBox="0 0 488 322"
   x="0px"
   y="0px"
   version="1.1"
   id="svg8"
   sodipodi:docname="twin_bed.svg"
   width="488"
   height="322"
   inkscape:version="1.3.2 (091e20e, 2023-11-25, custom)"
   xmlns:inkscape="http://www.inkscape.org/namespaces/inkscape"
   xmlns:sodipodi="http://sodipodi.sourceforge.net/DTD/sodipodi-0.dtd"
   xmlns="http://www.w3.org/2000/svg"
   xmlns:svg="http://www.w3.org/2000/svg">
  <defs
     id="defs8" />
  <sodipodi:namedview
     id="namedview8"
     pagecolor="#ffffff"
     bordercolor="#000000"
     borderopacity="0.25"
     inkscape:showpageshadow="2"
     inkscape:pageopacity="0.0"
     inkscape:pagecheckerboard="0"
     inkscape:deskcolor="#d1d1d1"
     inkscape:zoom="1.2703125"
     inkscape:cx="221.99262"
     inkscape:cy="183.02583"
     inkscape:window-width="1920"
     inkscape:window-height="1009"
     inkscape:window-x="-8"
     inkscape:window-y="204"
     inkscape:window-maximized="1"
     inkscape:current-layer="svg8" />
  <path
     d="m 236,258 h -4 v -23.573 a 33.778,33.778 0 0 0 -9.959,-24.042 L 208,196.344 V 146 A 24.028,24.028 0 0 0 184,122 H 56 a 24.028,24.028 0 0 0 -24,24 v 50.344 L 17.959,210.385 A 33.778,33.778 0 0 0 8,234.427 V 258 H 4 a 4,4 0 0 0 -4,4 v 56 a 4,4 0 0 0 4,4 h 232 a 4,4 0 0 0 4,-4 v -56 a 4,4 0 0 0 -4,-4 z M 156,186 H 84 v -18 a 6.006,6.006 0 0 1 6,-6 h 60 a 6.006,6.006 0 0 1 6,6 z m 31.716,8 a 15.9,15.9 0 0 1 11.313,4.686 L 210.344,210 H 29.656 L 40.971,198.686 A 15.9,15.9 0 0 1 52.284,194 Z M 16,234.427 A 25.8,25.8 0 0 1 21.844,218 H 218.156 A 25.8,25.8 0 0 1 224,234.427 V 258 H 16 Z"
     id="path1"
     style="fill:#2f2f2f;fill-opacity:1" />
  <path
     d="m 484,258 h -4 v -23.573 a 33.778,33.778 0 0 0 -9.959,-24.042 L 456,196.344 V 146 A 24.028,24.028 0 0 0 432,122 H 304 a 24.028,24.028 0 0 0 -24,24 v 50.344 l -14.041,14.041 A 33.778,33.778 0 0 0 256,234.427 V 258 h -4 a 4,4 0 0 0 -4,4 v 56 a 4,4 0 0 0 4,4 h 232 a 4,4 0 0 0 4,-4 v -56 a 4,4 0 0 0 -4,-4 z m -80,-72 h -72 v -18 a 6.006,6.006 0 0 1 6,-6 h 60 a 6.006,6.006 0 0 1 6,6 z m 31.716,8 a 15.9,15.9 0 0 1 11.313,4.686 L 458.344,210 H 277.656 l 11.315,-11.314 A 15.9,15.9 0 0 1 300.284,194 Z M 264,234.427 A 25.8,25.8 0 0 1 269.844,218 H 466.156 A 25.8,25.8 0 0 1 472,234.427 V 258 H 264 Z"
     id="path2"
     style="fill:#2f2f2f;fill-opacity:1" />
  <path
     d="m 76,90 h 96 a 4,4 0 0 0 4,-4 V 6 A 4,4 0 0 0 172,2 H 76 a 4,4 0 0 0 -4,4 v 80 a 4,4 0 0 0 4,4 z m 92,-80 v 55.938 a 29.523,29.523 0 0 1 -18.922,-8.516 l -8.69,-8.691 a 37.3,37.3 0 0 0 -48.739,-3.47 l -9.17,6.879 A 28.928,28.928 0 0 1 80,53.785 V 10 Z"
     id="path3"
     style="fill:#2f2f2f;fill-opacity:1" />
  <path
     d="M 148,42 A 12,12 0 1 0 136,30 12.013,12.013 0 0 0 148,42 Z"
     id="path4"
     style="fill:#2f2f2f;fill-opacity:1" />
  <path
     d="m 188,90 h 96 a 4,4 0 0 0 4,-4 V 6 a 4,4 0 0 0 -4,-4 h -96 a 4,4 0 0 0 -4,4 v 80 a 4,4 0 0 0 4,4 z m 36.263,-8 a 15.539,15.539 0 0 0 1.813,-2.808 l 2.342,-4.672 A 7.4,7.4 0 0 1 235.07,70.4 15.434,15.434 0 0 0 250.051,58.708 21.989,21.989 0 0 1 271.41,42 H 280 V 82 Z M 280,10 v 24 h -24.4 a 20,20 0 0 0 -39.194,0 H 192 V 10 Z"
     id="path5"
     style="fill:#2f2f2f;fill-opacity:1" />
  <path
     d="m 300,88 h 96 a 4,4 0 0 0 4,-4 V 4 a 4,4 0 0 0 -4,-4 h -96 a 4,4 0 0 0 -4,4 v 80 a 4,4 0 0 0 4,4 z M 392,8 V 37.842 A 28.926,28.926 0 0 0 388.282,35.461 29.445,29.445 0 0 0 374.47,32 a 29.078,29.078 0 0 0 -20.7,8.572 l -1.2,1.2 A 21.131,21.131 0 0 1 337.53,48 h -1.37 a 33.282,33.282 0 0 0 -23.588,9.771 21.3,21.3 0 0 1 -8.572,5.2 V 8 Z"
     id="path6"
     style="fill:#2f2f2f;fill-opacity:1" />
  <path
     d="M 324,40 A 12,12 0 1 0 312,28 12.013,12.013 0 0 0 324,40 Z"
     id="path7"
     style="fill:#2f2f2f;fill-opacity:1" />
</svg>
