<?xml version="1.0" encoding="UTF-8" standalone="no"?>
<svg
   data-name="Layer 2"
   viewBox="0 0 59.999989 48.976948"
   x="0px"
   y="0px"
   version="1.1"
   id="svg6"
   sodipodi:docname="gym.svg"
   width="59.999989"
   height="48.976948"
   inkscape:version="1.3.2 (091e20e, 2023-11-25, custom)"
   xmlns:inkscape="http://www.inkscape.org/namespaces/inkscape"
   xmlns:sodipodi="http://sodipodi.sourceforge.net/DTD/sodipodi-0.dtd"
   xmlns="http://www.w3.org/2000/svg"
   xmlns:svg="http://www.w3.org/2000/svg">
  <defs
     id="defs6" />
  <sodipodi:namedview
     id="namedview6"
     pagecolor="#ffffff"
     bordercolor="#000000"
     borderopacity="0.25"
     inkscape:showpageshadow="2"
     inkscape:pageopacity="0.0"
     inkscape:pagecheckerboard="0"
     inkscape:deskcolor="#d1d1d1"
     inkscape:zoom="5.08125"
     inkscape:cx="61.107011"
     inkscape:cy="21.156212"
     inkscape:window-width="1920"
     inkscape:window-height="1009"
     inkscape:window-x="-8"
     inkscape:window-y="204"
     inkscape:window-maximized="1"
     inkscape:current-layer="svg6" />
  <path
     d="M 30.99999,4.0574826 V 0.98570258 c -0.02209,-1.31354 -1.97772,-1.315 -2,0 V 4.0574826 c 0.02209,1.31348 1.97772,1.31494 2,0 z"
     id="path1"
     style="fill:#2f2f2f;fill-opacity:1" />
  <path
     d="m 22.99022,7.2176326 c 0.66479,1.13129 2.37988,0.13239 1.73236,-1.00006 6e-5,6e-5 -1.53607,-2.6601 -1.53607,-2.6601 -0.67737,-1.12793 -2.36993,-0.14929 -1.73242,1 z"
     id="path2"
     style="fill:#2f2f2f;fill-opacity:1" />
  <path
     d="m 37.00976,7.2176326 1.53613,-2.66016 c 0.63768,-1.14823 -1.0566,-2.1292 -1.73244,-0.99996 2e-5,-4e-5 -1.53611,2.66012 -1.53611,2.66012 -0.6359,1.13807 1.05128,2.13453 1.73242,1 z"
     id="path3"
     style="fill:#2f2f2f;fill-opacity:1" />
  <path
     d="m 56.99999,9.9857026 v -3 c 0,-2.21002 -1.78998,-4 -4,-4 h -3 c -2.21002,0 -4,1.78998 -4,4 V 12.985703 H 42.76391 C 41.20605,10.608013 38.48797,9.7977126 36.13281,11.557973 34.41046,9.6840126 31.91656,8.8898226 29.99707,10.408563 27.29749,7.6946926 22.3656,9.4446926 21.34296,12.985713 H 14 V 6.9857126 c 0,-2.21002 -1.78998,-4 -4,-4 H 7 c -2.21002,0 -4,1.78998 -4,4 v 3 c -1.6543,0 -3,1.3457004 -3,3.0000004 v 11 c 0,1.6543 1.3457,3 3,3 v 3 c 0,2.20996 1.78998,4 4,4 h 3 c 2.21002,0 4,-1.79004 4,-4 v -6 h 2.12152 c 0.49109,2.99921 2.4682,5.75793 5.38922,7.44238 0.29736,4.20703 -0.44336,8.18652 -2.43945,13.18652 -0.12207,0.30566 -0.08594,0.65137 0.09619,0.9248 3.07837,4.59497 18.62036,4.57184 21.66504,-1.8e-4 0.18213,-0.27325 0.21826,-0.61896 0.09619,-0.92462 -1.7998,-4.50879 -2.36621,-8.85156 -1.82422,-14.03027 2.29175,-2.02667 3.72107,-4.32471 4.52679,-6.59863 h 2.36871 v 6 c 0,2.20996 1.78998,4 4,4 h 3 c 2.21002,0 4,-1.79004 4,-4 v -3 c 1.6543,0 3,-1.3457 3,-3 v -11 c 0,-1.6543 -1.3457,-3.0000004 -3,-3.0000004 z m -54,15.0000004 c -0.55127,0 -1,-0.44824 -1,-1 v -11 c 0,-0.55127 0.44873,-1 1,-1 z m 11,-3 c -1.09998,0 -2,-0.90002 -2,-2 v -3 c 0,-1.10004 0.90002,-2 2,-2 h 8.05194 c 1.83325,2.69092 0.82703,5.80646 0.31818,7 z m 23.50732,7.33594 c -0.19434,0.16504 -0.31836,0.39746 -0.34766,0.65039 -0.625,5.46484 -0.10742,10.05371 1.67822,14.78418 -3.09821,2.9682 -14.62305,2.93915 -17.67529,0.0039 1.99609,-5.18262 2.70557,-9.53613 2.29736,-14.04004 -0.03125,-0.34082 -0.2334,-0.6416 -0.53662,-0.79785 -2.4751,-1.28125 -4.2627,-3.53516 -4.78076,-5.93652 h 4.85052 c 0.34918,-9.8e-4 0.67584,-0.17773 0.8609,-0.47949 0.03467,-0.05664 3.14404,-5.625 -0.52588,-10.17041 0.88531,-2.34851 4.44159,-3.2168 5.82471,-0.81879 0.19092,0.30463 0.51416,0.47894 0.89062,0.46771 0.35938,-0.01562 0.68262,-0.22314 0.84668,-0.54297 0.25537,-0.49902 0.67871,-0.7832 1.22363,-0.82129 0.78027,-0.05176 2.00342,0.42578 3.06787,1.94043 0.33466,0.50055 1.11127,0.5694 1.52539,0.13177 2.6272,-2.60767 4.8161,-0.10504 5.55078,3.21582 0.72168,3.44733 -0.14746,8.51959 -4.75049,12.41315 z m 10.49268,-9.33594 c 0,1.09998 -0.90002,2 -2,2 H 44.1856 c 0.49158,-2.61316 0.38336,-4.78448 -0.41199,-7 h 2.22638 c 1.09998,0 2,0.89996 2,2 z m 10,4 c 0,0.55176 -0.44873,1 -1,1 v -13 c 0.55127,0 1,0.44873 1,1 z"
     id="path4"
     style="fill:#2f2f2f;fill-opacity:1" />
  <path
     d="m 38.58886,14.591173 c -0.51514,0.19873 -0.77148,0.77783 -0.57227,1.29297 0.90137,2.33447 0.53906,5.15527 -0.92383,7.1875 -0.7583,1.05994 0.85059,2.22882 1.62311,1.16791 1.87543,-2.60443 2.32269,-6.08246 1.16595,-9.07611 -0.19824,-0.51514 -0.77783,-0.77002 -1.29297,-0.57227 z"
     id="path5"
     style="fill:#2f2f2f;fill-opacity:1" />
</svg>
