<?xml version="1.0" encoding="UTF-8" standalone="no"?>
<svg
   viewBox="0 0 240 320.60638"
   x="0px"
   y="0px"
   version="1.1"
   id="svg8"
   sodipodi:docname="single_bed.svg"
   width="240"
   height="320.60638"
   inkscape:version="1.3.2 (091e20e, 2023-11-25, custom)"
   xmlns:inkscape="http://www.inkscape.org/namespaces/inkscape"
   xmlns:sodipodi="http://sodipodi.sourceforge.net/DTD/sodipodi-0.dtd"
   xmlns="http://www.w3.org/2000/svg"
   xmlns:svg="http://www.w3.org/2000/svg">
  <defs
     id="defs8" />
  <sodipodi:namedview
     id="namedview8"
     pagecolor="#ffffff"
     bordercolor="#000000"
     borderopacity="0.25"
     inkscape:showpageshadow="2"
     inkscape:pageopacity="0.0"
     inkscape:pagecheckerboard="0"
     inkscape:deskcolor="#d1d1d1"
     inkscape:zoom="1.2703125"
     inkscape:cx="81.476015"
     inkscape:cy="148.38868"
     inkscape:window-width="1920"
     inkscape:window-height="1009"
     inkscape:window-x="-8"
     inkscape:window-y="204"
     inkscape:window-maximized="1"
     inkscape:current-layer="svg8" />
  <path
     d="m 236,256.6064 h -4 v -23.573 a 33.778,33.778 0 0 0 -9.959,-24.042 L 208,194.9504 v -50.344 a 24.028,24.028 0 0 0 -24,-24 H 56 a 24.028,24.028 0 0 0 -24,24 v 50.344 l -14.041,14.041 A 33.778,33.778 0 0 0 8,233.0334 v 23.573 H 4 a 4,4 0 0 0 -4,4 v 56 a 4,4 0 0 0 4,4 h 232 a 4,4 0 0 0 4,-4 v -56 a 4,4 0 0 0 -4,-4 z m -80,-72 H 84 v -18 a 6.006,6.006 0 0 1 6,-6 h 60 a 6.006,6.006 0 0 1 6,6 z m 31.716,8 a 15.9,15.9 0 0 1 11.313,4.686 l 11.315,11.314 H 29.656 l 11.315,-11.314 a 15.9,15.9 0 0 1 11.313,-4.686 z M 16,233.0334 a 25.8,25.8 0 0 1 5.844,-16.427 h 196.312 a 25.8,25.8 0 0 1 5.844,16.427 v 23.573 H 16 Z"
     id="path1"
     style="fill:#2f2f2f;fill-opacity:1" />
  <g
     id="g8"
     transform="matrix(-1,0,0,1,247.71956,-1.9999999)">
    <path
       d="m 135.04059,90 h 96 a 4,4 0 0 0 4,-4 V 6 a 4,4 0 0 0 -4,-4 h -96 a 4,4 0 0 0 -4,4 v 80 a 4,4 0 0 0 4,4 z m 92,-80 v 55.938 a 29.523,29.523 0 0 1 -18.922,-8.516 l -8.69,-8.691 a 37.3,37.3 0 0 0 -48.739,-3.47 l -9.17,6.879 a 28.928,28.928 0 0 1 -2.479,1.645 V 10 Z"
       id="path3"
       style="fill:#2f2f2f;fill-opacity:1" />
    <path
       d="m 207.04059,42 a 12,12 0 1 0 -12,-12 12.013,12.013 0 0 0 12,12 z"
       id="path4"
       style="fill:#2f2f2f;fill-opacity:1" />
  </g>
  <g
     id="g9"
     transform="matrix(-1,0,0,1,486.32226,-0.78720787)">
    <path
       d="m 263.00123,88.787208 h 96 a 4,4 0 0 0 4,-4 V 4.7872079 a 4,4 0 0 0 -4,-4.00000003 h -96 a 4,4 0 0 0 -4,4.00000003 V 84.787208 a 4,4 0 0 0 4,4 z m 92,-80.0000001 V 38.629208 a 28.926,28.926 0 0 0 -3.718,-2.381 29.445,29.445 0 0 0 -13.812,-3.461 29.078,29.078 0 0 0 -20.7,8.572 l -1.2,1.2 a 21.131,21.131 0 0 1 -15.04,6.228 h -1.37 a 33.282,33.282 0 0 0 -23.588,9.771 21.3,21.3 0 0 1 -8.572,5.2 V 8.7872079 Z"
       id="path6"
       style="fill:#2f2f2f;fill-opacity:1" />
    <path
       d="m 287.00123,40.787208 a 12,12 0 1 0 -12,-12 12.013,12.013 0 0 0 12,12 z"
       id="path7"
       style="fill:#2f2f2f;fill-opacity:1" />
  </g>
</svg>
